{
.appVersion = "895";
copyright = "Copyright (c) 2011, The Maven Pro Project Authors (Joe Prince)";
customParameters = (
{
name = licenseURL;
value = "http://scripts.sil.org/OFL";
},
{
name = description;
value = "Copyright (c) 2011 by Vissol Ltd. All rights reserved.";
},
{
name = trademark;
value = "Maven Pro is a trademark of Vissol Ltd. www.vissol.co.uk ";
},
{
name = license;
value = "This Font Software is licensed under the SIL Open Font License, Version 1.1. This license is available with a FAQ at: http://scripts.sil.org/OFL";
},
{
name = fsType;
value = "New Parameter";
},
{
name = panose;
value = (
"2",
"0",
"0",
"0",
"0",
"0",
"0",
"0",
"0",
"0"
);
},
{
name = "Use Typo Metrics";
value = 1;
}
);
date = "2016-08-05 10:04:49 +0000";
designer = "Joe Prince";
designerURL = "http://www.admixdesigns.com/";
familyName = "Maven Pro";
featurePrefixes = (
{
automatic = 1;
code = "languagesystem DFLT dflt;\012languagesystem latn dflt;\012languagesystem latn CAT;\012languagesystem latn ROM;\012languagesystem latn MOL;\012";
name = Languagesystems;
}
);
features = (
{
automatic = 1;
code = "feature locl;\012feature frac;\012feature ordn;\012";
name = aalt;
},
{
automatic = 1;
code = "script latn;\012language CAT;\012sub  l' periodcentered' l by ldot;\012sub  L' periodcentered' L by Ldot;\012language ROM;\012sub Scedilla by Scommaaccent;\012sub scedilla by scommaaccent;\012language MOL;\012sub Scedilla by Scommaaccent;\012sub scedilla by scommaaccent;\012";
name = locl;
},
{
automatic = 1;
code = "sub one slash eight by oneeighth;\012sub one slash four by onequarter;\012sub three slash eight by threeeighths;\012sub one slash two by onehalf;\012sub five slash eight by fiveeighths;\012sub three slash four by threequarters;\012sub seven slash eight by seveneighths;\012sub one slash three by onethird;\012";
name = frac;
},
{
automatic = 1;

glyphs = (
{
glyphname = A;
lastChange = "2016-08-16 14:28:43 +0000";
layers = (
{
anchors = (
{
name = bottom;
position = "{323, 0}";
},
{
name = ogonek;
position = "{581, 10}";
},
{
name = top;
position = "{323, 667}";
}
);
layerId = UUID0;
paths = (
{
closed = 1;
nodes = (
"98 0 LINE",
"330 602 LINE",
"315 600 LINE",
"546 0 LINE",
"623 0 LINE",
"358 667 LINE",
"286 667 LINE",
"20 0 LINE"
);
},
{
closed = 1;
nodes = (
"500 208 LINE",
"495 277 LINE",
"168 277 LINE",
"137 208 LINE"
);
}
);
width = 643;
},
{
anchors = (
{
name = bottom;
position = "{361, 0}";
},
{
name = ogonek;
position = "{654, 10}";
},
{
name = top;
position = "{361, 667}";
}
);
layerId = "ECACF70C-BE42-4FA5-B3A0-AFDA71FB1D31";
paths = (
{
closed = 1;
nodes = (
"200 0 LINE",
"396 651 LINE",
"290 642 LINE",
"502 0 LINE",
"707 0 LINE",
"456 667 LINE",
"261 667 LINE",
"15 0 LINE"
);
},
{
closed = 1;
nodes = (
"514 117 LINE",
"495 267 LINE",
"202 267 LINE",
"168 117 LINE"
);
}
);
width = 722;
}
);
leftKerningGroup = A;
unicode = 0041;
},
{
glyphname = Aacute;
lastChange = "2016-08-15 14:09:09 +0000";
layers = (
{
layerId = UUID0;
paths = (
{
closed = 1;
nodes = (
"99 0 LINE",
"179 208 LINE",
"467 208 LINE",
"547 0 LINE",
"624 0 LINE",
"359 667 LINE",
"287 667 LINE",
"21 0 LINE"
);
},
{
closed = 1;
nodes = (
"323 582 LINE",
"440 277 LINE",
"206 277 LINE"
);
},
{
closed = 1;
nodes = (
"348 724 LINE",
"431 839 LINE",
"357 839 LINE",
"300 724 LINE"
);
}
);
width = 647;
},
{
components = (
{
name = A;
},
{
name = acutecomb.case;
transform = "{1, 0, 0, 1, 252, 168}";
}
);
layerId = "ECACF70C-BE42-4FA5-B3A0-AFDA71FB1D31";
width = 722;
}
);
leftKerningGroup = Aring;
rightKerningGroup = Aring;
unicode = 00C1;
},
{
glyphname = Abreve;
lastChange = "2016-08-15 14:09:09 +0000";
layers = (
{
layerId = UUID0;
paths = (
{
closed = 1;
nodes = (
"99 0 LINE",
"179 208 LINE",
"467 208 LINE",
"547 0 LINE",
"624 0 LINE",
"359 667 LINE",
"287 667 LINE",
"21 0 LINE"
);
},
{
closed = 1;
nodes = (
"323 582 LINE",
"440 277 LINE",
"206 277 LINE"
);
},
{
closed = 1;
nodes = (
"389 705 OFFCURVE",
"428 744 OFFCURVE",
"428 809 CURVE",
"380 809 LINE",
"380 770 OFFCURVE",
"363 753 OFFCURVE",
"323 753 CURVE SMOOTH",
"283 753 OFFCURVE",
"266 770 OFFCURVE",
"266 809 CURVE",
"218 809 LINE",
"218 744 OFFCURVE",
"257 705 OFFCURVE",
"323 705 CURVE SMOOTH"
);
}
);
width = 647;
},
{
components = (
{
name = A;
},
{
name = brevecomb.case;
transform = "{1, 0, 0, 1, 140, 168}";
}
);
layerId = "ECACF70C-BE42-4FA5-B3A0-AFDA71FB1D31";
width = 722;
}
);
leftKerningGroup = Aring;
rightKerningGroup = Aring;
unicode = 0102;
},
{
glyphname = Abreveacute;
lastChange = "2016-08-09 11:48:59 +0000";
layers = (
{
layerId = UUID0;
paths = (
{
closed = 1;
nodes = (
"99 0 LINE",
"179 208 LINE",
"467 208 LINE",
"547 0 LINE",
"624 0 LINE",
"359 667 LINE",
"287 667 LINE",
"21 0 LINE"
);
},
{
closed = 1;
nodes = (
"323 582 LINE",
"440 277 LINE",
"206 277 LINE"
);
},
{
closed = 1;
nodes = (
"389 699 OFFCURVE",
"428 738 OFFCURVE",
"428 803 CURVE",
"380 803 LINE",
"380 763 OFFCURVE",
"363 747 OFFCURVE",
"323 747 CURVE SMOOTH",
"283 747 OFFCURVE",
"266 763 OFFCURVE",
"266 803 CURVE",
"218 803 LINE",
"218 738 OFFCURVE",
"257 699 OFFCURVE",
"323 699 CURVE SMOOTH"
);
},
{
closed = 1;
nodes = (
"341 819 LINE",
"424 934 LINE",
"350 934 LINE",
"293 819 LINE"
);
}
);
width = 647;
},
{
components = (
{
name = A;
}
);
layerId = "ECACF70C-BE42-4FA5-B3A0-AFDA71FB1D31";
paths = (
{
closed = 1;
nodes = (
"456 700 OFFCURVE",
"498 740 OFFCURVE",
"498 807 CURVE",
"408 807 LINE",
"405 785 OFFCURVE",
"396 771 OFFCURVE",
"367 771 CURVE SMOOTH",
"338 771 OFFCURVE",
"329 785 OFFCURVE",
"326 807 CURVE",
"236 807 LINE",
"236 740 OFFCURVE",
"278 700 OFFCURVE",
"367 700 CURVE SMOOTH"
);
},
{
closed = 1;
nodes = (
"405 816 LINE",
"498 933 LINE",
"381 933 LINE",
"319 816 LINE"
);
}
);
width = 734;
}
);
leftKerningGroup = Aring;
rightKerningGroup = Aring;
unicode = 1EAE;
},
{
glyphname = Abrevedotbelow;
lastChange = "2016-08-15 14:09:09 +0000";
layers = (
{
layerId = UUID0;
paths = (
{
closed = 1;
nodes = (
"99 0 LINE",
"179 208 LINE",
"467 208 LINE",
"547 0 LINE",
"624 0 LINE",
"359 667 LINE",
"287 667 LINE",
"21 0 LINE"
);
},
{
closed = 1;
nodes = (
"362 -129 LINE",
"362 -50 LINE",
"283 -50 LINE",
"283 -129 LINE"
);
},
{
closed = 1;
nodes = (
"323 582 LINE",
"440 277 LINE",
"206 277 LINE"
);
},
{
closed = 1;
nodes = (
"389 699 OFFCURVE",
"428 738 OFFCURVE",
"428 803 CURVE",
"380 803 LINE",
"380 763 OFFCURVE",
"363 747 OFFCURVE",
"323 747 CURVE SMOOTH",
"283 747 OFFCURVE",
"266 763 OFFCURVE",
"266 803 CURVE",
"218 803 LINE",
"218 738 OFFCURVE",
"257 699 OFFCURVE",
"323 699 CURVE SMOOTH"
);
}
);
width = 647;
},
{
components = (
{
name = A;
},
{
name = dotbelowcomb.case;
transform = "{1, 0, 0, 1, 251, 0}";
},
{
name = brevecomb.case;
transform = "{1, 0, 0, 1, 140, 168}";
}
);
layerId = "ECACF70C-BE42-4FA5-B3A0-AFDA71FB1D31";
width = 722;
}
);
leftKerningGroup = Aring;
rightKerningGroup = Aring;
unicode = 1EB6;
},
{
glyphname = Abrevegrave;
lastChange = "2016-08-15 14:09:09 +0000";
layers = (
{
layerId = UUID0;
paths = (
{
closed = 1;
nodes = (
"99 0 LINE",
"179 208 LINE",
"467 208 LINE",
"547 0 LINE",
"624 0 LINE",
"359 667 LINE",
"287 667 LINE",
"21 0 LINE"
);
},
{
closed = 1;
nodes = (
"323 582 LINE",
"440 277 LINE",
"206 277 LINE"
);
},
{
closed = 1;
nodes = (
"389 699 OFFCURVE",
"428 738 OFFCURVE",
"428 803 CURVE",
"380 803 LINE",
"380 763 OFFCURVE",
"363 747 OFFCURVE",
"323 747 CURVE SMOOTH",
"283 747 OFFCURVE",
"266 763 OFFCURVE",
"266 803 CURVE",
"218 803 LINE",
"218 738 OFFCURVE",
"257 699 OFFCURVE",
"323 699 CURVE SMOOTH"
);
},
{
closed = 1;
nodes = (
"352 819 LINE",
"295 934 LINE",
"221 934 LINE",
"304 819 LINE"
);
}
);
width = 647;
},
{
components = (
{
name = A;
},
{
name = brevecomb.case;
transform = "{1, 0, 0, 1, 140, 168}";
},
{
name = gravecomb.case;
transform = "{1, 0, 0, 1, 226, 336}";
}
);
layerId = "ECACF70C-BE42-4FA5-B3A0-AFDA71FB1D31";
width = 722;
}
);
leftKerningGroup = Aring;
rightKerningGroup = Aring;
unicode = 1EB0;
},
{
glyphname = Abrevehookabove;
lastChange = "2016-08-15 14:09:09 +0000";
layers = (
{
layerId = UUID0;
paths = (
{
closed = 1;
nodes = (
"99 0 LINE",
"179 208 LINE",
"467 208 LINE",
"547 0 LINE",
"624 0 LINE",
"359 667 LINE",
"287 667 LINE",
"21 0 LINE"
);
},
{
closed = 1;
nodes = (
"323 582 LINE",
"440 277 LINE",
"206 277 LINE"
);
},
{
closed = 1;
nodes = (
"389 699 OFFCURVE",
"428 738 OFFCURVE",
"428 803 CURVE",
"380 803 LINE",
"380 763 OFFCURVE",
"363 747 OFFCURVE",
"323 747 CURVE SMOOTH",
"283 747 OFFCURVE",
"266 763 OFFCURVE",
"266 803 CURVE",
"218 803 LINE",
"218 738 OFFCURVE",
"257 699 OFFCURVE",
"323 699 CURVE SMOOTH"
);
},
{
closed = 1;
nodes = (
"340 819 LINE",
"340 843 LINE",
"376 849 OFFCURVE",
"392 871 OFFCURVE",
"392 897 CURVE SMOOTH",
"392 950 OFFCURVE",
"343 965 OFFCURVE",
"301 965 CURVE SMOOTH",
"290 965 OFFCURVE",
"279 964 OFFCURVE",
"270 962 CURVE",
"270 919 LINE",
"277 920 OFFCURVE",
"286 921 OFFCURVE",
"297 921 CURVE SMOOTH",
"326 921 OFFCURVE",
"344 912 OFFCURVE",
"344 895 CURVE SMOOTH",
"344 885 OFFCURVE",
"335 872 OFFCURVE",
"307 871 CURVE",
"307 819 LINE"
);
}
);
width = 647;
},
{
components = (
{
name = A;
},
{
name = brevecomb.case;
transform = "{1, 0, 0, 1, 140, 168}";
},
{
name = hookabovecomb.case;
transform = "{1, 0, 0, 1, 240, 339}";
}
);
layerId = "ECACF70C-BE42-4FA5-B3A0-AFDA71FB1D31";
width = 722;
}
);
leftKerningGroup = Aring;
rightKerningGroup = Aring;
unicode = 1EB2;
},
{
glyphname = Abrevetilde;
lastChange = "2016-08-15 14:09:09 +0000";
layers = (
{
layerId = UUID0;
paths = (
{
closed = 1;
nodes = (
"99 0 LINE",
"179 208 LINE",
"467 208 LINE",
"547 0 LINE",
"624 0 LINE",
"359 667 LINE",
"287 667 LINE",
"21 0 LINE"
);
},
{
closed = 1;
nodes = (
"323 582 LINE",
"440 277 LINE",
"206 277 LINE"
);
},
{
closed = 1;
nodes = (
"389 699 OFFCURVE",
"428 738 OFFCURVE",
"428 803 CURVE",
"380 803 LINE",
"380 763 OFFCURVE",
"363 747 OFFCURVE",
"323 747 CURVE SMOOTH",
"283 747 OFFCURVE",
"266 763 OFFCURVE",
"266 803 CURVE",
"218 803 LINE",
"218 738 OFFCURVE",
"257 699 OFFCURVE",
"323 699 CURVE SMOOTH"
);
},
{
closed = 1;
nodes = (
"276 973 OFFCURVE",
"369 757 OFFCURVE",
"463 875 CURVE",
"463 930 LINE",
"369 813 OFFCURVE",
"276 1029 OFFCURVE",
"182 912 CURVE",
"182 855 LINE"
);
}
);
width = 647;
},
{
components = (
{
name = A;
},
{
name = brevecomb.case;
transform = "{1, 0, 0, 1, 140, 168}";
},
{
name = tildecomb.case;
transform = "{1, 0, 0, 1, 104, 336}";
}
);
layerId = "ECACF70C-BE42-4FA5-B3A0-AFDA71FB1D31";
width = 722;
}
);
leftKerningGroup = Aring;
rightKerningGroup = Aring;
unicode = 1EB4;
},
{
glyphname = Acaron;
lastChange = "2016-08-15 14:09:09 +0000";
layers = (
{
layerId = UUID0;
paths = (
{
closed = 1;
nodes = (
"99 0 LINE",
"179 208 LINE",
"467 208 LINE",
"547 0 LINE",
"624 0 LINE",
"359 667 LINE",
"287 667 LINE",
"21 0 LINE"
);
},
{
closed = 1;
nodes = (
"323 582 LINE",
"440 277 LINE",
"206 277 LINE"
);
},
{
closed = 1;
nodes = (
"344 724 LINE",
"424 845 LINE",
"368 845 LINE",
"323 774 LINE",
"278 845 LINE",
"222 845 LINE",
"302 724 LINE"
);
}
);
width = 647;
},
{
components = (
{
name = A;
},
{
name = caroncomb.case;
transform = "{1, 0, 0, 1, 145, 168}";
}
);
layerId = "ECACF70C-BE42-4FA5-B3A0-AFDA71FB1D31";
width = 722;
}
);
leftKerningGroup = Aring;
rightKerningGroup = Aring;
unicode = 01CD;
},
{
glyphname = Acircumflex;
lastChange = "2016-08-15 14:09:19 +0000";
layers = (
{
layerId = UUID0;
paths = (
{
closed = 1;
nodes = (
"99 0 LINE",
"179 208 LINE",
"467 208 LINE",
"547 0 LINE",
"624 0 LINE",
"359 667 LINE",
"287 667 LINE",
"21 0 LINE"
);
},
{
closed = 1;
nodes = (
"323 582 LINE",
"440 277 LINE",
"206 277 LINE"
);
},
{
closed = 1;
nodes = (
"278 724 LINE",
"323 795 LINE",
"368 724 LINE",
"424 724 LINE",
"344 845 LINE",
"302 845 LINE",
"222 724 LINE"
);
}
);
width = 647;
},
{
components = (
{
name = A;
},
{
name = circumflexcomb.case;
transform = "{1, 0, 0, 1, 150, 73}";
}
);
layerId = "ECACF70C-BE42-4FA5-B3A0-AFDA71FB1D31";
width = 722;
}
);
leftKerningGroup = Aring;
rightKerningGroup = Aring;
unicode = 00C2;
},
{
glyphname = Acircumflexacute;
lastChange = "2016-08-09 11:49:12 +0000";
layers = (
{
layerId = UUID0;
paths = (
{
closed = 1;
nodes = (
"99 0 LINE",
"179 208 LINE",
"467 208 LINE",
"547 0 LINE",
"624 0 LINE",
"359 667 LINE",
"287 667 LINE",
"21 0 LINE"
);
},
{
closed = 1;
nodes = (
"323 582 LINE",
"440 277 LINE",
"206 277 LINE"
);
},
{
closed = 1;
nodes = (
"277 707 LINE",
"323 777 LINE",
"368 707 LINE",
"424 707 LINE",
"343 827 LINE",
"302 827 LINE",
"221 707 LINE"
);
},
{
closed = 1;
nodes = (
"432 798 LINE",
"515 913 LINE",
"441 913 LINE",
"384 798 LINE"
);
}
);
width = 647;
},
{
components = (
{
name = A;
}
);
layerId = "ECACF70C-BE42-4FA5-B3A0-AFDA71FB1D31";
paths = (
{
closed = 1;
nodes = (
"325 704 LINE",
"367 748 LINE",
"409 704 LINE",
"511 704 LINE",
"391 826 LINE",
"343 826 LINE",
"223 704 LINE"
);
},
{
closed = 1;
nodes = (
"538 771 LINE",
"631 888 LINE",
"514 888 LINE",
"452 771 LINE"
);
}
);
width = 734;
}
);
leftKerningGroup = Aring;
rightKerningGroup = Aring;
unicode = 1EA4;
},
{
glyphname = Acircumflexdotbelow;
lastChange = "2016-08-15 14:09:19 +0000";
layers = (
{
layerId = UUID0;
paths = (
{
closed = 1;
nodes = (
"99 0 LINE",
"179 208 LINE",
"467 208 LINE",
"547 0 LINE",
"624 0 LINE",
"359 667 LINE",
"287 667 LINE",
"21 0 LINE"
);
},
{
closed = 1;
nodes = (
"362 -128 LINE",
"362 -49 LINE",
"283 -49 LINE",
"283 -128 LINE"
);
},
{
closed = 1;
nodes = (
"323 582 LINE",
"440 277 LINE",
"206 277 LINE"
);
},
{
closed = 1;
nodes = (
"277 707 LINE",
"323 777 LINE",
"368 707 LINE",
"424 707 LINE",
"343 827 LINE",
"302 827 LINE",
"221 707 LINE"
);
}
);
width = 647;
},
{
components = (
{
name = A;
},
{
name = dotbelowcomb.case;
transform = "{1, 0, 0, 1, 251, 0}";
},
{
name = circumflexcomb.case;
transform = "{1, 0, 0, 1, 150, 73}";
}
);
layerId = "ECACF70C-BE42-4FA5-B3A0-AFDA71FB1D31";
width = 722;
}
);
leftKerningGroup = Aring;
rightKerningGroup = Aring;
unicode = 1EAC;
},
{
glyphname = Acircumflexgrave;
lastChange = "2016-08-09 11:49:20 +0000";
layers = (
{
layerId = UUID0;
paths = (
{
closed = 1;
nodes = (
"99 0 LINE",
"179 208 LINE",
"467 208 LINE",
"547 0 LINE",
"624 0 LINE",
"359 667 LINE",
"287 667 LINE",
"21 0 LINE"
);
},
{
closed = 1;
nodes = (
"323 582 LINE",
"440 277 LINE",
"206 277 LINE"
);
},
{
closed = 1;
nodes = (
"261 798 LINE",
"204 913 LINE",
"130 913 LINE",
"213 798 LINE"
);
},
{
closed = 1;
nodes = (
"277 707 LINE",
"322 777 LINE",
"368 707 LINE",
"424 707 LINE",
"343 827 LINE",
"302 827 LINE",
"221 707 LINE"
);
}
);
width = 647;
},
{
components = (
{
name = A;
}
);
layerId = "ECACF70C-BE42-4FA5-B3A0-AFDA71FB1D31";
paths = (
{
closed = 1;
nodes = (
"282 770 LINE",
"220 887 LINE",
"103 887 LINE",
"196 770 LINE"
);
},
{
closed = 1;
nodes = (
"325 704 LINE",
"367 748 LINE",
"409 704 LINE",
"511 704 LINE",
"391 826 LINE",
"343 826 LINE",
"223 704 LINE"
);
}
);
width = 734;
}
);
leftKerningGroup = Aring;
rightKerningGroup = Aring;
unicode = 1EA6;
},
{
glyphname = Acircumflexhookabove;
lastChange = "2016-08-05 09:29:49 +0000";
layers = (
{
layerId = UUID0;
paths = (
{
closed = 1;
nodes = (
"99 0 LINE",
"179 208 LINE",
"467 208 LINE",
"547 0 LINE",
"624 0 LINE",
"359 667 LINE",
"287 667 LINE",
"21 0 LINE"
);
},
{
closed = 1;
nodes = (
"323 582 LINE",
"440 277 LINE",
"206 277 LINE"
);
},
{
closed = 1;
nodes = (
"277 707 LINE",
"323 777 LINE",
"368 707 LINE",
"424 707 LINE",
"343 827 LINE",
"302 827 LINE",
"221 707 LINE"
);
},
{
closed = 1;
nodes = (
"433 786 LINE",
"433 810 LINE",
"469 816 OFFCURVE",
"486 838 OFFCURVE",
"486 864 CURVE SMOOTH",
"486 917 OFFCURVE",
"436 932 OFFCURVE",
"394 932 CURVE SMOOTH",
"383 932 OFFCURVE",
"372 930 OFFCURVE",
"363 929 CURVE",
"363 885 LINE",
"371 887 OFFCURVE",
"380 888 OFFCURVE",
"390 888 CURVE SMOOTH",
"419 888 OFFCURVE",
"437 878 OFFCURVE",
"437 861 CURVE SMOOTH",
"437 852 OFFCURVE",
"428 839 OFFCURVE",
"400 838 CURVE",
"400 786 LINE"
);
}
);
width = 647;
},
{
layerId = "ECACF70C-BE42-4FA5-B3A0-AFDA71FB1D31";
paths = (
{
closed = 1;
nodes = (
"206 0 LINE",
"258 160 LINE",
"476 160 LINE",
"528 0 LINE",
"713 0 LINE",
"448 667 LINE",
"286 667 LINE",
"21 0 LINE"
);
},
{
closed = 1;
nodes = (
"367 494 LINE",
"434 287 LINE",
"299 287 LINE"
);
},
{
closed = 1;
nodes = (
"325 704 LINE",
"367 748 LINE",
"409 704 LINE",
"511 704 LINE",
"391 826 LINE",
"343 826 LINE",
"223 704 LINE"
);
},
{
closed = 1;
nodes = (
"515 771 LINE",
"515 794 LINE",
"515 794 OFFCURVE",
"564 801 OFFCURVE",
"564 849 CURVE SMOOTH",
"564 897 OFFCURVE",
"522 921 OFFCURVE",
"472 921 CURVE SMOOTH",
"457 921 OFFCURVE",
"431 918 OFFCURVE",
"422 916 CURVE",
"422 863 LINE",
"435 866 OFFCURVE",
"445 867 OFFCURVE",
"453 867 CURVE SMOOTH",
"467 867 OFFCURVE",
"483 863 OFFCURVE",
"483 846 CURVE SMOOTH",
"483 833 OFFCURVE",
"468 830 OFFCURVE",
"457 830 CURVE",
"457 771 LINE"
);
}
);
width = 734;
}
);
leftKerningGroup = Aring;
rightKerningGroup = Aring;
unicode = 1EA8;
},
{
glyphname = Acircumflextilde;
lastChange = "2016-08-05 09:29:49 +0000";
layers = (
{
layerId = UUID0;
paths = (
{
closed = 1;
nodes = (
"99 0 LINE",
"179 208 LINE",
"467 208 LINE",
"547 0 LINE",
"624 0 LINE",
"359 667 LINE",
"287 667 LINE",
"21 0 LINE"
);
},
{
closed = 1;
nodes = (
"323 582 LINE",
"440 277 LINE",
"206 277 LINE"
);
},
{
closed = 1;
nodes = (
"276 701 LINE",
"322 771 LINE",
"367 701 LINE",
"423 701 LINE",
"342 821 LINE",
"301 821 LINE",
"220 701 LINE"
);
},
{
closed = 1;
nodes = (
"278 970 OFFCURVE",
"371 754 OFFCURVE",
"466 872 CURVE",
"466 927 LINE",
"371 810 OFFCURVE",
"278 1026 OFFCURVE",
"184 909 CURVE",
"184 852 LINE"
);
}
);
width = 647;
},
{
layerId = "ECACF70C-BE42-4FA5-B3A0-AFDA71FB1D31";
paths = (
{
closed = 1;
nodes = (
"206 0 LINE",
"258 160 LINE",
"476 160 LINE",
"528 0 LINE",
"713 0 LINE",
"448 667 LINE",
"286 667 LINE",
"21 0 LINE"
);
},
{
closed = 1;
nodes = (
"367 494 LINE",
"434 287 LINE",
"299 287 LINE"
);
},
{
closed = 1;
nodes = (
"325 697 LINE",
"367 741 LINE",
"409 697 LINE",
"511 697 LINE",
"391 819 LINE",
"343 819 LINE",
"223 697 LINE"
);
},
{
closed = 1;
nodes = (
"317 955 OFFCURVE",
"418 736 OFFCURVE",
"519 855 CURVE",
"519 940 LINE",
"418 821 OFFCURVE",
"317 1040 OFFCURVE",
"215 921 CURVE",
"215 836 LINE"
);
}
);
width = 734;
}
);
leftKerningGroup = Aring;
rightKerningGroup = Aring;
unicode = 1EAA;
},
{
glyphname = Adieresis;
lastChange = "2016-08-15 14:09:09 +0000";
layers = (
{
layerId = UUID0;
paths = (
{
closed = 1;
nodes = (
"99 0 LINE",
"179 208 LINE",
"467 208 LINE",
"547 0 LINE",
"624 0 LINE",
"359 667 LINE",
"287 667 LINE",
"21 0 LINE"
);
},
{
closed = 1;
nodes = (
"323 582 LINE",
"440 277 LINE",
"206 277 LINE"
);
},
{
closed = 1;
nodes = (
"289 724 LINE",
"289 804 LINE",
"209 804 LINE",
"209 724 LINE"
);
},
{
closed = 1;
nodes = (
"437 724 LINE",
"437 804 LINE",
"357 804 LINE",
"357 724 LINE"
);
}
);
width = 647;
},
{
components = (
{
name = A;
},
{
name = dieresiscomb.case;
transform = "{1, 0, 0, 1, 147, 168}";
}
);
layerId = "ECACF70C-BE42-4FA5-B3A0-AFDA71FB1D31";
width = 722;
}
);
leftKerningGroup = Aring;
rightKerningGroup = Aring;
unicode = 00C4;
},
{
glyphname = Adotaccent;
lastChange = "2016-08-15 14:09:09 +0000";
layers = (
{
layerId = UUID0;
paths = (
{
closed = 1;
nodes = (
"99 0 LINE",
"179 208 LINE",
"467 208 LINE",
"547 0 LINE",
"624 0 LINE",
"359 667 LINE",
"287 667 LINE",
"21 0 LINE"
);
},
{
closed = 1;
nodes = (
"323 582 LINE",
"440 277 LINE",
"206 277 LINE"
);
},
{
closed = 1;
nodes = (
"363 724 LINE",
"363 804 LINE",
"283 804 LINE",
"283 724 LINE"
);
}
);
width = 647;
},
{
components = (
{
name = A;
},
{
name = dotaccentcomb.case;
transform = "{1, 0, 0, 1, 187, 168}";
}
);
layerId = "ECACF70C-BE42-4FA5-B3A0-AFDA71FB1D31";
width = 722;
}
);
leftKerningGroup = Aring;
rightKerningGroup = Aring;
unicode = 0226;
},
{
glyphname = Adotbelow;
lastChange = "2016-08-15 14:09:09 +0000";
layers = (
{
layerId = UUID0;
paths = (
{
closed = 1;
nodes = (
"99 0 LINE",
"179 208 LINE",
"467 208 LINE",
"547 0 LINE",
"624 0 LINE",
"359 667 LINE",
"287 667 LINE",
"21 0 LINE"
);
},
{
closed = 1;
nodes = (
"362 -129 LINE",
"362 -50 LINE",
"283 -50 LINE",
"283 -129 LINE"
);
},
{
closed = 1;
nodes = (
"323 582 LINE",
"440 277 LINE",
"206 277 LINE"
);
}
);
width = 647;
},
{
components = (
{
name = A;
},
{
name = dotbelowcomb.case;
transform = "{1, 0, 0, 1, 251, 0}";
}
);
layerId = "ECACF70C-BE42-4FA5-B3A0-AFDA71FB1D31";
width = 722;
}
);
leftKerningGroup = Aring;
rightKerningGroup = Aring;
unicode = 1EA0;
},
{
glyphname = Agrave;
lastChange = "2016-08-15 14:09:19 +0000";
layers = (
{
layerId = UUID0;
paths = (
{
closed = 1;
nodes = (
"99 0 LINE",
"179 208 LINE",
"467 208 LINE",
"547 0 LINE",
"624 0 LINE",
"359 667 LINE",
"287 667 LINE",
"21 0 LINE"
);
},
{
closed = 1;
nodes = (
"323 582 LINE",
"440 277 LINE",
"206 277 LINE"
);
},
{
closed = 1;
nodes = (
"345 724 LINE",
"288 839 LINE",
"214 839 LINE",
"297 724 LINE"
);
}
);
width = 647;
},
{
components = (
{
name = A;
},
{
name = gravecomb.case;
transform = "{1, 0, 0, 1, 226, 168}";
}
);
layerId = "ECACF70C-BE42-4FA5-B3A0-AFDA71FB1D31";
width = 722;
}
);
leftKerningGroup = Aring;
rightKerningGroup = Aring;
unicode = 00C0;
},
{
glyphname = Ahookabove;
lastChange = "2016-08-15 14:09:19 +0000";
layers = (
{
layerId = UUID0;
paths = (
{
closed = 1;
nodes = (
"99 0 LINE",
"179 208 LINE",
"467 208 LINE",
"547 0 LINE",
"624 0 LINE",
"359 667 LINE",
"287 667 LINE",
"21 0 LINE"
);
},
{
closed = 1;
nodes = (
"323 582 LINE",
"440 277 LINE",
"206 277 LINE"
);
},
{
closed = 1;
nodes = (
"341 724 LINE",
"341 748 LINE",
"377 754 OFFCURVE",
"394 776 OFFCURVE",
"394 802 CURVE SMOOTH",
"394 855 OFFCURVE",
"344 870 OFFCURVE",
"302 870 CURVE SMOOTH",
"291 870 OFFCURVE",
"280 868 OFFCURVE",
"271 867 CURVE",
"271 823 LINE",
"279 825 OFFCURVE",
"288 826 OFFCURVE",
"298 826 CURVE SMOOTH",
"327 826 OFFCURVE",
"345 816 OFFCURVE",
"345 799 CURVE SMOOTH",
"345 790 OFFCURVE",
"336 777 OFFCURVE",
"308 776 CURVE",
"308 724 LINE"
);
}
);
width = 647;
},
{
components = (
{
name = A;
},
{
name = hookabovecomb.case;
transform = "{1, 0, 0, 1, 240, 171}";
}
);
layerId = "ECACF70C-BE42-4FA5-B3A0-AFDA71FB1D31";
width = 722;
}
);
leftKerningGroup = Aring;
rightKerningGroup = Aring;
unicode = 1EA2;
},
{
glyphname = Amacron;
lastChange = "2016-08-15 14:09:19 +0000";
layers = (
{
layerId = UUID0;
paths = (
{
closed = 1;
nodes = (
"99 0 LINE",
"179 208 LINE",
"467 208 LINE",
"547 0 LINE",
"624 0 LINE",
"359 667 LINE",
"287 667 LINE",
"21 0 LINE"
);
},
{
closed = 1;
nodes = (
"323 582 LINE",
"440 277 LINE",
"206 277 LINE"
);
},
{
closed = 1;
nodes = (
"440 736 LINE",
"440 789 LINE",
"206 789 LINE",
"206 736 LINE"
);
}
);
width = 647;
},
{
components = (
{
name = A;
},
{
name = macroncomb.case;
transform = "{1, 0, 0, 1, 158, 168}";
}
);
layerId = "ECACF70C-BE42-4FA5-B3A0-AFDA71FB1D31";
width = 722;
}
);
leftKerningGroup = Aring;
rightKerningGroup = Aring;
unicode = 0100;
},
{
glyphname = Aogonek;
lastChange = "2016-08-15 14:09:19 +0000";
layers = (
{
layerId = UUID0;
paths = (
{
closed = 1;
nodes = (
"600 -173 OFFCURVE",
"636 -139 OFFCURVE",
"646 -99 CURVE",
"615 -99 LINE",
"605 -112 OFFCURVE",
"590 -129 OFFCURVE",
"571 -129 CURVE SMOOTH",
"557 -129 OFFCURVE",
"545 -121 OFFCURVE",
"545 -94 CURVE SMOOTH",
"545 -48 OFFCURVE",
"624 0 OFFCURVE",
"624 0 CURVE",
"359 667 LINE",
"287 667 LINE",
"21 0 LINE",
"99 0 LINE",
"179 208 LINE",
"467 208 LINE",
"547 0 LINE",
"547 0 OFFCURVE",
"477 -48 OFFCURVE",
"477 -109 CURVE SMOOTH",
"477 -168 OFFCURVE",
"517 -173 OFFCURVE",
"543 -173 CURVE SMOOTH"
);
},
{
closed = 1;
nodes = (
"323 582 LINE",
"440 277 LINE",
"206 277 LINE"
);
}
);
width = 647;
},
{
components = (
{
name = A;
},
{
name = ogonekcomb.case;
transform = "{1, 0, 0, 1, 355, 0}";
}
);
layerId = "ECACF70C-BE42-4FA5-B3A0-AFDA71FB1D31";
width = 722;
}
);
leftKerningGroup = A;
unicode = 0104;
},
{
glyphname = Aring;
lastChange = "2016-08-15 14:09:19 +0000";
layers = (
{
layerId = UUID0;
paths = (
{
closed = 1;
nodes = (
"99 0 LINE",
"179 208 LINE",
"467 208 LINE",
"547 0 LINE",
"624 0 LINE",
"359 667 LINE",
"287 667 LINE",
"21 0 LINE"
);
},
{
closed = 1;
nodes = (
"323 582 LINE",
"440 277 LINE",
"206 277 LINE"
);
},
{
closed = 1;
nodes = (
"375 695 OFFCURVE",
"404 724 OFFCURVE",
"404 777 CURVE SMOOTH",
"404 830 OFFCURVE",
"375 859 OFFCURVE",
"323 859 CURVE SMOOTH",
"271 859 OFFCURVE",
"242 830 OFFCURVE",
"242 777 CURVE SMOOTH",
"242 724 OFFCURVE",
"271 695 OFFCURVE",
"323 695 CURVE SMOOTH"
);
},
{
closed = 1;
nodes = (
"290 729 OFFCURVE",
"278 742 OFFCURVE",
"278 777 CURVE SMOOTH",
"278 812 OFFCURVE",
"290 826 OFFCURVE",
"323 826 CURVE SMOOTH",
"355 826 OFFCURVE",
"368 812 OFFCURVE",
"368 777 CURVE SMOOTH",
"368 742 OFFCURVE",
"355 729 OFFCURVE",
"323 729 CURVE SMOOTH"
);
}
);
width = 647;
},
{
components = (
{
name = A;
},
{
name = ringcomb.case;
transform = "{1, 0, 0, 1, 158, 168}";
}
);
layerId = "ECACF70C-BE42-4FA5-B3A0-AFDA71FB1D31";
width = 722;
}
);
leftKerningGroup = Aring;
rightKerningGroup = Aring;
unicode = 00C5;
},
{
glyphname = Atilde;
lastChange = "2016-08-15 14:09:19 +0000";
layers = (
{
layerId = UUID0;
paths = (
{
closed = 1;
nodes = (
"99 0 LINE",
"179 208 LINE",
"467 208 LINE",
"547 0 LINE",
"624 0 LINE",
"359 667 LINE",
"287 667 LINE",
"21 0 LINE"
);
},
{
closed = 1;
nodes = (
"323 582 LINE",
"440 277 LINE",
"206 277 LINE"
);
},
{
closed = 1;
nodes = (
"276 843 OFFCURVE",
"369 627 OFFCURVE",
"463 745 CURVE",
"463 800 LINE",
"369 683 OFFCURVE",
"276 899 OFFCURVE",
"182 782 CURVE",
"182 725 LINE"
);
}
);
width = 647;
},
{
components = (
{
name = A;
},
{
name = tildecomb.case;
transform = "{1, 0, 0, 1, 104, 168}";
}
);
layerId = "ECACF70C-BE42-4FA5-B3A0-AFDA71FB1D31";
width = 722;
}
);
leftKerningGroup = Aring;
rightKerningGroup = Aring;
unicode = 00C3;
},
{
glyphname = AE;
lastChange = "2016-08-05 09:32:00 +0000";
layers = (
{
layerId = UUID0;
paths = (
{
closed = 1;
nodes = (
"108 0 LINE",
"231 209 LINE",
"478 209 LINE",
"478 0 LINE",
"887 0 LINE",
"887 69 LINE",
"550 69 LINE",
"550 298 LINE",
"846 298 LINE",
"846 368 LINE",
"550 368 LINE",
"550 598 LINE",
"887 598 LINE",
"887 667 LINE",
"421 667 LINE",
"25 0 LINE"
);
},
{
closed = 1;
nodes = (
"456 595 LINE",
"478 595 LINE",
"478 281 LINE",
"273 281 LINE"
);
}
);
width = 947;
},
{
layerId = "ECACF70C-BE42-4FA5-B3A0-AFDA71FB1D31";
paths = (
{
closed = 1;
nodes = (
"238 0 LINE",
"320 120 LINE",
"549 120 LINE",
"549 0 LINE",
"1014 0 LINE",
"1014 141 LINE",
"721 141 LINE",
"721 263 LINE",
"975 263 LINE",
"975 404 LINE",
"721 404 LINE",
"721 527 LINE",
"1014 527 LINE",
"1014 667 LINE",
"494 667 LINE",
"25 0 LINE"
);
},
{
closed = 1;
nodes = (
"549 455 LINE",
"549 455 LINE",
"549 246 LINE",
"406 246 LINE"
);
}
);
width = 1083;
}
);
unicode = 00C6;
},
{
glyphname = AEacute;
lastChange = "2016-08-05 09:32:17 +0000";
layers = (
{
layerId = UUID0;
paths = (
{
closed = 1;
nodes = (
"109 0 LINE",
"231 209 LINE",
"477 209 LINE",
"477 0 LINE",
"886 0 LINE",
"886 70 LINE",
"549 70 LINE",
"549 298 LINE",
"845 298 LINE",
"845 368 LINE",
"549 368 LINE",
"549 597 LINE",
"886 597 LINE",
"886 667 LINE",
"421 667 LINE",
"25 0 LINE"
);
},
{
closed = 1;
nodes = (
"456 595 LINE",
"477 595 LINE",
"477 281 LINE",
"272 281 LINE"
);
},
{
closed = 1;
nodes = (
"539 724 LINE",
"622 839 LINE",
"548 839 LINE",
"491 724 LINE"
);
}
);
width = 947;
},
{
layerId = "ECACF70C-BE42-4FA5-B3A0-AFDA71FB1D31";
paths = (
{
closed = 1;
nodes = (
"238 0 LINE",
"320 120 LINE",
"549 120 LINE",
"549 0 LINE",
"1014 0 LINE",
"1014 141 LINE",
"721 141 LINE",
"721 263 LINE",
"975 263 LINE",
"975 404 LINE",
"721 404 LINE",
"721 527 LINE",
"1014 527 LINE",
"1014 667 LINE",
"494 667 LINE",
"25 0 LINE"
);
},
{
closed = 1;
nodes = (
"549 455 LINE",
"549 455 LINE",
"549 246 LINE",
"406 246 LINE"
);
},
{
closed = 1;
nodes = (
"659 724 LINE",
"752 841 LINE",
"635 841 LINE",
"573 724 LINE"
);
}
);
width = 1083;
}
);
unicode = 01FC;
},
{
glyphname = B;
lastChange = "2016-08-15 13:46:18 +0000";
layers = (
{
background = {
paths = (
{
closed = 1;
nodes = (
"326 0 LINE SMOOTH",
"476 0 OFFCURVE",
"568 56 OFFCURVE",
"568 189 CURVE SMOOTH",
"568 322 OFFCURVE",
"457 355 OFFCURVE",
"457 355 CURVE SMOOTH",
"457 355 OFFCURVE",
"528 391 OFFCURVE",
"528 488 CURVE SMOOTH",
"528 585 OFFCURVE",
"479 667 OFFCURVE",
"306 667 CURVE SMOOTH",
"85 667 LINE",
"85 0 LINE"
);
},
{
closed = 1;
nodes = (
"157 310 LINE",
"329 310 LINE SMOOTH",
"407 310 OFFCURVE",
"496 300 OFFCURVE",
"496 193 CURVE SMOOTH",
"496 86 OFFCURVE",
"418 67 OFFCURVE",
"332 67 CURVE SMOOTH",
"157 67 LINE"
);
},
{
closed = 1;
nodes = (
"157 598 LINE",
"313 598 LINE SMOOTH",
"402 598 OFFCURVE",
"456 574 OFFCURVE",
"456 483 CURVE SMOOTH",
"456 389 OFFCURVE",
"387 378 OFFCURVE",
"322 378 CURVE SMOOTH",
"157 378 LINE"
);
}
);
};
layerId = UUID0;
paths = (
{
closed = 1;
nodes = (
"326 0 LINE SMOOTH",
"476 0 OFFCURVE",
"568 56 OFFCURVE",
"568 189 CURVE SMOOTH",
"568 296 OFFCURVE",
"492 344 OFFCURVE",
"440 363 CURVE",
"448 350 LINE",
"481 382 OFFCURVE",
"528 402 OFFCURVE",
"528 488 CURVE SMOOTH",
"528 585 OFFCURVE",
"479 667 OFFCURVE",
"306 667 CURVE SMOOTH",
"85 667 LINE",
"85 0 LINE"
);
},
{
closed = 1;
nodes = (
"157 310 LINE",
"329 310 LINE SMOOTH",
"407 310 OFFCURVE",
"496 300 OFFCURVE",
"496 193 CURVE SMOOTH",
"496 86 OFFCURVE",
"418 67 OFFCURVE",
"332 67 CURVE SMOOTH",
"157 67 LINE"
);
},
{
closed = 1;
nodes = (
"157 598 LINE",
"313 598 LINE SMOOTH",
"402 598 OFFCURVE",
"456 574 OFFCURVE",
"456 483 CURVE SMOOTH",
"456 389 OFFCURVE",
"387 378 OFFCURVE",
"322 378 CURVE SMOOTH",
"157 378 LINE"
);
}
);
width = 628;
},
{
background = {
paths = (
{
closed = 1;
nodes = (
"351 0 LINE SMOOTH",
"461 0 OFFCURVE",
"628 21 OFFCURVE",
"628 184 CURVE SMOOTH",
"628 271 OFFCURVE",
"586 321 OFFCURVE",
"505 348 CURVE SMOOTH",
"502 349 OFFCURVE",
"498 350 OFFCURVE",
"494 351 CURVE",
"526 362 OFFCURVE",
"595 388 OFFCURVE",
"595 480 CURVE SMOOTH",
"595 648 OFFCURVE",
"434 667 OFFCURVE",
"331 667 CURVE SMOOTH",
"65 667 LINE",
"65 0 LINE"
);
},
{
closed = 1;
nodes = (
"277 285 LINE",
"372 285 LINE SMOOTH",
"407 285 OFFCURVE",
"461 269 OFFCURVE",
"461 214 CURVE SMOOTH",
"461 161 OFFCURVE",
"418 140 OFFCURVE",
"375 141 CURVE SMOOTH",
"277 141 LINE"
);
},
{
closed = 1;
nodes = (
"277 527 LINE",
"355 527 LINE SMOOTH",
"386 527 OFFCURVE",
"428 512 OFFCURVE",
"428 462 CURVE SMOOTH",
"428 425 OFFCURVE",
"393 406 OFFCURVE",
"365 406 CURVE SMOOTH",
"277 406 LINE"
);
}
);
};
layerId = "ECACF70C-BE42-4FA5-B3A0-AFDA71FB1D31";
paths = (
{
closed = 1;
nodes = (
"404 0 LINE",
"534 0 OFFCURVE",
"654 64 OFFCURVE",
"654 207 CURVE",
"654 307 OFFCURVE",
"577 372 OFFCURVE",
"444 372 CURVE",
"467 327 LINE",
"529 342 OFFCURVE",
"622 388 OFFCURVE",
"622 480 CURVE",
"622 628 OFFCURVE",
"507 667 OFFCURVE",
"374 667 CURVE",
"65 667 LINE",
"65 0 LINE"
);
},
{
closed = 1;
nodes = (
"266 276 LINE",
"382 276 LINE",
"419 276 OFFCURVE",
"447 256 OFFCURVE",
"447 214 CURVE",
"447 171 OFFCURVE",
"418 149 OFFCURVE",
"385 150 CURVE",
"266 150 LINE"
);
},
{
closed = 1;
nodes = (
"265 517 LINE",
"370 517 LINE",
"393 517 OFFCURVE",
"418 502 OFFCURVE",
"418 463 CURVE",
"418 437 OFFCURVE",
"399 416 OFFCURVE",
"380 416 CURVE",
"265 416 LINE"
);
}
);
width = 689;
}
);
leftKerningGroup = B;
leftMetricsKey = H;
rightMetricsKey = O;
unicode = 0042;
},
{
glyphname = C;
lastChange = "2016-08-16 14:17:40 +0000";
layers = (
{
anchors = (
{
name = bottom;
position = "{309, 0}";
},
{
name = top;
position = "{309, 667}";
}
);
layerId = UUID0;
paths = (
{
closed = 1;
nodes = (
"429 -8 OFFCURVE",
"498 5 OFFCURVE",
"562 30 CURVE",
"562 99 LINE",
"500 73 OFFCURVE",
"435 60 OFFCURVE",
"367 60 CURVE SMOOTH",
"198 60 OFFCURVE",
"122 144 OFFCURVE",
"122 334 CURVE SMOOTH",
"122 523 OFFCURVE",
"198 608 OFFCURVE",
"367 608 CURVE SMOOTH",
"435 608 OFFCURVE",
"500 594 OFFCURVE",
"562 568 CURVE",
"562 637 LINE",
"498 663 OFFCURVE",
"430 676 OFFCURVE",
"359 676 CURVE SMOOTH",
"154 676 OFFCURVE",
"50 561 OFFCURVE",
"50 334 CURVE SMOOTH",
"50 107 OFFCURVE",
"154 -8 OFFCURVE",
"359 -8 CURVE SMOOTH"
);
}
);
width = 617;
},
{
anchors = (
{
name = bottom;
position = "{317, 0}";
},
{
name = top;
position = "{355, 667}";
}
);
layerId = "ECACF70C-BE42-4FA5-B3A0-AFDA71FB1D31";
paths = (
{
closed = 1;
nodes = (
"438 -25 OFFCURVE",
"531 -6 OFFCURVE",
"583 22 CURVE",
"583 193 LINE",
"510 144 OFFCURVE",
"446 125 OFFCURVE",
"405 125 CURVE",
"299 125 OFFCURVE",
"237 168 OFFCURVE",
"237 332 CURVE",
"237 497 OFFCURVE",
"299 542 OFFCURVE",
"395 542 CURVE",
"446 542 OFFCURVE",
"510 523 OFFCURVE",
"583 474 CURVE",
"583 645 LINE",
"513 673 OFFCURVE",
"438 692 OFFCURVE",
"367 692 CURVE",
"137 692 OFFCURVE",
"30 572 OFFCURVE",
"30 333 CURVE",
"30 82 OFFCURVE",
"149 -25 OFFCURVE",
"367 -25 CURVE"
);
}
);
width = 633;
}
);
leftKerningGroup = C;
leftMetricsKey = o;
rightKerningGroup = C;
unicode = 0043;
},
{
glyphname = Cacute;
lastChange = "2016-08-15 16:51:50 +0000";
layers = (
{
layerId = UUID0;
paths = (
{
closed = 1;
nodes = (
"441 -8 OFFCURVE",
"509 5 OFFCURVE",
"573 30 CURVE",
"573 99 LINE",
"511 73 OFFCURVE",
"446 60 OFFCURVE",
"378 60 CURVE SMOOTH",
"209 60 OFFCURVE",
"133 144 OFFCURVE",
"133 334 CURVE SMOOTH",
"133 523 OFFCURVE",
"209 608 OFFCURVE",
"378 608 CURVE SMOOTH",
"446 608 OFFCURVE",
"512 594 OFFCURVE",
"573 568 CURVE",
"573 637 LINE",
"509 663 OFFCURVE",
"441 676 OFFCURVE",
"370 676 CURVE SMOOTH",
"165 676 OFFCURVE",
"61 561 OFFCURVE",
"61 334 CURVE SMOOTH",
"61 107 OFFCURVE",
"165 -8 OFFCURVE",
"370 -8 CURVE SMOOTH"
);
},
{
closed = 1;
nodes = (
"380 725 LINE",
"463 840 LINE",
"389 840 LINE",
"332 725 LINE"
);
}
);
width = 628;
},
{
components = (
{
name = C;
},
{
name = acutecomb.case;
transform = "{1, 0, 0, 1, 246, 168}";
}
);
layerId = "ECACF70C-BE42-4FA5-B3A0-AFDA71FB1D31";
width = 633;
}
);
leftKerningGroup = C;
rightKerningGroup = C;
unicode = 0106;
},
{
glyphname = Ccaron;
lastChange = "2016-08-15 16:51:50 +0000";
layers = (
{
layerId = UUID0;
paths = (
{
closed = 1;
nodes = (
"441 -6 OFFCURVE",
"509 7 OFFCURVE",
"573 33 CURVE",
"573 101 LINE",
"511 75 OFFCURVE",
"446 62 OFFCURVE",
"378 62 CURVE SMOOTH",
"209 62 OFFCURVE",
"133 147 OFFCURVE",
"133 336 CURVE SMOOTH",
"133 525 OFFCURVE",
"209 610 OFFCURVE",
"378 610 CURVE SMOOTH",
"446 610 OFFCURVE",
"512 596 OFFCURVE",
"573 571 CURVE",
"573 639 LINE",
"509 665 OFFCURVE",
"441 678 OFFCURVE",
"370 678 CURVE SMOOTH",
"165 678 OFFCURVE",
"61 563 OFFCURVE",
"61 336 CURVE SMOOTH",
"61 109 OFFCURVE",
"165 -6 OFFCURVE",
"370 -6 CURVE SMOOTH"
);
},
{
closed = 1;
nodes = (
"382 724 LINE",
"463 844 LINE",
"407 844 LINE",
"362 773 LINE",
"316 844 LINE",
"260 844 LINE",
"341 724 LINE"
);
}
);
width = 628;
},
{
components = (
{
name = C;
},
{
name = caroncomb.case;
transform = "{1, 0, 0, 1, 139, 168}";
}
);
layerId = "ECACF70C-BE42-4FA5-B3A0-AFDA71FB1D31";
width = 633;
}
);
leftKerningGroup = Ccaron;
rightKerningGroup = Ccaron;
unicode = 010C;
},
{
glyphname = Ccedilla;
lastChange = "2016-08-15 16:51:42 +0000";
layers = (
{
layerId = UUID0;
paths = (
{
closed = 1;
nodes = (
"338 -119 LINE",
"399 -6 LINE",
"459 -3 OFFCURVE",
"518 10 OFFCURVE",
"573 32 CURVE",
"573 101 LINE",
"511 75 OFFCURVE",
"446 62 OFFCURVE",
"378 62 CURVE SMOOTH",
"209 62 OFFCURVE",
"133 146 OFFCURVE",
"133 336 CURVE SMOOTH",
"133 525 OFFCURVE",
"209 609 OFFCURVE",
"378 609 CURVE SMOOTH",
"446 609 OFFCURVE",
"512 596 OFFCURVE",
"573 570 CURVE",
"573 639 LINE",
"509 664 OFFCURVE",
"441 677 OFFCURVE",
"370 677 CURVE SMOOTH",
"165 677 OFFCURVE",
"61 562 OFFCURVE",
"61 335 CURVE SMOOTH",
"61 119 OFFCURVE",
"156 5 OFFCURVE",
"342 -6 CURVE",
"262 -119 LINE"
);
}
);
width = 628;
},
{
components = (
{
name = C;
},
{
name = cedillacomb.case;
transform = "{1, 0, 0, 1, 175, 0}";
}
);
layerId = "ECACF70C-BE42-4FA5-B3A0-AFDA71FB1D31";
width = 633;
}
);
leftKerningGroup = Ccaron;
rightKerningGroup = Ccaron;
unicode = 00C7;
},
{
glyphname = Ccircumflex;
lastChange = "2016-08-15 16:51:50 +0000";
layers = (
{
layerId = UUID0;
paths = (
{
closed = 1;
nodes = (
"441 -6 OFFCURVE",
"509 7 OFFCURVE",
"573 33 CURVE",
"573 101 LINE",
"511 75 OFFCURVE",
"446 62 OFFCURVE",
"378 62 CURVE SMOOTH",
"209 62 OFFCURVE",
"133 147 OFFCURVE",
"133 336 CURVE SMOOTH",
"133 525 OFFCURVE",
"209 610 OFFCURVE",
"378 610 CURVE SMOOTH",
"446 610 OFFCURVE",
"512 596 OFFCURVE",
"573 571 CURVE",
"573 639 LINE",
"509 665 OFFCURVE",
"441 678 OFFCURVE",
"370 678 CURVE SMOOTH",
"165 678 OFFCURVE",
"61 563 OFFCURVE",
"61 336 CURVE SMOOTH",
"61 109 OFFCURVE",
"165 -6 OFFCURVE",
"370 -6 CURVE SMOOTH"
);
},
{
closed = 1;
nodes = (
"316 724 LINE",
"362 794 LINE",
"407 724 LINE",
"463 724 LINE",
"382 844 LINE",
"341 844 LINE",
"260 724 LINE"
);
}
);
width = 628;
},
{
components = (
{
name = C;
},
{
name = circumflexcomb.case;
transform = "{1, 0, 0, 1, 144, 73}";
}
);
layerId = "ECACF70C-BE42-4FA5-B3A0-AFDA71FB1D31";
width = 633;
}
);
leftKerningGroup = Ccaron;
rightKerningGroup = Ccaron;
unicode = 0108;
},
{
glyphname = Cdotaccent;
lastChange = "2016-08-15 16:51:50 +0000";
layers = (
{
layerId = UUID0;
paths = (
{
closed = 1;
nodes = (
"441 -6 OFFCURVE",
"509 7 OFFCURVE",
"573 33 CURVE",
"573 101 LINE",
"511 75 OFFCURVE",
"446 62 OFFCURVE",
"378 62 CURVE SMOOTH",
"209 62 OFFCURVE",
"133 147 OFFCURVE",
"133 336 CURVE SMOOTH",
"133 525 OFFCURVE",
"209 610 OFFCURVE",
"378 610 CURVE SMOOTH",
"446 610 OFFCURVE",
"512 596 OFFCURVE",
"573 571 CURVE",
"573 639 LINE",
"509 665 OFFCURVE",
"441 678 OFFCURVE",
"370 678 CURVE SMOOTH",
"165 678 OFFCURVE",
"61 563 OFFCURVE",
"61 336 CURVE SMOOTH",
"61 109 OFFCURVE",
"165 -6 OFFCURVE",
"370 -6 CURVE SMOOTH"
);
},
{
closed = 1;
nodes = (
"397 724 LINE",
"397 804 LINE",
"317 804 LINE",
"317 724 LINE"
);
}
);
width = 628;
},
{
components = (
{
name = C;
},
{
name = dotaccentcomb.case;
transform = "{1, 0, 0, 1, 181, 168}";
}
);
layerId = "ECACF70C-BE42-4FA5-B3A0-AFDA71FB1D31";
width = 633;
}
);
leftKerningGroup = Ccaron;
rightKerningGroup = Ccaron;
unicode = 010A;
},
{
glyphname = D;
lastChange = "2016-08-16 14:18:49 +0000";
layers = (
{
anchors = (
{
name = bottom;
position = "{333, 0}";
},
{
name = center;
position = "{129, 334}";
},
{
name = top;
position = "{303, 667}";
}
);
layerId = UUID0;
paths = (
{
closed = 1;
nodes = (
"294 0 LINE SMOOTH",
"502 0 OFFCURVE",
"607 112 OFFCURVE",
"607 334 CURVE SMOOTH",
"607 555 OFFCURVE",
"502 667 OFFCURVE",
"294 667 CURVE SMOOTH",
"85 667 LINE",
"85 0 LINE"
);
},
{
closed = 1;
nodes = (
"157 600 LINE",
"289 600 LINE SMOOTH",
"459 600 OFFCURVE",
"533 518 OFFCURVE",
"533 334 CURVE SMOOTH",
"533 150 OFFCURVE",
"459 68 OFFCURVE",
"289 68 CURVE SMOOTH",
"157 68 LINE"
);
}
);
width = 667;
},
{
anchors = (
{
name = bottom;
position = "{370, 0}";
},
{
name = center;
position = "{167, 334}";
},
{
name = top;
position = "{330, 667}";
}
);
layerId = "ECACF70C-BE42-4FA5-B3A0-AFDA71FB1D31";
paths = (
{
closed = 1;
nodes = (
"358 0 LINE",
"593 0 OFFCURVE",
"695 116 OFFCURVE",
"695 333 CURVE",
"695 552 OFFCURVE",
"593 667 OFFCURVE",
"358 667 CURVE",
"65 667 LINE",
"65 0 LINE"
);
},
{
closed = 1;
nodes = (
"265 517 LINE",
"333 517 LINE",
"431 517 OFFCURVE",
"490 462 OFFCURVE",
"490 333 CURVE",
"490 205 OFFCURVE",
"431 150 OFFCURVE",
"333 150 CURVE",
"265 150 LINE"
);
}
);
width = 730;
}
);
leftKerningGroup = B;
leftMetricsKey = H;
rightKerningGroup = D;
rightMetricsKey = O;
unicode = 0044;
},
{
glyphname = Eth;
lastChange = "2016-08-15 14:09:19 +0000";
layers = (
{
layerId = UUID0;
paths = (
{
closed = 1;
nodes = (
"340 0 LINE SMOOTH",
"548 0 OFFCURVE",
"653 112 OFFCURVE",
"653 334 CURVE SMOOTH",
"653 555 OFFCURVE",
"548 667 OFFCURVE",
"340 667 CURVE SMOOTH",
"131 667 LINE",
"131 363 LINE",
"53 363 LINE",
"53 303 LINE",
"131 303 LINE",
"131 0 LINE"
);
},
{
closed = 1;
nodes = (
"203 303 LINE",
"374 303 LINE",
"374 363 LINE",
"203 363 LINE",
"203 600 LINE",
"335 600 LINE SMOOTH",
"505 600 OFFCURVE",
"581 518 OFFCURVE",
"581 334 CURVE SMOOTH",
"581 150 OFFCURVE",
"505 68 OFFCURVE",
"335 68 CURVE SMOOTH",
"203 68 LINE"
);
}
);
width = 717;
},
{
components = (
{
name = D;
},
{
name = strokeshortcomb;
transform = "{1, 0, 0, 1, -40, -16}";
}
);
layerId = "ECACF70C-BE42-4FA5-B3A0-AFDA71FB1D31";
width = 730;
}
);
rightKerningGroup = D;
unicode = 00D0;
},
{
glyphname = Dcaron;
lastChange = "2016-08-15 14:09:13 +0000";
layers = (
{
layerId = UUID0;
paths = (
{
closed = 1;
nodes = (
"296 0 LINE SMOOTH",
"504 0 OFFCURVE",
"609 112 OFFCURVE",
"609 334 CURVE SMOOTH",
"609 555 OFFCURVE",
"504 667 OFFCURVE",
"296 667 CURVE SMOOTH",
"87 667 LINE",
"87 0 LINE"
);
},
{
closed = 1;
nodes = (
"159 600 LINE",
"291 600 LINE SMOOTH",
"461 600 OFFCURVE",
"537 518 OFFCURVE",
"537 334 CURVE SMOOTH",
"537 150 OFFCURVE",
"461 68 OFFCURVE",
"291 68 CURVE SMOOTH",
"159 68 LINE"
);
},
{
closed = 1;
nodes = (
"319 724 LINE",
"399 845 LINE",
"343 845 LINE",
"298 774 LINE",
"253 845 LINE",
"197 845 LINE",
"277 724 LINE"
);
}
);
width = 670;
},
{
components = (
{
name = D;
},
{
name = caroncomb.case;
transform = "{1, 0, 0, 1, 114, 168}";
}
);
layerId = "ECACF70C-BE42-4FA5-B3A0-AFDA71FB1D31";
width = 730;
}
);
leftKerningGroup = B;
unicode = 010E;
},
{
glyphname = Dcroat;
lastChange = "2016-08-15 14:09:19 +0000";
layers = (
{
layerId = UUID0;
paths = (
{
closed = 1;
nodes = (
"340 0 LINE SMOOTH",
"548 0 OFFCURVE",
"653 112 OFFCURVE",
"653 334 CURVE SMOOTH",
"653 555 OFFCURVE",
"548 667 OFFCURVE",
"340 667 CURVE SMOOTH",
"131 667 LINE",
"131 363 LINE",
"53 363 LINE",
"53 303 LINE",
"131 303 LINE",
"131 0 LINE"
);
},
{
closed = 1;
nodes = (
"203 303 LINE",
"374 303 LINE",
"374 363 LINE",
"203 363 LINE",
"203 600 LINE",
"335 600 LINE SMOOTH",
"505 600 OFFCURVE",
"581 518 OFFCURVE",
"581 334 CURVE SMOOTH",
"581 150 OFFCURVE",
"505 68 OFFCURVE",
"335 68 CURVE SMOOTH",
"203 68 LINE"
);
}
);
width = 717;
},
{
components = (
{
name = Eth;
}
);
layerId = "ECACF70C-BE42-4FA5-B3A0-AFDA71FB1D31";
width = 730;
}
);
rightKerningGroup = D;
unicode = 0110;
},
{
glyphname = E;
lastChange = "2016-08-16 14:17:59 +0000";
layers = (
{
anchors = (
{
name = bottom;
position = "{281, 0}";
},
{
name = ogonek;
position = "{507, 10}";
},
{
name = top;
position = "{281, 667}";
},
{
name = topleft;
position = "{18, 667}";
}
);
layerId = UUID0;
paths = (
{
closed = 1;
nodes = (
"506 0 LINE",
"506 68 LINE",
"157 68 LINE",
"157 299 LINE",
"464 299 LINE",
"464 369 LINE",
"157 369 LINE",
"157 599 LINE",
"506 599 LINE",
"506 667 LINE",
"85 667 LINE",
"85 0 LINE"
);
}
);
width = 581;
},
{
anchors = (
{
name = bottom;
position = "{302, 0}";
},
{
name = ogonek;
position = "{539, 10}";
},
{
name = top;
position = "{302, 667}";
},
{
name = topleft;
position = "{25, 667}";
}
);
layerId = "ECACF70C-BE42-4FA5-B3A0-AFDA71FB1D31";
paths = (
{
closed = 1;
nodes = (
"538 0 LINE",
"538 150 LINE",
"265 150 LINE",
"265 259 LINE",
"499 259 LINE",
"499 409 LINE",
"266 409 LINE",
"266 517 LINE",
"538 517 LINE",
"538 667 LINE",
"65 667 LINE",
"65 0 LINE"
);
}
);
width = 598;
}
);
leftKerningGroup = B;
leftMetricsKey = H;
rightKerningGroup = E;
unicode = 0045;
},
{
glyphname = Eacute;
lastChange = "2016-08-15 14:09:19 +0000";
layers = (
{
layerId = UUID0;
paths = (
{
closed = 1;
nodes = (
"508 0 LINE",
"508 68 LINE",
"159 68 LINE",
"159 299 LINE",
"466 299 LINE",
"466 369 LINE",
"159 369 LINE",
"159 599 LINE",
"508 599 LINE",
"508 667 LINE",
"87 667 LINE",
"87 0 LINE"
);
},
{
closed = 1;
nodes = (
"323 724 LINE",
"406 839 LINE",
"332 839 LINE",
"276 724 LINE"
);
}
);
width = 566;
},
{
components = (
{
name = E;
},
{
name = acutecomb.case;
transform = "{1, 0, 0, 1, 193, 168}";
}
);
layerId = "ECACF70C-BE42-4FA5-B3A0-AFDA71FB1D31";
width = 598;
}
);
leftKerningGroup = B;
rightKerningGroup = E;
unicode = 00C9;
},
{
glyphname = Ebreve;
lastChange = "2016-08-15 14:09:19 +0000";
layers = (
{
layerId = UUID0;
paths = (
{
closed = 1;
nodes = (
"508 0 LINE",
"508 68 LINE",
"159 68 LINE",
"159 299 LINE",
"466 299 LINE",
"466 369 LINE",
"159 369 LINE",
"159 599 LINE",
"508 599 LINE",
"508 667 LINE",
"87 667 LINE",
"87 0 LINE"
);
},
{
closed = 1;
nodes = (
"369 705 OFFCURVE",
"408 744 OFFCURVE",
"408 809 CURVE",
"360 809 LINE",
"360 770 OFFCURVE",
"343 753 OFFCURVE",
"303 753 CURVE SMOOTH",
"263 753 OFFCURVE",
"246 770 OFFCURVE",
"246 809 CURVE",
"198 809 LINE",
"198 744 OFFCURVE",
"237 705 OFFCURVE",
"303 705 CURVE SMOOTH"
);
}
);
width = 566;
},
{
components = (
{
name = E;
},
{
name = brevecomb.case;
transform = "{1, 0, 0, 1, 81, 168}";
}
);
layerId = "ECACF70C-BE42-4FA5-B3A0-AFDA71FB1D31";
width = 598;
}
);
leftKerningGroup = B;
rightKerningGroup = E;
unicode = 0114;
},
{
glyphname = Ecaron;
lastChange = "2016-08-15 14:09:13 +0000";
layers = (
{
layerId = UUID0;
paths = (
{
closed = 1;
nodes = (
"508 0 LINE",
"508 68 LINE",
"159 68 LINE",
"159 299 LINE",
"466 299 LINE",
"466 369 LINE",
"159 369 LINE",
"159 599 LINE",
"508 599 LINE",
"508 667 LINE",
"87 667 LINE",
"87 0 LINE"
);
},
{
closed = 1;
nodes = (
"323 724 LINE",
"404 845 LINE",
"348 845 LINE",
"303 774 LINE",
"257 845 LINE",
"201 845 LINE",
"282 724 LINE"
);
}
);
width = 566;
},
{
components = (
{
name = E;
},
{
name = caroncomb.case;
transform = "{1, 0, 0, 1, 86, 168}";
}
);
layerId = "ECACF70C-BE42-4FA5-B3A0-AFDA71FB1D31";
width = 598;
}
);
leftKerningGroup = B;
rightKerningGroup = E;
unicode = 011A;
},
{
glyphname = Ecircumflex;
lastChange = "2016-08-15 14:09:19 +0000";
layers = (
{
layerId = UUID0;
paths = (
{
closed = 1;
nodes = (
"508 0 LINE",
"508 68 LINE",
"159 68 LINE",
"159 299 LINE",
"466 299 LINE",
"466 369 LINE",
"159 369 LINE",
"159 599 LINE",
"508 599 LINE",
"508 667 LINE",
"87 667 LINE",
"87 0 LINE"
);
},
{
closed = 1;
nodes = (
"257 724 LINE",
"303 795 LINE",
"348 724 LINE",
"404 724 LINE",
"323 845 LINE",
"282 845 LINE",
"201 724 LINE"
);
}
);
width = 566;
},
{
components = (
{
name = E;
},
{
name = circumflexcomb.case;
transform = "{1, 0, 0, 1, 91, 73}";
}
);
layerId = "ECACF70C-BE42-4FA5-B3A0-AFDA71FB1D31";
width = 598;
}
);
leftKerningGroup = B;
rightKerningGroup = E;
unicode = 00CA;
},
{
glyphname = Ecircumflexacute;
lastChange = "2016-08-09 11:45:23 +0000";
layers = (
{
layerId = UUID0;
paths = (
{
closed = 1;
nodes = (
"508 0 LINE",
"508 68 LINE",
"159 68 LINE",
"159 299 LINE",
"466 299 LINE",
"466 369 LINE",
"159 369 LINE",
"159 599 LINE",
"508 599 LINE",
"508 667 LINE",
"87 667 LINE",
"87 0 LINE"
);
},
{
closed = 1;
nodes = (
"252 707 LINE",
"298 777 LINE",
"343 707 LINE",
"399 707 LINE",
"318 827 LINE",
"277 827 LINE",
"196 707 LINE"
);
},
{
closed = 1;
nodes = (
"407 798 LINE",
"490 913 LINE",
"416 913 LINE",
"359 798 LINE"
);
}
);
width = 566;
},
{
components = (
{
name = E;
}
);
layerId = "ECACF70C-BE42-4FA5-B3A0-AFDA71FB1D31";
paths = (
{
closed = 1;
nodes = (
"281 704 LINE",
"323 748 LINE",
"365 704 LINE",
"467 704 LINE",
"347 826 LINE",
"299 826 LINE",
"179 704 LINE"
);
},
{
closed = 1;
nodes = (
"494 771 LINE",
"587 888 LINE",
"470 888 LINE",
"408 771 LINE"
);
}
);
width = 609;
}
);
leftKerningGroup = B;
rightKerningGroup = E;
unicode = 1EBE;
},
{
glyphname = Ecircumflexdotbelow;
lastChange = "2016-08-15 14:12:06 +0000";
layers = (
{
layerId = UUID0;
paths = (
{
closed = 1;
nodes = (
"508 0 LINE",
"508 68 LINE",
"159 68 LINE",
"159 299 LINE",
"466 299 LINE",
"466 369 LINE",
"159 369 LINE",
"159 599 LINE",
"508 599 LINE",
"508 667 LINE",
"87 667 LINE",
"87 0 LINE"
);
},
{
closed = 1;
nodes = (
"342 -129 LINE",
"342 -50 LINE",
"263 -50 LINE",
"263 -129 LINE"
);
},
{
closed = 1;
nodes = (
"257 707 LINE",
"303 777 LINE",
"348 707 LINE",
"404 707 LINE",
"323 827 LINE",
"282 827 LINE",
"201 707 LINE"
);
}
);
width = 566;
},
{
components = (
{
name = E;
},
{
name = dotbelowcomb.case;
transform = "{1, 0, 0, 1, 192, 0}";
},
{
name = circumflexcomb.case;
transform = "{1, 0, 0, 1, 91, 73}";
}
);
layerId = "ECACF70C-BE42-4FA5-B3A0-AFDA71FB1D31";
width = 598;
}
);
leftKerningGroup = B;
rightKerningGroup = E;
unicode = 1EC6;
},
{
glyphname = Ecircumflexgrave;
lastChange = "2016-08-09 11:45:31 +0000";
layers = (
{
layerId = UUID0;
paths = (
{
closed = 1;
nodes = (
"508 0 LINE",
"508 68 LINE",
"159 68 LINE",
"159 299 LINE",
"466 299 LINE",
"466 369 LINE",
"159 369 LINE",
"159 599 LINE",
"508 599 LINE",
"508 667 LINE",
"87 667 LINE",
"87 0 LINE"
);
},
{
closed = 1;
nodes = (
"237 798 LINE",
"180 913 LINE",
"106 913 LINE",
"189 798 LINE"
);
},
{
closed = 1;
nodes = (
"252 707 LINE",
"298 777 LINE",
"343 707 LINE",
"399 707 LINE",
"318 827 LINE",
"277 827 LINE",
"196 707 LINE"
);
}
);
width = 566;
},
{
components = (
{
name = E;
}
);
layerId = "ECACF70C-BE42-4FA5-B3A0-AFDA71FB1D31";
paths = (
{
closed = 1;
nodes = (
"238 770 LINE",
"176 887 LINE",
"59 887 LINE",
"152 770 LINE"
);
},
{
closed = 1;
nodes = (
"281 704 LINE",
"323 748 LINE",
"365 704 LINE",
"467 704 LINE",
"347 826 LINE",
"299 826 LINE",
"179 704 LINE"
);
}
);
width = 609;
}
);
leftKerningGroup = B;
rightKerningGroup = E;
unicode = 1EC0;
},
{
glyphname = Ecircumflexhookabove;
lastChange = "2016-08-09 11:45:38 +0000";
layers = (
{
layerId = UUID0;
paths = (
{
closed = 1;
nodes = (
"508 0 LINE",
"508 68 LINE",
"159 68 LINE",
"159 299 LINE",
"466 299 LINE",
"466 369 LINE",
"159 369 LINE",
"159 599 LINE",
"508 599 LINE",
"508 667 LINE",
"87 667 LINE",
"87 0 LINE"
);
},
{
closed = 1;
nodes = (
"252 707 LINE",
"298 777 LINE",
"343 707 LINE",
"399 707 LINE",
"318 827 LINE",
"277 827 LINE",
"196 707 LINE"
);
},
{
closed = 1;
nodes = (
"408 786 LINE",
"408 810 LINE",
"444 816 OFFCURVE",
"460 838 OFFCURVE",
"460 864 CURVE SMOOTH",
"460 917 OFFCURVE",
"410 932 OFFCURVE",
"368 932 CURVE SMOOTH",
"357 932 OFFCURVE",
"347 930 OFFCURVE",
"338 929 CURVE",
"338 885 LINE",
"345 887 OFFCURVE",
"354 888 OFFCURVE",
"365 888 CURVE SMOOTH",
"394 888 OFFCURVE",
"412 878 OFFCURVE",
"412 861 CURVE SMOOTH",
"412 852 OFFCURVE",
"403 839 OFFCURVE",
"375 838 CURVE",
"375 786 LINE"
);
}
);
width = 566;
},
{
components = (
{
name = E;
}
);
layerId = "ECACF70C-BE42-4FA5-B3A0-AFDA71FB1D31";
paths = (
{
closed = 1;
nodes = (
"276 704 LINE",
"318 748 LINE",
"360 704 LINE",
"462 704 LINE",
"342 826 LINE",
"294 826 LINE",
"174 704 LINE"
);
},
{
closed = 1;
nodes = (
"466 771 LINE",
"466 794 LINE",
"466 794 OFFCURVE",
"515 801 OFFCURVE",
"515 849 CURVE SMOOTH",
"515 897 OFFCURVE",
"473 921 OFFCURVE",
"423 921 CURVE SMOOTH",
"408 921 OFFCURVE",
"382 918 OFFCURVE",
"373 916 CURVE",
"373 863 LINE",
"386 866 OFFCURVE",
"396 867 OFFCURVE",
"404 867 CURVE SMOOTH",
"418 867 OFFCURVE",
"434 863 OFFCURVE",
"434 846 CURVE SMOOTH",
"434 833 OFFCURVE",
"419 830 OFFCURVE",
"408 830 CURVE",
"408 771 LINE"
);
}
);
width = 609;
}
);
leftKerningGroup = B;
rightKerningGroup = E;
unicode = 1EC2;
},
{
glyphname = Ecircumflextilde;
lastChange = "2016-08-09 11:45:45 +0000";
layers = (
{
layerId = UUID0;
paths = (
{
closed = 1;
nodes = (
"508 0 LINE",
"508 68 LINE",
"159 68 LINE",
"159 299 LINE",
"466 299 LINE",
"466 369 LINE",
"159 369 LINE",
"159 599 LINE",
"508 599 LINE",
"508 667 LINE",
"87 667 LINE",
"87 0 LINE"
);
},
{
closed = 1;
nodes = (
"252 701 LINE",
"298 771 LINE",
"343 701 LINE",
"399 701 LINE",
"318 821 LINE",
"277 821 LINE",
"196 701 LINE"
);
},
{
closed = 1;
nodes = (
"254 970 OFFCURVE",
"348 754 OFFCURVE",
"442 872 CURVE",
"442 927 LINE",
"348 810 OFFCURVE",
"254 1026 OFFCURVE",
"161 909 CURVE",
"161 852 LINE"
);
}
);
width = 566;
},
{
components = (
{
name = E;
}
);
layerId = "ECACF70C-BE42-4FA5-B3A0-AFDA71FB1D31";
paths = (
{
closed = 1;
nodes = (
"282 697 LINE",
"324 741 LINE",
"366 697 LINE",
"468 697 LINE",
"348 819 LINE",
"300 819 LINE",
"180 697 LINE"
);
},
{
closed = 1;
nodes = (
"274 955 OFFCURVE",
"375 736 OFFCURVE",
"476 855 CURVE",
"476 940 LINE",
"375 821 OFFCURVE",
"274 1040 OFFCURVE",
"172 921 CURVE",
"172 836 LINE"
);
}
);
width = 609;
}
);
leftKerningGroup = B;
rightKerningGroup = E;
unicode = 1EC4;
},
{
glyphname = Edieresis;
lastChange = "2016-08-15 14:09:09 +0000";
layers = (
{
layerId = UUID0;
paths = (
{
closed = 1;
nodes = (
"508 0 LINE",
"508 68 LINE",
"159 68 LINE",
"159 299 LINE",
"466 299 LINE",
"466 369 LINE",
"159 369 LINE",
"159 599 LINE",
"508 599 LINE",
"508 667 LINE",
"87 667 LINE",
"87 0 LINE"
);
},
{
closed = 1;
nodes = (
"272 724 LINE",
"272 804 LINE",
"193 804 LINE",
"193 724 LINE"
);
},
{
closed = 1;
nodes = (
"420 724 LINE",
"420 804 LINE",
"341 804 LINE",
"341 724 LINE"
);
}
);
width = 566;
},
{
components = (
{
name = E;
},
{
name = dieresiscomb.case;
transform = "{1, 0, 0, 1, 88, 168}";
}
);
layerId = "ECACF70C-BE42-4FA5-B3A0-AFDA71FB1D31";
width = 598;
}
);
leftKerningGroup = B;
rightKerningGroup = E;
unicode = 00CB;
},
{
glyphname = Edotaccent;
lastChange = "2016-08-15 14:09:09 +0000";
layers = (
{
layerId = UUID0;
paths = (
{
closed = 1;
nodes = (
"508 0 LINE",
"508 68 LINE",
"159 68 LINE",
"159 299 LINE",
"466 299 LINE",
"466 369 LINE",
"159 369 LINE",
"159 599 LINE",
"508 599 LINE",
"508 667 LINE",
"87 667 LINE",
"87 0 LINE"
);
},
{
closed = 1;
nodes = (
"343 724 LINE",
"343 804 LINE",
"264 804 LINE",
"264 724 LINE"
);
}
);
width = 566;
},
{
components = (
{
name = E;
},
{
name = dotaccentcomb.case;
transform = "{1, 0, 0, 1, 128, 168}";
}
);
layerId = "ECACF70C-BE42-4FA5-B3A0-AFDA71FB1D31";
width = 598;
}
);
leftKerningGroup = B;
rightKerningGroup = E;
unicode = 0116;
},
{
glyphname = Edotbelow;
lastChange = "2016-08-15 14:09:09 +0000";
layers = (
{
layerId = UUID0;
paths = (
{
closed = 1;
nodes = (
"508 0 LINE",
"508 68 LINE",
"159 68 LINE",
"159 299 LINE",
"466 299 LINE",
"466 369 LINE",
"159 369 LINE",
"159 599 LINE",
"508 599 LINE",
"508 667 LINE",
"87 667 LINE",
"87 0 LINE"
);
},
{
closed = 1;
nodes = (
"341 -129 LINE",
"341 -50 LINE",
"262 -50 LINE",
"262 -129 LINE"
);
}
);
width = 566;
},
{
components = (
{
name = E;
},
{
name = dotbelowcomb.case;
transform = "{1, 0, 0, 1, 192, 0}";
}
);
layerId = "ECACF70C-BE42-4FA5-B3A0-AFDA71FB1D31";
width = 598;
}
);
leftKerningGroup = B;
rightKerningGroup = E;
unicode = 1EB8;
},
{
glyphname = Egrave;
lastChange = "2016-08-15 14:09:39 +0000";
layers = (
{
layerId = UUID0;
paths = (
{
closed = 1;
nodes = (
"508 0 LINE",
"508 68 LINE",
"159 68 LINE",
"159 299 LINE",
"466 299 LINE",
"466 369 LINE",
"159 369 LINE",
"159 599 LINE",
"508 599 LINE",
"508 667 LINE",
"87 667 LINE",
"87 0 LINE"
);
},
{
closed = 1;
nodes = (
"348 724 LINE",
"291 839 LINE",
"217 839 LINE",
"300 724 LINE"
);
}
);
width = 566;
},
{
components = (
{
name = E;
},
{
name = gravecomb.case;
transform = "{1, 0, 0, 1, 167, 168}";
}
);
layerId = "ECACF70C-BE42-4FA5-B3A0-AFDA71FB1D31";
width = 598;
}
);
leftKerningGroup = B;
rightKerningGroup = E;
unicode = 00C8;
},
{
glyphname = Ehookabove;
lastChange = "2016-08-15 14:12:06 +0000";
layers = (
{
layerId = UUID0;
paths = (
{
closed = 1;
nodes = (
"508 0 LINE",
"508 68 LINE",
"159 68 LINE",
"159 299 LINE",
"466 299 LINE",
"466 369 LINE",
"159 369 LINE",
"159 599 LINE",
"508 599 LINE",
"508 667 LINE",
"87 667 LINE",
"87 0 LINE"
);
},
{
closed = 1;
nodes = (
"319 724 LINE",
"319 748 LINE",
"355 754 OFFCURVE",
"372 776 OFFCURVE",
"372 802 CURVE SMOOTH",
"372 855 OFFCURVE",
"322 870 OFFCURVE",
"280 870 CURVE SMOOTH",
"269 870 OFFCURVE",
"258 868 OFFCURVE",
"249 867 CURVE",
"249 823 LINE",
"257 825 OFFCURVE",
"266 826 OFFCURVE",
"276 826 CURVE SMOOTH",
"305 826 OFFCURVE",
"323 816 OFFCURVE",
"323 799 CURVE SMOOTH",
"323 790 OFFCURVE",
"314 777 OFFCURVE",
"286 776 CURVE",
"286 724 LINE"
);
}
);
width = 566;
},
{
components = (
{
name = E;
},
{
name = hookabovecomb.case;
transform = "{1, 0, 0, 1, 181, 171}";
}
);
layerId = "ECACF70C-BE42-4FA5-B3A0-AFDA71FB1D31";
width = 598;
}
);
leftKerningGroup = B;
rightKerningGroup = E;
unicode = 1EBA;
},
{
glyphname = Emacron;
lastChange = "2016-08-15 14:09:39 +0000";
layers = (
{
layerId = UUID0;
paths = (
{
closed = 1;
nodes = (
"508 0 LINE",
"508 68 LINE",
"159 68 LINE",
"159 299 LINE",
"466 299 LINE",
"466 369 LINE",
"159 369 LINE",
"159 599 LINE",
"508 599 LINE",
"508 667 LINE",
"87 667 LINE",
"87 0 LINE"
);
},
{
closed = 1;
nodes = (
"423 736 LINE",
"423 789 LINE",
"189 789 LINE",
"189 736 LINE"
);
}
);
width = 566;
},
{
components = (
{
name = E;
},
{
name = macroncomb.case;
transform = "{1, 0, 0, 1, 99, 168}";
}
);
layerId = "ECACF70C-BE42-4FA5-B3A0-AFDA71FB1D31";
width = 598;
}
);
leftKerningGroup = B;
rightKerningGroup = E;
unicode = 0112;
},
{
glyphname = Eogonek;
lastChange = "2016-08-15 14:09:39 +0000";
layers = (
{
layerId = UUID0;
paths = (
{
closed = 1;
nodes = (
"483 -173 OFFCURVE",
"520 -139 OFFCURVE",
"529 -99 CURVE",
"498 -99 LINE",
"489 -112 OFFCURVE",
"473 -129 OFFCURVE",
"454 -129 CURVE SMOOTH",
"440 -129 OFFCURVE",
"428 -121 OFFCURVE",
"428 -94 CURVE SMOOTH",
"428 -48 OFFCURVE",
"508 0 OFFCURVE",
"508 0 CURVE",
"508 68 LINE",
"159 68 LINE",
"159 299 LINE",
"466 299 LINE",
"466 369 LINE",
"159 369 LINE",
"159 599 LINE",
"508 599 LINE",
"508 667 LINE",
"87 667 LINE",
"87 0 LINE",
"445 0 LINE",
"445 0 OFFCURVE",
"360 -49 OFFCURVE",
"360 -109 CURVE SMOOTH",
"360 -168 OFFCURVE",
"400 -173 OFFCURVE",
"426 -173 CURVE SMOOTH"
);
}
);
width = 566;
},
{
components = (
{
name = E;
},
{
name = ogonekcomb.case;
transform = "{1, 0, 0, 1, 240, 0}";
}
);
layerId = "ECACF70C-BE42-4FA5-B3A0-AFDA71FB1D31";
width = 598;
}
);
leftKerningGroup = B;
unicode = 0118;
},
{
glyphname = Etilde;
lastChange = "2016-08-15 14:09:39 +0000";
layers = (
{
layerId = UUID0;
paths = (
{
closed = 1;
nodes = (
"508 0 LINE",
"508 68 LINE",
"159 68 LINE",
"159 299 LINE",
"466 299 LINE",
"466 369 LINE",
"159 369 LINE",
"159 599 LINE",
"508 599 LINE",
"508 667 LINE",
"87 667 LINE",
"87 0 LINE"
);
},
{
closed = 1;
nodes = (
"254 843 OFFCURVE",
"347 627 OFFCURVE",
"441 745 CURVE",
"441 800 LINE",
"347 683 OFFCURVE",
"254 899 OFFCURVE",
"160 782 CURVE",
"160 725 LINE"
);
}
);
width = 566;
},
{
components = (
{
name = E;
},
{
name = tildecomb.case;
transform = "{1, 0, 0, 1, 45, 168}";
}
);
layerId = "ECACF70C-BE42-4FA5-B3A0-AFDA71FB1D31";
width = 598;
}
);
leftKerningGroup = B;
rightKerningGroup = E;
unicode = 1EBC;
},
{
glyphname = F;
lastChange = "2016-08-16 14:22:10 +0000";
layers = (
{
layerId = UUID0;
paths = (
{
closed = 1;
nodes = (
"157 0 LINE",
"157 299 LINE",
"453 299 LINE",
"453 369 LINE",
"157 369 LINE",
"157 599 LINE",
"494 599 LINE",
"494 667 LINE",
"85 667 LINE",
"85 0 LINE"
);
}
);
width = 539;
},
{
layerId = "ECACF70C-BE42-4FA5-B3A0-AFDA71FB1D31";
paths = (
{
closed = 1;
nodes = (
"265 0 LINE",
"265 238 LINE",
"499 238 LINE",
"499 389 LINE",
"265 389 LINE",
"265 517 LINE",
"538 517 LINE",
"538 667 LINE",
"65 667 LINE",
"65 0 LINE"
);
}
);
width = 583;
}
);
leftKerningGroup = B;
leftMetricsKey = H;
unicode = 0046;
},
{
glyphname = Fdotaccent;
lastChange = "2016-08-15 14:12:12 +0000";
layers = (
{
layerId = UUID0;
paths = (
{
closed = 1;
nodes = (
"159 0 LINE",
"159 298 LINE",
"455 298 LINE",
"455 368 LINE",
"159 368 LINE",
"159 599 LINE",
"496 599 LINE",
"496 667 LINE",
"87 667 LINE",
"87 0 LINE"
);
},
{
closed = 1;
nodes = (
"338 724 LINE",
"338 804 LINE",
"258 804 LINE",
"258 724 LINE"
);
}
);
width = 536;
},
{
components = (
{
name = F;
},
{
name = dotaccentcomb.case;
}
);
layerId = "ECACF70C-BE42-4FA5-B3A0-AFDA71FB1D31";
width = 580;
}
);
leftKerningGroup = B;
unicode = 1E1E;
},
{
glyphname = G;
lastChange = "2016-08-16 14:24:18 +0000";
layers = (
{
anchors = (
{
name = bottom;
position = "{331, 0}";
},
{
name = top;
position = "{331, 667}";
}
);
layerId = UUID0;
paths = (
{
closed = 1;
nodes = (
"451 -10 OFFCURVE",
"529 7 OFFCURVE",
"602 42 CURVE",
"602 363 LINE",
"369 363 LINE",
"369 293 LINE",
"530 293 LINE",
"530 83 LINE",
"481 67 OFFCURVE",
"430 59 OFFCURVE",
"377 59 CURVE SMOOTH",
"208 59 OFFCURVE",
"132 145 OFFCURVE",
"132 334 CURVE SMOOTH",
"132 522 OFFCURVE",
"208 607 OFFCURVE",
"377 607 CURVE SMOOTH",
"448 607 OFFCURVE",
"516 592 OFFCURVE",
"579 564 CURVE",
"579 634 LINE",
"513 662 OFFCURVE",
"442 676 OFFCURVE",
"369 676 CURVE SMOOTH",
"164 676 OFFCURVE",
"60 561 OFFCURVE",
"60 334 CURVE SMOOTH",
"60 107 OFFCURVE",
"164 -10 OFFCURVE",
"369 -10 CURVE SMOOTH"
);
}
);
width = 687;
},
{
anchors = (
{
name = bottom;
position = "{322, 0}";
},
{
name = top;
position = "{382, 667}";
}
);
layerId = "ECACF70C-BE42-4FA5-B3A0-AFDA71FB1D31";
paths = (
{
closed = 1;
nodes = (
"465 -25 OFFCURVE",
"562 4 OFFCURVE",
"649 55 CURVE",
"649 384 LINE",
"360 384 LINE",
"360 234 LINE",
"449 234 LINE",
"449 137 LINE",
"436 128 OFFCURVE",
"411 124 OFFCURVE",
"382 124 CURVE",
"307 124 OFFCURVE",
"240 168 OFFCURVE",
"240 334 CURVE",
"240 501 OFFCURVE",
"301 541 OFFCURVE",
"393 541 CURVE",
"467 541 OFFCURVE",
"530 512 OFFCURVE",
"618 464 CURVE",
"618 642 LINE",
"540 673 OFFCURVE",
"456 692 OFFCURVE",
"367 692 CURVE",
"174 692 OFFCURVE",
"35 585 OFFCURVE",
"35 333 CURVE",
"35 66 OFFCURVE",
"174 -25 OFFCURVE",
"368 -25 CURVE"
);
}
);
width = 714;
}
);
leftKerningGroup = C;
leftMetricsKey = O;
rightKerningGroup = G;
rightMetricsKey = H;
unicode = 0047;
},
{
glyphname = Gacute;
lastChange = "2016-08-15 14:12:04 +0000";
layers = (
{
layerId = UUID0;
paths = (
{
closed = 1;
nodes = (
"452 -8 OFFCURVE",
"530 9 OFFCURVE",
"603 43 CURVE",
"603 363 LINE",
"370 363 LINE",
"370 293 LINE",
"531 293 LINE",
"531 85 LINE",
"482 69 OFFCURVE",
"431 61 OFFCURVE",
"378 61 CURVE SMOOTH",
"209 61 OFFCURVE",
"133 145 OFFCURVE",
"133 334 CURVE SMOOTH",
"133 522 OFFCURVE",
"209 607 OFFCURVE",
"378 607 CURVE SMOOTH",
"449 607 OFFCURVE",
"517 592 OFFCURVE",
"580 564 CURVE",
"580 634 LINE",
"514 661 OFFCURVE",
"443 676 OFFCURVE",
"370 676 CURVE SMOOTH",
"165 676 OFFCURVE",
"61 561 OFFCURVE",
"61 334 CURVE SMOOTH",
"61 107 OFFCURVE",
"165 -8 OFFCURVE",
"370 -8 CURVE SMOOTH"
);
},
{
closed = 1;
nodes = (
"380 724 LINE",
"463 839 LINE",
"389 839 LINE",
"332 724 LINE"
);
}
);
width = 677;
},
{
components = (
{
name = G;
},
{
name = acutecomb.case;
transform = "{1, 0, 0, 1, 273, 168}";
}
);
layerId = "ECACF70C-BE42-4FA5-B3A0-AFDA71FB1D31";
width = 714;
}
);
leftKerningGroup = C;
rightKerningGroup = G;
unicode = 01F4;
},
{
glyphname = Gbreve;
lastChange = "2016-08-15 14:11:52 +0000";
layers = (
{
layerId = UUID0;
paths = (
{
closed = 1;
nodes = (
"452 -8 OFFCURVE",
"530 9 OFFCURVE",
"603 43 CURVE",
"603 363 LINE",
"370 363 LINE",
"370 293 LINE",
"531 293 LINE",
"531 85 LINE",
"482 69 OFFCURVE",
"431 61 OFFCURVE",
"378 61 CURVE SMOOTH",
"209 61 OFFCURVE",
"133 145 OFFCURVE",
"133 334 CURVE SMOOTH",
"133 522 OFFCURVE",
"209 607 OFFCURVE",
"378 607 CURVE SMOOTH",
"449 607 OFFCURVE",
"517 592 OFFCURVE",
"580 564 CURVE",
"580 634 LINE",
"514 661 OFFCURVE",
"443 676 OFFCURVE",
"370 676 CURVE SMOOTH",
"165 676 OFFCURVE",
"61 561 OFFCURVE",
"61 334 CURVE SMOOTH",
"61 107 OFFCURVE",
"165 -8 OFFCURVE",
"370 -8 CURVE SMOOTH"
);
},
{
closed = 1;
nodes = (
"426 705 OFFCURVE",
"465 744 OFFCURVE",
"465 809 CURVE",
"417 809 LINE",
"417 770 OFFCURVE",
"400 753 OFFCURVE",
"360 753 CURVE SMOOTH",
"320 753 OFFCURVE",
"303 770 OFFCURVE",
"303 809 CURVE",
"255 809 LINE",
"255 744 OFFCURVE",
"294 705 OFFCURVE",
"360 705 CURVE SMOOTH"
);
}
);
width = 677;
},
{
components = (
{
name = G;
},
{
name = brevecomb.case;
transform = "{1, 0, 0, 1, 161, 168}";
}
);
layerId = "ECACF70C-BE42-4FA5-B3A0-AFDA71FB1D31";
width = 714;
}
);
leftKerningGroup = C;
rightKerningGroup = G;
unicode = 011E;
},
{
glyphname = Gcaron;
lastChange = "2016-08-15 14:11:52 +0000";
layers = (
{
layerId = UUID0;
paths = (
{
closed = 1;
nodes = (
"452 -8 OFFCURVE",
"530 9 OFFCURVE",
"603 43 CURVE",
"603 363 LINE",
"370 363 LINE",
"370 293 LINE",
"531 293 LINE",
"531 85 LINE",
"482 69 OFFCURVE",
"431 61 OFFCURVE",
"378 61 CURVE SMOOTH",
"209 61 OFFCURVE",
"133 145 OFFCURVE",
"133 334 CURVE SMOOTH",
"133 522 OFFCURVE",
"209 607 OFFCURVE",
"378 607 CURVE SMOOTH",
"449 607 OFFCURVE",
"517 592 OFFCURVE",
"580 564 CURVE",
"580 634 LINE",
"514 661 OFFCURVE",
"443 676 OFFCURVE",
"370 676 CURVE SMOOTH",
"165 676 OFFCURVE",
"61 561 OFFCURVE",
"61 334 CURVE SMOOTH",
"61 107 OFFCURVE",
"165 -8 OFFCURVE",
"370 -8 CURVE SMOOTH"
);
},
{
closed = 1;
nodes = (
"377 724 LINE",
"457 844 LINE",
"401 844 LINE",
"356 774 LINE",
"311 844 LINE",
"255 844 LINE",
"335 724 LINE"
);
}
);
width = 677;
},
{
components = (
{
name = G;
},
{
name = caroncomb.case;
transform = "{1, 0, 0, 1, 166, 168}";
}
);
layerId = "ECACF70C-BE42-4FA5-B3A0-AFDA71FB1D31";
width = 714;
}
);
leftKerningGroup = C;
rightKerningGroup = G;
unicode = 01E6;
},
{
glyphname = Gcircumflex;
lastChange = "2016-08-15 14:11:50 +0000";
layers = (
{
layerId = UUID0;
paths = (
{
closed = 1;
nodes = (
"452 -8 OFFCURVE",
"530 9 OFFCURVE",
"603 43 CURVE",
"603 363 LINE",
"370 363 LINE",
"370 293 LINE",
"531 293 LINE",
"531 85 LINE",
"482 69 OFFCURVE",
"431 61 OFFCURVE",
"378 61 CURVE SMOOTH",
"209 61 OFFCURVE",
"133 145 OFFCURVE",
"133 334 CURVE SMOOTH",
"133 522 OFFCURVE",
"209 607 OFFCURVE",
"378 607 CURVE SMOOTH",
"449 607 OFFCURVE",
"517 592 OFFCURVE",
"580 564 CURVE",
"580 634 LINE",
"514 661 OFFCURVE",
"443 676 OFFCURVE",
"370 676 CURVE SMOOTH",
"165 676 OFFCURVE",
"61 561 OFFCURVE",
"61 334 CURVE SMOOTH",
"61 107 OFFCURVE",
"165 -8 OFFCURVE",
"370 -8 CURVE SMOOTH"
);
},
{
closed = 1;
nodes = (
"311 724 LINE",
"356 795 LINE",
"401 724 LINE",
"457 724 LINE",
"377 844 LINE",
"335 844 LINE",
"255 724 LINE"
);
}
);
width = 677;
},
{
components = (
{
name = G;
},
{
name = circumflexcomb.case;
transform = "{1, 0, 0, 1, 171, 73}";
}
);
layerId = "ECACF70C-BE42-4FA5-B3A0-AFDA71FB1D31";
width = 714;
}
);
leftKerningGroup = C;
rightKerningGroup = G;
unicode = 011C;
},
{
glyphname = Gcommaaccent;
lastChange = "2016-08-15 14:09:20 +0000";
layers = (
{
layerId = UUID0;
paths = (
{
closed = 1;
nodes = (
"452 -8 OFFCURVE",
"530 9 OFFCURVE",
"603 43 CURVE",
"603 363 LINE",
"370 363 LINE",
"370 293 LINE",
"531 293 LINE",
"531 85 LINE",
"482 69 OFFCURVE",
"431 61 OFFCURVE",
"378 61 CURVE SMOOTH",
"209 61 OFFCURVE",
"133 145 OFFCURVE",
"133 334 CURVE SMOOTH",
"133 522 OFFCURVE",
"209 607 OFFCURVE",
"378 607 CURVE SMOOTH",
"449 607 OFFCURVE",
"517 592 OFFCURVE",
"580 564 CURVE",
"580 634 LINE",
"514 661 OFFCURVE",
"443 676 OFFCURVE",
"370 676 CURVE SMOOTH",
"165 676 OFFCURVE",
"61 561 OFFCURVE",
"61 334 CURVE SMOOTH",
"61 107 OFFCURVE",
"165 -8 OFFCURVE",
"370 -8 CURVE SMOOTH"
);
},
{
closed = 1;
nodes = (
"354 -184 OFFCURVE",
"410 -146 OFFCURVE",
"410 -50 CURVE",
"350 -50 LINE",
"350 -79 OFFCURVE",
"347 -125 OFFCURVE",
"310 -140 CURVE",
"310 -194 LINE"
);
}
);
width = 677;
},
{
components = (
{
name = G;
},
{
name = commaaccentcomb.case;
transform = "{1, 0, 0, 1, 172, 0}";
}
);
layerId = "ECACF70C-BE42-4FA5-B3A0-AFDA71FB1D31";
width = 714;
}
);
leftKerningGroup = C;
rightKerningGroup = G;
unicode = 0122;
},
{
glyphname = Gdotaccent;
lastChange = "2016-08-15 14:11:52 +0000";
layers = (
{
layerId = UUID0;
paths = (
{
closed = 1;
nodes = (
"452 -8 OFFCURVE",
"530 9 OFFCURVE",
"603 43 CURVE",
"603 363 LINE",
"370 363 LINE",
"370 293 LINE",
"531 293 LINE",
"531 85 LINE",
"482 69 OFFCURVE",
"431 61 OFFCURVE",
"378 61 CURVE SMOOTH",
"209 61 OFFCURVE",
"133 145 OFFCURVE",
"133 334 CURVE SMOOTH",
"133 522 OFFCURVE",
"209 607 OFFCURVE",
"378 607 CURVE SMOOTH",
"449 607 OFFCURVE",
"517 592 OFFCURVE",
"580 564 CURVE",
"580 634 LINE",
"514 661 OFFCURVE",
"443 676 OFFCURVE",
"370 676 CURVE SMOOTH",
"165 676 OFFCURVE",
"61 561 OFFCURVE",
"61 334 CURVE SMOOTH",
"61 107 OFFCURVE",
"165 -8 OFFCURVE",
"370 -8 CURVE SMOOTH"
);
},
{
closed = 1;
nodes = (
"401 724 LINE",
"401 804 LINE",
"321 804 LINE",
"321 724 LINE"
);
}
);
width = 677;
},
{
components = (
{
name = G;
},
{
name = dotaccentcomb.case;
transform = "{1, 0, 0, 1, 208, 168}";
}
);
layerId = "ECACF70C-BE42-4FA5-B3A0-AFDA71FB1D31";
width = 714;
}
);
leftKerningGroup = C;
rightKerningGroup = G;
unicode = 0120;
},
{
glyphname = H;
lastChange = "2016-08-16 14:16:17 +0000";
layers = (
{
anchors = (
{
name = bottom;
position = "{335, 0}";
},
{
name = center;
position = "{335, 334}";
},
{
name = top;
position = "{335, 667}";
},
{
name = topleft;
position = "{18, 667}";
}
);
layerId = UUID0;
paths = (
{
closed = 1;
nodes = (
"157 0 LINE",
"157 299 LINE",
"512 299 LINE",
"512 0 LINE",
"584 0 LINE",
"584 667 LINE",
"512 667 LINE",
"512 367 LINE",
"157 367 LINE",
"157 667 LINE",
"85 667 LINE",
"85 0 LINE"
);
}
);
width = 669;
},
{
anchors = (
{
name = bottom;
position = "{364, 0}";
},
{
name = center;
position = "{364, 535}";
},
{
name = top;
position = "{364, 667}";
},
{
name = topleft;
position = "{25, 667}";
}
);
layerId = "ECACF70C-BE42-4FA5-B3A0-AFDA71FB1D31";
paths = (
{
closed = 1;
nodes = (
"265 0 LINE",
"265 260 LINE",
"463 260 LINE",
"463 0 LINE",
"663 0 LINE",
"663 667 LINE",
"463 667 LINE",
"463 410 LINE",
"265 410 LINE",
"265 667 LINE",
"65 667 LINE",
"65 0 LINE"
);
}
);
width = 728;
}
);
leftKerningGroup = B;
rightKerningGroup = H;
unicode = 0048;
},
{
glyphname = Hbar;
lastChange = "2016-08-15 14:09:39 +0000";
layers = (
{
layerId = UUID0;
paths = (
{
closed = 1;
nodes = (
"200 0 LINE",
"200 299 LINE",
"555 299 LINE",
"555 0 LINE",
"627 0 LINE",
"627 488 LINE",
"709 488 LINE",
"709 548 LINE",
"627 548 LINE",
"627 667 LINE",
"555 667 LINE",
"555 548 LINE",
"200 548 LINE",
"200 667 LINE",
"128 667 LINE",
"128 548 LINE",
"46 548 LINE",
"46 488 LINE",
"128 488 LINE",
"128 0 LINE"
);
},
{
closed = 1;
nodes = (
"200 488 LINE",
"555 488 LINE",
"555 368 LINE",
"200 368 LINE"
);
}
);
width = 755;
},
{
components = (
{
name = H;
},
{
name = strokeshortcomb;
transform = "{1, 0, 0, 1, 157, 185}";
}
);
layerId = "ECACF70C-BE42-4FA5-B3A0-AFDA71FB1D31";
width = 728;
}
);
unicode = 0126;
},
{
glyphname = Hcircumflex;
lastChange = "2016-08-15 14:09:39 +0000";
layers = (
{
layerId = UUID0;
paths = (
{
closed = 1;
nodes = (
"159 0 LINE",
"159 299 LINE",
"514 299 LINE",
"514 0 LINE",
"586 0 LINE",
"586 667 LINE",
"514 667 LINE",
"514 368 LINE",
"159 368 LINE",
"159 667 LINE",
"87 667 LINE",
"87 0 LINE"
);
},
{
closed = 1;
nodes = (
"291 724 LINE",
"337 795 LINE",
"382 724 LINE",
"438 724 LINE",
"357 844 LINE",
"316 844 LINE",
"235 724 LINE"
);
}
);
width = 674;
},
{
components = (
{
name = H;
},
{
name = circumflexcomb.case;
transform = "{1, 0, 0, 1, 153, 73}";
}
);
layerId = "ECACF70C-BE42-4FA5-B3A0-AFDA71FB1D31";
width = 728;
}
);
leftKerningGroup = B;
rightKerningGroup = H;
unicode = 0124;
},
{
glyphname = I;
lastChange = "2016-08-15 13:47:15 +0000";
layers = (
{
anchors = (
{
name = bottom;
position = "{121, 0}";
},
{
name = ogonek;
position = "{218, 10}";
},
{
name = top;
position = "{121, 667}";
},
{
name = topleft;
position = "{18, 667}";
}
);
layerId = UUID0;
paths = (
{
closed = 1;
nodes = (
"157 0 LINE",
"157 667 LINE",
"85 667 LINE",
"85 0 LINE"
);
}
);
width = 242;
},
{
anchors = (
{
name = bottom;
position = "{156, 0}";
},
{
name = ogonek;
position = "{277, 10}";
},
{
name = top;
position = "{156, 667}";
},
{
name = topleft;
position = "{25, 667}";
}
);
layerId = "ECACF70C-BE42-4FA5-B3A0-AFDA71FB1D31";
paths = (
{
closed = 1;
nodes = (
"266 0 LINE",
"266 667 LINE",
"65 667 LINE",
"65 0 LINE"
);
}
);
width = 331;
}
);
leftKerningGroup = B;
leftMetricsKey = H;
rightKerningGroup = H;
rightMetricsKey = H;
unicode = 0049;
},
{
glyphname = Iacute;
lastChange = "2016-08-15 14:09:39 +0000";
layers = (
{
layerId = UUID0;
paths = (
{
closed = 1;
nodes = (
"159 0 LINE",
"159 667 LINE",
"87 667 LINE",
"87 0 LINE"
);
},
{
closed = 1;
nodes = (
"147 724 LINE",
"230 839 LINE",
"156 839 LINE",
"99 724 LINE"
);
}
);
width = 245;
},
{
components = (
{
name = I;
},
{
name = acutecomb.case;
transform = "{1, 0, 0, 1, 47, 168}";
}
);
layerId = "ECACF70C-BE42-4FA5-B3A0-AFDA71FB1D31";
width = 331;
}
);
leftKerningGroup = B;
rightKerningGroup = H;
unicode = 00CD;
},
{
glyphname = Ibreve;
lastChange = "2016-08-15 14:10:26 +0000";
layers = (
{
layerId = UUID0;
paths = (
{
closed = 1;
nodes = (
"159 0 LINE",
"159 667 LINE",
"87 667 LINE",
"87 0 LINE"
);
},
{
closed = 1;
nodes = (
"189 705 OFFCURVE",
"228 744 OFFCURVE",
"228 809 CURVE",
"180 809 LINE",
"180 770 OFFCURVE",
"163 753 OFFCURVE",
"123 753 CURVE SMOOTH",
"83 753 OFFCURVE",
"66 770 OFFCURVE",
"66 809 CURVE",
"18 809 LINE",
"18 744 OFFCURVE",
"57 705 OFFCURVE",
"123 705 CURVE SMOOTH"
);
}
);
width = 245;
},
{
components = (
{
name = I;
},
{
name = brevecomb.case;
transform = "{1, 0, 0, 1, -65, 168}";
}
);
layerId = "ECACF70C-BE42-4FA5-B3A0-AFDA71FB1D31";
width = 331;
}
);
leftKerningGroup = B;
rightKerningGroup = H;
unicode = 012C;
},
{
glyphname = Icircumflex;
lastChange = "2016-08-15 14:10:26 +0000";
layers = (
{
layerId = UUID0;
paths = (
{
closed = 1;
nodes = (
"159 0 LINE",
"159 667 LINE",
"87 667 LINE",
"87 0 LINE"
);
},
{
closed = 1;
nodes = (
"78 724 LINE",
"123 795 LINE",
"168 724 LINE",
"224 724 LINE",
"144 845 LINE",
"102 845 LINE",
"22 724 LINE"
);
}
);
width = 245;
},
{
components = (
{
name = I;
},
{
name = circumflexcomb.case;
transform = "{1, 0, 0, 1, -55, 73}";
}
);
layerId = "ECACF70C-BE42-4FA5-B3A0-AFDA71FB1D31";
width = 331;
}
);
leftKerningGroup = B;
rightKerningGroup = H;
unicode = 00CE;
},
{
glyphname = Idieresis;
lastChange = "2016-08-15 14:09:09 +0000";
layers = (
{
layerId = UUID0;
paths = (
{
closed = 1;
nodes = (
"159 0 LINE",
"159 667 LINE",
"87 667 LINE",
"87 0 LINE"
);
},
{
closed = 1;
nodes = (
"89 724 LINE",
"89 804 LINE",
"9 804 LINE",
"9 724 LINE"
);
},
{
closed = 1;
nodes = (
"237 724 LINE",
"237 804 LINE",
"157 804 LINE",
"157 724 LINE"
);
}
);
width = 245;
},
{
components = (
{
name = I;
},
{
name = dieresiscomb.case;
transform = "{1, 0, 0, 1, -58, 168}";
}
);
layerId = "ECACF70C-BE42-4FA5-B3A0-AFDA71FB1D31";
width = 331;
}
);
leftKerningGroup = B;
rightKerningGroup = H;
unicode = 00CF;
},
{
glyphname = Idotaccent;
lastChange = "2016-08-15 14:09:09 +0000";
layers = (
{
layerId = UUID0;
paths = (
{
closed = 1;
nodes = (
"159 0 LINE",
"159 667 LINE",
"87 667 LINE",
"87 0 LINE"
);
},
{
closed = 1;
nodes = (
"163 724 LINE",
"163 804 LINE",
"83 804 LINE",
"83 724 LINE"
);
}
);
width = 245;
},
{
components = (
{
name = I;
},
{
name = dotaccentcomb.case;
transform = "{1, 0, 0, 1, -18, 168}";
}
);
layerId = "ECACF70C-BE42-4FA5-B3A0-AFDA71FB1D31";
width = 331;
}
);
leftKerningGroup = B;
rightKerningGroup = H;
unicode = 0130;
},
{
glyphname = Idotbelow;
lastChange = "2016-08-15 14:09:09 +0000";
layers = (
{
layerId = UUID0;
paths = (
{
closed = 1;
nodes = (
"159 0 LINE",
"159 667 LINE",
"87 667 LINE",
"87 0 LINE"
);
},
{
closed = 1;
nodes = (
"162 -129 LINE",
"162 -50 LINE",
"83 -50 LINE",
"83 -129 LINE"
);
}
);
width = 245;
},
{
components = (
{
name = I;
},
{
name = dotbelowcomb.case;
transform = "{1, 0, 0, 1, 46, 0}";
}
);
layerId = "ECACF70C-BE42-4FA5-B3A0-AFDA71FB1D31";
width = 331;
}
);
leftKerningGroup = B;
rightKerningGroup = H;
unicode = 1ECA;
},
{
glyphname = Igrave;
lastChange = "2016-08-15 14:09:39 +0000";
layers = (
{
layerId = UUID0;
paths = (
{
closed = 1;
nodes = (
"159 0 LINE",
"159 667 LINE",
"87 667 LINE",
"87 0 LINE"
);
},
{
closed = 1;
nodes = (
"147 724 LINE",
"90 839 LINE",
"16 839 LINE",
"99 724 LINE"
);
}
);
width = 245;
},
{
components = (
{
name = I;
},
{
name = gravecomb.case;
transform = "{1, 0, 0, 1, 21, 168}";
}
);
layerId = "ECACF70C-BE42-4FA5-B3A0-AFDA71FB1D31";
width = 331;
}
);
leftKerningGroup = B;
rightKerningGroup = H;
unicode = 00CC;
},
{
glyphname = Ihookabove;
lastChange = "2016-08-15 14:12:04 +0000";
layers = (
{
layerId = UUID0;
paths = (
{
closed = 1;
nodes = (
"159 0 LINE",
"159 667 LINE",
"87 667 LINE",
"87 0 LINE"
);
},
{
closed = 1;
nodes = (
"139 724 LINE",
"139 748 LINE",
"175 754 OFFCURVE",
"191 776 OFFCURVE",
"191 802 CURVE SMOOTH",
"191 855 OFFCURVE",
"141 870 OFFCURVE",
"99 870 CURVE SMOOTH",
"88 870 OFFCURVE",
"78 868 OFFCURVE",
"69 867 CURVE",
"69 823 LINE",
"76 825 OFFCURVE",
"85 826 OFFCURVE",
"95 826 CURVE SMOOTH",
"125 826 OFFCURVE",
"143 816 OFFCURVE",
"143 799 CURVE SMOOTH",
"143 790 OFFCURVE",
"134 777 OFFCURVE",
"106 776 CURVE",
"106 724 LINE"
);
}
);
width = 245;
},
{
components = (
{
name = I;
},
{
name = hookabovecomb.case;
transform = "{1, 0, 0, 1, 35, 171}";
}
);
layerId = "ECACF70C-BE42-4FA5-B3A0-AFDA71FB1D31";
width = 331;
}
);
leftKerningGroup = B;
rightKerningGroup = H;
unicode = 1EC8;
},
{
glyphname = Imacron;
lastChange = "2016-08-15 14:10:26 +0000";
layers = (
{
layerId = UUID0;
paths = (
{
closed = 1;
nodes = (
"159 0 LINE",
"159 667 LINE",
"87 667 LINE",
"87 0 LINE"
);
},
{
closed = 1;
nodes = (
"240 736 LINE",
"240 789 LINE",
"6 789 LINE",
"6 736 LINE"
);
}
);
width = 245;
},
{
components = (
{
name = I;
},
{
name = macroncomb.case;
transform = "{1, 0, 0, 1, -47, 168}";
}
);
layerId = "ECACF70C-BE42-4FA5-B3A0-AFDA71FB1D31";
width = 331;
}
);
leftKerningGroup = B;
rightKerningGroup = H;
unicode = 012A;
},
{
glyphname = Iogonek;
lastChange = "2016-08-15 14:10:26 +0000";
layers = (
{
layerId = UUID0;
paths = (
{
closed = 1;
nodes = (
"134 -173 OFFCURVE",
"171 -138 OFFCURVE",
"181 -98 CURVE",
"149 -98 LINE",
"140 -111 OFFCURVE",
"125 -129 OFFCURVE",
"106 -129 CURVE SMOOTH",
"92 -129 OFFCURVE",
"80 -120 OFFCURVE",
"80 -93 CURVE SMOOTH",
"80 -47 OFFCURVE",
"159 1 OFFCURVE",
"159 1 CURVE",
"159 667 LINE",
"87 667 LINE",
"87 1 LINE",
"87 1 OFFCURVE",
"12 -47 OFFCURVE",
"12 -108 CURVE SMOOTH",
"12 -168 OFFCURVE",
"52 -173 OFFCURVE",
"77 -173 CURVE SMOOTH"
);
}
);
width = 245;
},
{
components = (
{
name = I;
},
{
name = ogonekcomb.case;
transform = "{1, 0, 0, 1, -22, 0}";
}
);
layerId = "ECACF70C-BE42-4FA5-B3A0-AFDA71FB1D31";
width = 331;
}
);
leftKerningGroup = B;
rightKerningGroup = H;
unicode = 012E;
},
{
glyphname = Itilde;
lastChange = "2016-08-15 14:10:26 +0000";
layers = (
{
layerId = UUID0;
paths = (
{
closed = 1;
nodes = (
"159 0 LINE",
"159 667 LINE",
"87 667 LINE",
"87 0 LINE"
);
},
{
closed = 1;
nodes = (
"76 843 OFFCURVE",
"169 627 OFFCURVE",
"264 745 CURVE",
"264 800 LINE",
"169 683 OFFCURVE",
"76 899 OFFCURVE",
"-18 782 CURVE",
"-18 725 LINE"
);
}
);
width = 245;
},
{
components = (
{
name = I;
},
{
name = tildecomb.case;
transform = "{1, 0, 0, 1, -101, 168}";
}
);
layerId = "ECACF70C-BE42-4FA5-B3A0-AFDA71FB1D31";
width = 331;
}
);
leftKerningGroup = B;
rightKerningGroup = H;
unicode = 0128;
},
{
glyphname = J;
lastChange = "2016-08-16 14:29:15 +0000";
layers = (
{
layerId = UUID0;
paths = (
{
closed = 1;
nodes = (
"264 -8 OFFCURVE",
"368 28 OFFCURVE",
"368 199 CURVE SMOOTH",
"368 667 LINE",
"296 667 LINE",
"296 205 LINE SMOOTH",
"296 103 OFFCURVE",
"259 62 OFFCURVE",
"168 62 CURVE SMOOTH",
"118 62 OFFCURVE",
"78 79 OFFCURVE",
"45 102 CURVE",
"45 27 LINE",
"81 6 OFFCURVE",
"125 -8 OFFCURVE",
"177 -8 CURVE SMOOTH"
);
}
);
width = 453;
},
{
layerId = "ECACF70C-BE42-4FA5-B3A0-AFDA71FB1D31";
paths = (
{
closed = 1;
nodes = (
"310 -25 OFFCURVE",
"424 29 OFFCURVE",
"424 194 CURVE",
"424 667 LINE",
"223 667 LINE",
"223 202 LINE",
"223 151 OFFCURVE",
"189 130 OFFCURVE",
"146 130 CURVE SMOOTH",
"113 130 OFFCURVE",
"79 157 OFFCURVE",
"30 202 CURVE",
"30 23 LINE",
"79 -8 OFFCURVE",
"136 -25 OFFCURVE",
"198 -25 CURVE SMOOTH"
);
}
);
width = 489;
}
);
leftKerningGroup = J;
rightKerningGroup = J;
rightMetricsKey = H;
unicode = 004A;
},
{
glyphname = Jcircumflex;
lastChange = "2016-08-05 09:29:49 +0000";
layers = (
{
layerId = UUID0;
paths = (
{
closed = 1;
nodes = (
"248 -8 OFFCURVE",
"352 28 OFFCURVE",
"352 199 CURVE SMOOTH",
"352 667 LINE",
"280 667 LINE",
"280 205 LINE SMOOTH",
"280 103 OFFCURVE",
"243 62 OFFCURVE",
"152 62 CURVE SMOOTH",
"102 62 OFFCURVE",
"62 79 OFFCURVE",
"29 102 CURVE",
"29 27 LINE",
"65 6 OFFCURVE",
"109 -8 OFFCURVE",
"161 -8 CURVE SMOOTH"
);
},
{
closed = 1;
nodes = (
"271 724 LINE",
"316 795 LINE",
"361 724 LINE",
"417 724 LINE",
"337 845 LINE",
"295 845 LINE",
"215 724 LINE"
);
}
);
width = 447;
},
{
layerId = "ECACF70C-BE42-4FA5-B3A0-AFDA71FB1D31";
paths = (
{
closed = 1;
nodes = (
"281 -7 OFFCURVE",
"423 24 OFFCURVE",
"423 233 CURVE SMOOTH",
"423 667 LINE",
"251 667 LINE",
"251 222 LINE SMOOTH",
"251 164 OFFCURVE",
"215 141 OFFCURVE",
"172 141 CURVE SMOOTH",
"126 141 OFFCURVE",
"78 159 OFFCURVE",
"29 204 CURVE",
"29 45 LINE",
"78 14 OFFCURVE",
"135 -7 OFFCURVE",
"197 -7 CURVE SMOOTH"
);
},
{
closed = 1;
nodes = (
"296 725 LINE",
"338 769 LINE",
"380 725 LINE",
"482 725 LINE",
"362 847 LINE",
"314 847 LINE",
"194 725 LINE"
);
}
);
width = 518;
}
);
leftKerningGroup = J;
rightKerningGroup = J;
unicode = 0134;
},
{
glyphname = K;
lastChange = "2016-08-16 14:29:34 +0000";
layers = (
{
anchors = (
{
name = bottom;
position = "{317, 0}";
},
{
name = top;
position = "{317, 667}";
}
);
layerId = UUID0;
paths = (
{
closed = 1;
nodes = (
"565 667 LINE",
"473 667 LINE",
"149 307 LINE",
"149 213 LINE"
);
},
{
closed = 1;
nodes = (
"157 0 LINE",
"157 667 LINE",
"85 667 LINE",
"85 0 LINE"
);
},
{
closed = 1;
nodes = (
"207 327 LINE",
"488 0 LINE",
"588 0 LINE",
"261 376 LINE"
);
}
);
width = 613;
},
{
anchors = (
{
name = bottom;
position = "{364, 0}";
},
{
name = top;
position = "{364, 667}";
}
);
layerId = "ECACF70C-BE42-4FA5-B3A0-AFDA71FB1D31";
paths = (
{
closed = 1;
nodes = (
"674 667 LINE",
"422 667 LINE",
"181 302 LINE",
"259 195 LINE"
);
},
{
closed = 1;
nodes = (
"266 0 LINE",
"266 667 LINE",
"65 667 LINE",
"65 0 LINE"
);
},
{
closed = 1;
nodes = (
"262 302 LINE",
"446 0 LINE",
"693 0 LINE",
"418 429 LINE"
);
}
);
width = 708;
}
);
leftKerningGroup = B;
leftMetricsKey = H;
rightKerningGroup = K;
unicode = 004B;
},
{
glyphname = Kcommaaccent;
lastChange = "2016-08-15 16:25:49 +0000";
layers = (
{
layerId = UUID0;
paths = (
{
closed = 1;
nodes = (
"159 0 LINE",
"159 224 LINE",
"233 304 LINE",
"493 0 LINE",
"588 0 LINE",
"279 355 LINE",
"565 667 LINE",
"468 667 LINE",
"159 323 LINE",
"159 667 LINE",
"87 667 LINE",
"87 0 LINE"
);
},
{
closed = 1;
nodes = (
"287 -183 OFFCURVE",
"343 -145 OFFCURVE",
"343 -49 CURVE",
"284 -49 LINE",
"284 -78 OFFCURVE",
"280 -124 OFFCURVE",
"243 -139 CURVE",
"243 -193 LINE"
);
}
);
width = 632;
},
{
components = (
{
name = K;
},
{
name = commaaccentcomb.case;
transform = "{1, 0, 0, 1, 214, 0}";
}
);
layerId = "ECACF70C-BE42-4FA5-B3A0-AFDA71FB1D31";
width = 728;
}
);
leftKerningGroup = B;
rightKerningGroup = K;
unicode = 0136;
},
{
glyphname = L;
lastChange = "2016-08-16 14:27:41 +0000";
layers = (
{
layerId = UUID0;
paths = (
{
closed = 1;
nodes = (
"498 0 LINE",
"498 70 LINE",
"157 70 LINE",
"157 667 LINE",
"85 667 LINE",
"85 0 LINE"
);
}
);
width = 538;
},
{
background = {
paths = (
{
closed = 1;
nodes = (
"266 0 LINE",
"266 667 LINE",
"65 667 LINE",
"65 0 LINE"
);
}
);
};
layerId = "ECACF70C-BE42-4FA5-B3A0-AFDA71FB1D31";
paths = (
{
closed = 1;
nodes = (
"533 0 LINE",
"533 151 LINE",
"266 151 LINE",
"266 667 LINE",
"65 667 LINE",
"65 0 LINE"
);
}
);
width = 568;
}
);
leftKerningGroup = B;
leftMetricsKey = H;
rightKerningGroup = L;
unicode = 004C;
},
{
glyphname = Lacute;
lastChange = "2016-08-15 16:25:36 +0000";
layers = (
{
layerId = UUID0;
paths = (
{
closed = 1;
nodes = (
"500 0 LINE",
"500 70 LINE",
"159 70 LINE",
"159 667 LINE",
"87 667 LINE",
"87 0 LINE"
);
},
{
closed = 1;
nodes = (
"150 724 LINE",
"233 839 LINE",
"159 839 LINE",
"102 724 LINE"
);
}
);
width = 521;
},
{
components = (
{
name = L;
},
{
name = acutecomb.case;
}
);
layerId = "ECACF70C-BE42-4FA5-B3A0-AFDA71FB1D31";
width = 576;
}
);
leftKerningGroup = B;
rightKerningGroup = L;
unicode = 0139;
},
{
glyphname = Lcaron;
lastChange = "2016-08-05 09:29:49 +0000";
layers = (
{
layerId = UUID0;
paths = (
{
closed = 1;
nodes = (
"500 0 LINE",
"500 70 LINE",
"159 70 LINE",
"159 667 LINE",
"87 667 LINE",
"87 0 LINE"
);
},
{
closed = 1;
nodes = (
"266 533 OFFCURVE",
"322 571 OFFCURVE",
"322 667 CURVE",
"263 667 LINE",
"263 638 OFFCURVE",
"259 592 OFFCURVE",
"222 577 CURVE",
"222 523 LINE"
);
}
);
width = 521;
},
{
layerId = "ECACF70C-BE42-4FA5-B3A0-AFDA71FB1D31";
paths = (
{
closed = 1;
nodes = (
"555 0 LINE",
"555 155 LINE",
"259 155 LINE",
"259 667 LINE",
"87 667 LINE",
"87 0 LINE"
);
},
{
closed = 1;
nodes = (
"389 524 OFFCURVE",
"447 588 OFFCURVE",
"445 668 CURVE",
"350 668 LINE",
"351 621 OFFCURVE",
"342 594 OFFCURVE",
"312 589 CURVE",
"312 524 LINE"
);
}
);
width = 576;
}
);
leftKerningGroup = B;
unicode = 013D;
},
{
glyphname = Lcommaaccent;
lastChange = "2016-08-15 16:25:36 +0000";
layers = (
{
layerId = UUID0;
paths = (
{
closed = 1;
nodes = (
"500 0 LINE",
"500 70 LINE",
"159 70 LINE",
"159 667 LINE",
"87 667 LINE",
"87 0 LINE"
);
},
{
closed = 1;
nodes = (
"275 -183 OFFCURVE",
"331 -145 OFFCURVE",
"331 -49 CURVE",
"271 -49 LINE",
"271 -78 OFFCURVE",
"268 -124 OFFCURVE",
"231 -139 CURVE",
"231 -193 LINE"
);
}
);
width = 521;
},
{
components = (
{
name = L;
},
{
name = commaaccentcomb.case;
}
);
layerId = "ECACF70C-BE42-4FA5-B3A0-AFDA71FB1D31";
width = 576;
}
);
leftKerningGroup = B;
rightKerningGroup = L;
unicode = 013B;
},
{
glyphname = Ldot;
lastChange = "2016-08-15 16:25:36 +0000";
layers = (
{
layerId = UUID0;
paths = (
{
closed = 1;
nodes = (
"500 0 LINE",
"500 70 LINE",
"159 70 LINE",
"159 667 LINE",
"87 667 LINE",
"87 0 LINE"
);
},
{
closed = 1;
nodes = (
"432 294 LINE",
"432 374 LINE",
"353 374 LINE",
"353 294 LINE"
);
}
);
width = 521;
},
{
components = (
{
name = L;
},
{
name = periodcentered;
}
);
layerId = "ECACF70C-BE42-4FA5-B3A0-AFDA71FB1D31";
width = 576;
}
);
leftKerningGroup = B;
unicode = 013F;
},
{
glyphname = Lslash;
lastChange = "2016-08-05 09:29:49 +0000";
layers = (
{
layerId = UUID0;
paths = (
{
closed = 1;
nodes = (
"500 0 LINE",
"500 70 LINE",
"159 70 LINE",
"159 349 LINE",
"293 440 LINE",
"293 504 LINE",
"159 413 LINE",
"159 667 LINE",
"87 667 LINE",
"87 365 LINE",
"13 315 LINE",
"13 251 LINE",
"87 301 LINE",
"87 0 LINE"
);
}
);
width = 521;
},
{
layerId = "ECACF70C-BE42-4FA5-B3A0-AFDA71FB1D31";
paths = (
{
closed = 1;
nodes = (
"556 0 LINE",
"556 155 LINE",
"260 155 LINE",
"260 302 LINE",
"405 382 LINE",
"405 504 LINE",
"260 424 LINE",
"260 667 LINE",
"88 667 LINE",
"88 330 LINE",
"4 284 LINE",
"4 162 LINE",
"88 208 LINE",
"88 0 LINE"
);
}
);
width = 576;
}
);
unicode = 0141;
},
{
glyphname = M;
lastChange = "2016-08-16 14:28:14 +0000";
layers = (
{
layerId = UUID0;
paths = (
{
closed = 1;
nodes = (
"157 0 LINE",
"157 624 LINE",
"131 587 LINE",
"385 209 LINE",
"660 595 LINE",
"628 595 LINE",
"628 0 LINE",
"700 0 LINE",
"700 667 LINE",
"622 667 LINE",
"361 277 LINE",
"410 288 LINE",
"163 667 LINE",
"85 667 LINE",
"85 0 LINE"
);
}
);
width = 785;
},
{
layerId = "ECACF70C-BE42-4FA5-B3A0-AFDA71FB1D31";
paths = (
{
closed = 1;
nodes = (
"255 0 LINE",
"255 459 LINE",
"217 440 LINE",
"431 182 LINE",
"638 430 LINE",
"607 503 LINE",
"607 0 LINE",
"807 0 LINE",
"807 667 LINE",
"601 667 LINE",
"374 374 LINE",
"498 374 LINE",
"277 667 LINE",
"65 667 LINE",
"65 0 LINE"
);
}
);
width = 872;
}
);
leftMetricsKey = H;
rightMetricsKey = H;
unicode = 004D;
},
{
glyphname = N;
lastChange = "2016-08-15 13:46:22 +0000";
layers = (
{
anchors = (
{
name = bottom;
position = "{362, 0}";
},
{
name = top;
position = "{362, 667}";
}
);
layerId = UUID0;
paths = (
{
closed = 1;
nodes = (
"157 0 LINE",
"157 640 LINE",
"124 609 LINE",
"556 0 LINE",
"637 0 LINE",
"637 667 LINE",
"565 667 LINE",
"565 52 LINE",
"583 80 LINE",
"167 667 LINE",
"85 667 LINE",
"85 0 LINE"
);
}
);
width = 722;
},
{
anchors = (
{
name = bottom;
position = "{363, 0}";
},
{
name = top;
position = "{363, 667}";
}
);
layerId = "ECACF70C-BE42-4FA5-B3A0-AFDA71FB1D31";
paths = (
{
closed = 1;
nodes = (
"247 0 LINE",
"247 482 LINE",
"207 391 LINE",
"520 0 LINE",
"660 0 LINE",
"660 667 LINE",
"478 667 LINE",
"478 127 LINE",
"539 259 LINE",
"227 667 LINE",
"65 667 LINE",
"65 0 LINE"
);
}
);
width = 725;
}
);
leftKerningGroup = B;
leftMetricsKey = H;
rightKerningGroup = H;
rightMetricsKey = H;
unicode = 004E;
},
{
glyphname = Nacute;
lastChange = "2016-08-15 14:10:26 +0000";
layers = (
{
layerId = UUID0;
paths = (
{
closed = 1;
nodes = (
"159 0 LINE",
"159 562 LINE",
"558 0 LINE",
"639 0 LINE",
"639 667 LINE",
"567 667 LINE",
"567 105 LINE",
"169 667 LINE",
"87 667 LINE",
"87 0 LINE"
);
},
{
closed = 1;
nodes = (
"389 724 LINE",
"472 839 LINE",
"398 839 LINE",
"341 724 LINE"
);
}
);
width = 728;
},
{
components = (
{
name = N;
},
{
name = acutecomb.case;
transform = "{1, 0, 0, 1, 254, 168}";
}
);
layerId = "ECACF70C-BE42-4FA5-B3A0-AFDA71FB1D31";
width = 725;
}
);
leftKerningGroup = B;
rightKerningGroup = H;
unicode = 0143;
},
{
glyphname = Ncaron;
lastChange = "2016-08-15 14:10:26 +0000";
layers = (
{
layerId = UUID0;
paths = (
{
closed = 1;
nodes = (
"159 0 LINE",
"159 562 LINE",
"558 0 LINE",
"639 0 LINE",
"639 667 LINE",
"567 667 LINE",
"567 105 LINE",
"169 667 LINE",
"87 667 LINE",
"87 0 LINE"
);
},
{
closed = 1;
nodes = (
"393 724 LINE",
"473 845 LINE",
"417 845 LINE",
"372 774 LINE",
"327 845 LINE",
"271 845 LINE",
"351 724 LINE"
);
}
);
width = 728;
},
{
components = (
{
name = N;
},
{
name = caroncomb.case;
transform = "{1, 0, 0, 1, 147, 168}";
}
);
layerId = "ECACF70C-BE42-4FA5-B3A0-AFDA71FB1D31";
width = 725;
}
);
leftKerningGroup = B;
rightKerningGroup = H;
unicode = 0147;
},
{
glyphname = Ncommaaccent;
lastChange = "2016-08-15 14:09:20 +0000";
layers = (
{
layerId = UUID0;
paths = (
{
closed = 1;
nodes = (
"159 0 LINE",
"159 562 LINE",
"558 0 LINE",
"639 0 LINE",
"639 667 LINE",
"567 667 LINE",
"567 105 LINE",
"169 667 LINE",
"87 667 LINE",
"87 0 LINE"
);
},
{
closed = 1;
nodes = (
"331 -183 OFFCURVE",
"387 -145 OFFCURVE",
"387 -49 CURVE",
"328 -49 LINE",
"328 -78 OFFCURVE",
"324 -124 OFFCURVE",
"287 -139 CURVE",
"287 -193 LINE"
);
}
);
width = 728;
},
{
components = (
{
name = N;
},
{
name = commaaccentcomb.case;
transform = "{1, 0, 0, 1, 213, 0}";
}
);
layerId = "ECACF70C-BE42-4FA5-B3A0-AFDA71FB1D31";
width = 725;
}
);
leftKerningGroup = B;
rightKerningGroup = H;
unicode = 0145;
},
{
glyphname = Eng;
lastChange = "2016-08-05 09:29:49 +0000";
layers = (
{
layerId = UUID0;
paths = (
{
closed = 1;
nodes = (
"581 -172 OFFCURVE",
"638 -119 OFFCURVE",
"638 -9 CURVE SMOOTH",
"638 667 LINE",
"566 667 LINE",
"566 105 LINE",
"169 667 LINE",
"87 667 LINE",
"87 0 LINE",
"159 0 LINE",
"159 562 LINE",
"566 -12 LINE",
"565 -72 OFFCURVE",
"548 -104 OFFCURVE",
"464 -105 CURVE",
"464 -172 LINE"
);
}
);
width = 728;
},
{
layerId = "ECACF70C-BE42-4FA5-B3A0-AFDA71FB1D31";
paths = (
{
closed = 1;
nodes = (
"584 -193 OFFCURVE",
"698 -154 OFFCURVE",
"702 0 CURVE SMOOTH",
"702 667 LINE",
"530 667 LINE",
"530 267 LINE",
"259 667 LINE",
"87 667 LINE",
"87 0 LINE",
"259 0 LINE",
"259 397 LINE",
"530 3 LINE",
"530 -8 LINE SMOOTH",
"530 -61 OFFCURVE",
"485 -69 OFFCURVE",
"448 -69 CURVE",
"448 -193 LINE"
);
}
);
width = 791;
}
);
leftKerningGroup = B;
rightKerningGroup = H;
unicode = 014A;
},
{
glyphname = Ntilde;
lastChange = "2016-08-15 14:10:26 +0000";
layers = (
{
layerId = UUID0;
paths = (
{
closed = 1;
nodes = (
"159 0 LINE",
"159 562 LINE",
"558 0 LINE",
"639 0 LINE",
"639 667 LINE",
"567 667 LINE",
"567 105 LINE",
"169 667 LINE",
"87 667 LINE",
"87 0 LINE"
);
},
{
closed = 1;
nodes = (
"316 843 OFFCURVE",
"409 627 OFFCURVE",
"504 745 CURVE",
"504 800 LINE",
"409 683 OFFCURVE",
"316 899 OFFCURVE",
"222 782 CURVE",
"222 725 LINE"
);
}
);
width = 728;
},
{
components = (
{
name = N;
},
{
name = tildecomb.case;
transform = "{1, 0, 0, 1, 106, 168}";
}
);
layerId = "ECACF70C-BE42-4FA5-B3A0-AFDA71FB1D31";
width = 725;
}
);
leftKerningGroup = B;
rightKerningGroup = H;
unicode = 00D1;
},
{
glyphname = O;
lastChange = "2016-08-16 14:16:07 +0000";
layers = (
{
anchors = (
{
name = bottom;
position = "{367, 0}";
},
{
name = center;
position = "{367, 334}";
},
{
name = ogonek;
position = "{665, 10}";
},
{
name = top;
position = "{367, 667}";
},
{
name = topleft;
position = "{13, 667}";
},
{
name = topright;
position = "{720, 667}";
}
);
layerId = UUID0;
paths = (
{
closed = 1;
nodes = (
"558 -10 OFFCURVE",
"659 106 OFFCURVE",
"659 333 CURVE",
"659 560 OFFCURVE",
"558 676 OFFCURVE",
"359 676 CURVE",
"161 676 OFFCURVE",
"60 560 OFFCURVE",
"60 333 CURVE",
"60 106 OFFCURVE",
"161 -10 OFFCURVE",
"359 -10 CURVE"
);
},
{
closed = 1;
nodes = (
"202 58 OFFCURVE",
"134 143 OFFCURVE",
"134 333 CURVE",
"134 522 OFFCURVE",
"202 608 OFFCURVE",
"359 608 CURVE",
"517 608 OFFCURVE",
"585 522 OFFCURVE",
"585 333 CURVE",
"585 143 OFFCURVE",
"517 58 OFFCURVE",
"359 58 CURVE"
);
}
);
width = 719;
},
{
anchors = (
{
name = bottom;
position = "{372, 0}";
},
{
name = center;
position = "{372, 334}";
},
{
name = ogonek;
position = "{670, 10}";
},
{
name = top;
position = "{372, 667}";
},
{
name = topleft;
position = "{20, 667}";
},
{
name = topright;
position = "{540, 618}";
}
);
layerId = "ECACF70C-BE42-4FA5-B3A0-AFDA71FB1D31";
paths = (
{
closed = 1;
nodes = (
"602 -25 OFFCURVE",
"709 95 OFFCURVE",
"709 334 CURVE",
"709 585 OFFCURVE",
"590 692 OFFCURVE",
"372 692 CURVE",
"142 692 OFFCURVE",
"35 572 OFFCURVE",
"35 333 CURVE",
"35 82 OFFCURVE",
"154 -25 OFFCURVE",
"372 -25 CURVE"
);
},
{
closed = 1;
nodes = (
"294 125 OFFCURVE",
"242 168 OFFCURVE",
"242 332 CURVE",
"242 497 OFFCURVE",
"294 542 OFFCURVE",
"372 542 CURVE",
"450 542 OFFCURVE",
"502 499 OFFCURVE",
"502 335 CURVE",
"502 170 OFFCURVE",
"450 125 OFFCURVE",
"372 125 CURVE"
);
}
);
width = 744;
}
);
leftKerningGroup = C;
rightKerningGroup = O;
unicode = 004F;
},
{
glyphname = Oacute;
lastChange = "2016-08-15 13:35:42 +0000";
layers = (
{
layerId = UUID0;
paths = (
{
closed = 1;
nodes = (
"575 -8 OFFCURVE",
"679 107 OFFCURVE",
"679 334 CURVE SMOOTH",
"679 561 OFFCURVE",
"575 676 OFFCURVE",
"370 676 CURVE SMOOTH",
"165 676 OFFCURVE",
"61 561 OFFCURVE",
"61 334 CURVE SMOOTH",
"61 107 OFFCURVE",
"165 -8 OFFCURVE",
"370 -8 CURVE SMOOTH"
);
},
{
closed = 1;
nodes = (
"206 60 OFFCURVE",
"133 144 OFFCURVE",
"133 334 CURVE SMOOTH",
"133 523 OFFCURVE",
"206 608 OFFCURVE",
"370 608 CURVE SMOOTH",
"534 608 OFFCURVE",
"607 523 OFFCURVE",
"607 334 CURVE SMOOTH",
"607 144 OFFCURVE",
"534 60 OFFCURVE",
"370 60 CURVE SMOOTH"
);
},
{
closed = 1;
nodes = (
"382 724 LINE",
"465 839 LINE",
"391 839 LINE",
"335 724 LINE"
);
}
);
width = 747;
},
{
components = (
{
name = O;
},
{
name = acutecomb.case;
transform = "{1, 0, 0, 1, 263, 168}";
}
);
layerId = "ECACF70C-BE42-4FA5-B3A0-AFDA71FB1D31";
width = 744;
}
);
leftKerningGroup = C;
rightKerningGroup = O;
unicode = 00D3;
},
{
glyphname = Obreve;
lastChange = "2016-08-15 13:35:42 +0000";
layers = (
{
layerId = UUID0;
paths = (
{
closed = 1;
nodes = (
"575 -8 OFFCURVE",
"679 107 OFFCURVE",
"679 334 CURVE SMOOTH",
"679 561 OFFCURVE",
"575 676 OFFCURVE",
"370 676 CURVE SMOOTH",
"165 676 OFFCURVE",
"61 561 OFFCURVE",
"61 334 CURVE SMOOTH",
"61 107 OFFCURVE",
"165 -8 OFFCURVE",
"370 -8 CURVE SMOOTH"
);
},
{
closed = 1;
nodes = (
"206 59 OFFCURVE",
"133 144 OFFCURVE",
"133 334 CURVE SMOOTH",
"133 523 OFFCURVE",
"206 608 OFFCURVE",
"370 608 CURVE SMOOTH",
"534 608 OFFCURVE",
"607 523 OFFCURVE",
"607 334 CURVE SMOOTH",
"607 144 OFFCURVE",
"534 59 OFFCURVE",
"370 59 CURVE SMOOTH"
);
},
{
closed = 1;
nodes = (
"436 705 OFFCURVE",
"475 744 OFFCURVE",
"475 809 CURVE",
"427 809 LINE",
"427 770 OFFCURVE",
"410 753 OFFCURVE",
"370 753 CURVE SMOOTH",
"330 753 OFFCURVE",
"313 770 OFFCURVE",
"313 809 CURVE",
"265 809 LINE",
"265 744 OFFCURVE",
"304 705 OFFCURVE",
"370 705 CURVE SMOOTH"
);
}
);
width = 747;
},
{
components = (
{
name = O;
},
{
name = brevecomb.case;
transform = "{1, 0, 0, 1, 151, 168}";
}
);
layerId = "ECACF70C-BE42-4FA5-B3A0-AFDA71FB1D31";
width = 744;
}
);
leftKerningGroup = C;
rightKerningGroup = O;
unicode = 014E;
},
{
glyphname = Ocircumflex;
lastChange = "2016-08-15 13:35:42 +0000";
layers = (
{
layerId = UUID0;
paths = (
{
closed = 1;
nodes = (
"575 -8 OFFCURVE",
"679 107 OFFCURVE",
"679 334 CURVE SMOOTH",
"679 561 OFFCURVE",
"575 676 OFFCURVE",
"370 676 CURVE SMOOTH",
"165 676 OFFCURVE",
"61 561 OFFCURVE",
"61 334 CURVE SMOOTH",
"61 107 OFFCURVE",
"165 -8 OFFCURVE",
"370 -8 CURVE SMOOTH"
);
},
{
closed = 1;
nodes = (
"206 60 OFFCURVE",
"133 144 OFFCURVE",
"133 334 CURVE SMOOTH",
"133 523 OFFCURVE",
"206 608 OFFCURVE",
"370 608 CURVE SMOOTH",
"534 608 OFFCURVE",
"607 523 OFFCURVE",
"607 334 CURVE SMOOTH",
"607 144 OFFCURVE",
"534 60 OFFCURVE",
"370 60 CURVE SMOOTH"
);
},
{
closed = 1;
nodes = (
"325 724 LINE",
"370 795 LINE",
"415 724 LINE",
"471 724 LINE",
"391 845 LINE",
"349 845 LINE",
"269 724 LINE"
);
}
);
width = 747;
},
{
components = (
{
name = O;
},
{
name = circumflexcomb.case;
transform = "{1, 0, 0, 1, 161, 73}";
}
);
layerId = "ECACF70C-BE42-4FA5-B3A0-AFDA71FB1D31";
width = 744;
}
);
leftKerningGroup = C;
rightKerningGroup = O;
unicode = 00D4;
},
{
glyphname = Ocircumflexacute;
lastChange = "2016-08-05 09:29:49 +0000";
layers = (
{
layerId = UUID0;
paths = (
{
closed = 1;
nodes = (
"576 -8 OFFCURVE",
"680 107 OFFCURVE",
"680 334 CURVE SMOOTH",
"680 561 OFFCURVE",
"576 676 OFFCURVE",
"370 676 CURVE SMOOTH",
"165 676 OFFCURVE",
"61 561 OFFCURVE",
"61 334 CURVE SMOOTH",
"61 107 OFFCURVE",
"165 -8 OFFCURVE",
"370 -8 CURVE SMOOTH"
);
},
{
closed = 1;
nodes = (
"206 60 OFFCURVE",
"133 144 OFFCURVE",
"133 334 CURVE SMOOTH",
"133 523 OFFCURVE",
"206 608 OFFCURVE",
"370 608 CURVE SMOOTH",
"535 608 OFFCURVE",
"608 523 OFFCURVE",
"608 334 CURVE SMOOTH",
"608 144 OFFCURVE",
"535 60 OFFCURVE",
"370 60 CURVE SMOOTH"
);
},
{
closed = 1;
nodes = (
"325 707 LINE",
"371 777 LINE",
"416 707 LINE",
"472 707 LINE",
"391 827 LINE",
"350 827 LINE",
"269 707 LINE"
);
},
{
closed = 1;
nodes = (
"480 798 LINE",
"563 913 LINE",
"489 913 LINE",
"432 798 LINE"
);
}
);
width = 747;
},
{
layerId = "ECACF70C-BE42-4FA5-B3A0-AFDA71FB1D31";
paths = (
{
closed = 1;
nodes = (
"517 -6 OFFCURVE",
"687 53 OFFCURVE",
"687 334 CURVE SMOOTH",
"687 615 OFFCURVE",
"517 674 OFFCURVE",
"374 674 CURVE SMOOTH",
"231 674 OFFCURVE",
"61 615 OFFCURVE",
"61 334 CURVE SMOOTH",
"61 53 OFFCURVE",
"231 -6 OFFCURVE",
"374 -6 CURVE SMOOTH"
);
},
{
closed = 1;
nodes = (
"301 141 OFFCURVE",
"233 175 OFFCURVE",
"233 334 CURVE SMOOTH",
"233 493 OFFCURVE",
"301 527 OFFCURVE",
"374 527 CURVE SMOOTH",
"447 527 OFFCURVE",
"515 493 OFFCURVE",
"515 334 CURVE SMOOTH",
"515 175 OFFCURVE",
"447 141 OFFCURVE",
"374 141 CURVE SMOOTH"
);
},
{
closed = 1;
nodes = (
"332 704 LINE",
"374 748 LINE",
"416 704 LINE",
"518 704 LINE",
"398 826 LINE",
"350 826 LINE",
"230 704 LINE"
);
},
{
closed = 1;
nodes = (
"545 771 LINE",
"638 888 LINE",
"521 888 LINE",
"459 771 LINE"
);
}
);
width = 751;
}
);
leftKerningGroup = C;
rightKerningGroup = O;
unicode = 1ED0;
},
{
glyphname = Ocircumflexdotbelow;
lastChange = "2016-08-15 13:35:42 +0000";
layers = (
{
layerId = UUID0;
paths = (
{
closed = 1;
nodes = (
"576 -8 OFFCURVE",
"680 107 OFFCURVE",
"680 334 CURVE SMOOTH",
"680 561 OFFCURVE",
"576 676 OFFCURVE",
"370 676 CURVE SMOOTH",
"165 676 OFFCURVE",
"61 561 OFFCURVE",
"61 334 CURVE SMOOTH",
"61 107 OFFCURVE",
"165 -8 OFFCURVE",
"370 -8 CURVE SMOOTH"
);
},
{
closed = 1;
nodes = (
"410 -129 LINE",
"410 -50 LINE",
"331 -50 LINE",
"331 -129 LINE"
);
},
{
closed = 1;
nodes = (
"206 60 OFFCURVE",
"133 144 OFFCURVE",
"133 334 CURVE SMOOTH",
"133 523 OFFCURVE",
"206 608 OFFCURVE",
"370 608 CURVE SMOOTH",
"535 608 OFFCURVE",
"608 523 OFFCURVE",
"608 334 CURVE SMOOTH",
"608 144 OFFCURVE",
"535 60 OFFCURVE",
"370 60 CURVE SMOOTH"
);
},
{
closed = 1;
nodes = (
"325 707 LINE",
"371 777 LINE",
"416 707 LINE",
"472 707 LINE",
"391 827 LINE",
"350 827 LINE",
"269 707 LINE"
);
}
);
width = 747;
},
{
components = (
{
name = O;
},
{
name = dotbelowcomb.case;
transform = "{1, 0, 0, 1, 262, 0}";
},
{
name = circumflexcomb.case;
transform = "{1, 0, 0, 1, 161, 73}";
}
);
layerId = "ECACF70C-BE42-4FA5-B3A0-AFDA71FB1D31";
width = 744;
}
);
leftKerningGroup = C;
rightKerningGroup = O;
unicode = 1ED8;
},
{
glyphname = Ocircumflexgrave;
lastChange = "2016-08-05 09:29:49 +0000";
layers = (
{
layerId = UUID0;
paths = (
{
closed = 1;
nodes = (
"576 -8 OFFCURVE",
"680 107 OFFCURVE",
"680 334 CURVE SMOOTH",
"680 561 OFFCURVE",
"576 676 OFFCURVE",
"370 676 CURVE SMOOTH",
"165 676 OFFCURVE",
"61 561 OFFCURVE",
"61 334 CURVE SMOOTH",
"61 107 OFFCURVE",
"165 -8 OFFCURVE",
"370 -8 CURVE SMOOTH"
);
},
{
closed = 1;
nodes = (
"206 60 OFFCURVE",
"133 144 OFFCURVE",
"133 334 CURVE SMOOTH",
"133 523 OFFCURVE",
"206 608 OFFCURVE",
"370 608 CURVE SMOOTH",
"535 608 OFFCURVE",
"608 523 OFFCURVE",
"608 334 CURVE SMOOTH",
"608 144 OFFCURVE",
"535 60 OFFCURVE",
"370 60 CURVE SMOOTH"
);
},
{
closed = 1;
nodes = (
"309 798 LINE",
"252 913 LINE",
"178 913 LINE",
"261 798 LINE"
);
},
{
closed = 1;
nodes = (
"325 707 LINE",
"370 777 LINE",
"416 707 LINE",
"472 707 LINE",
"391 827 LINE",
"350 827 LINE",
"269 707 LINE"
);
}
);
width = 747;
},
{
layerId = "ECACF70C-BE42-4FA5-B3A0-AFDA71FB1D31";
paths = (
{
closed = 1;
nodes = (
"517 -6 OFFCURVE",
"687 53 OFFCURVE",
"687 334 CURVE SMOOTH",
"687 615 OFFCURVE",
"517 674 OFFCURVE",
"374 674 CURVE SMOOTH",
"231 674 OFFCURVE",
"61 615 OFFCURVE",
"61 334 CURVE SMOOTH",
"61 53 OFFCURVE",
"231 -6 OFFCURVE",
"374 -6 CURVE SMOOTH"
);
},
{
closed = 1;
nodes = (
"301 141 OFFCURVE",
"233 175 OFFCURVE",
"233 334 CURVE SMOOTH",
"233 493 OFFCURVE",
"301 527 OFFCURVE",
"374 527 CURVE SMOOTH",
"447 527 OFFCURVE",
"515 493 OFFCURVE",
"515 334 CURVE SMOOTH",
"515 175 OFFCURVE",
"447 141 OFFCURVE",
"374 141 CURVE SMOOTH"
);
},
{
closed = 1;
nodes = (
"289 770 LINE",
"227 887 LINE",
"110 887 LINE",
"203 770 LINE"
);
},
{
closed = 1;
nodes = (
"332 704 LINE",
"374 748 LINE",
"416 704 LINE",
"518 704 LINE",
"398 826 LINE",
"350 826 LINE",
"230 704 LINE"
);
}
);
width = 751;
}
);
leftKerningGroup = C;
rightKerningGroup = O;
unicode = 1ED2;
},
{
glyphname = Ocircumflexhookabove;
lastChange = "2016-08-05 09:29:49 +0000";
layers = (
{
layerId = UUID0;
paths = (
{
closed = 1;
nodes = (
"576 -8 OFFCURVE",
"680 107 OFFCURVE",
"680 334 CURVE SMOOTH",
"680 561 OFFCURVE",
"576 676 OFFCURVE",
"370 676 CURVE SMOOTH",
"165 676 OFFCURVE",
"61 561 OFFCURVE",
"61 334 CURVE SMOOTH",
"61 107 OFFCURVE",
"165 -8 OFFCURVE",
"370 -8 CURVE SMOOTH"
);
},
{
closed = 1;
nodes = (
"206 60 OFFCURVE",
"133 144 OFFCURVE",
"133 334 CURVE SMOOTH",
"133 523 OFFCURVE",
"206 608 OFFCURVE",
"370 608 CURVE SMOOTH",
"535 608 OFFCURVE",
"608 523 OFFCURVE",
"608 334 CURVE SMOOTH",
"608 144 OFFCURVE",
"535 60 OFFCURVE",
"370 60 CURVE SMOOTH"
);
},
{
closed = 1;
nodes = (
"325 707 LINE",
"371 777 LINE",
"416 707 LINE",
"472 707 LINE",
"391 827 LINE",
"350 827 LINE",
"269 707 LINE"
);
},
{
closed = 1;
nodes = (
"481 786 LINE",
"481 810 LINE",
"517 816 OFFCURVE",
"533 838 OFFCURVE",
"533 864 CURVE SMOOTH",
"533 917 OFFCURVE",
"483 932 OFFCURVE",
"441 932 CURVE SMOOTH",
"430 932 OFFCURVE",
"420 930 OFFCURVE",
"411 929 CURVE",
"411 886 LINE",
"418 887 OFFCURVE",
"427 888 OFFCURVE",
"437 888 CURVE SMOOTH",
"467 888 OFFCURVE",
"485 878 OFFCURVE",
"485 861 CURVE SMOOTH",
"485 852 OFFCURVE",
"476 839 OFFCURVE",
"448 838 CURVE",
"448 786 LINE"
);
}
);
width = 747;
},
{
layerId = "ECACF70C-BE42-4FA5-B3A0-AFDA71FB1D31";
paths = (
{
closed = 1;
nodes = (
"517 -6 OFFCURVE",
"687 53 OFFCURVE",
"687 334 CURVE SMOOTH",
"687 615 OFFCURVE",
"517 674 OFFCURVE",
"374 674 CURVE SMOOTH",
"231 674 OFFCURVE",
"61 615 OFFCURVE",
"61 334 CURVE SMOOTH",
"61 53 OFFCURVE",
"231 -6 OFFCURVE",
"374 -6 CURVE SMOOTH"
);
},
{
closed = 1;
nodes = (
"301 141 OFFCURVE",
"233 175 OFFCURVE",
"233 334 CURVE SMOOTH",
"233 493 OFFCURVE",
"301 527 OFFCURVE",
"374 527 CURVE SMOOTH",
"447 527 OFFCURVE",
"515 493 OFFCURVE",
"515 334 CURVE SMOOTH",
"515 175 OFFCURVE",
"447 141 OFFCURVE",
"374 141 CURVE SMOOTH"
);
},
{
closed = 1;
nodes = (
"332 704 LINE",
"374 748 LINE",
"416 704 LINE",
"518 704 LINE",
"398 826 LINE",
"350 826 LINE",
"230 704 LINE"
);
},
{
closed = 1;
nodes = (
"522 771 LINE",
"522 794 LINE",
"522 794 OFFCURVE",
"571 801 OFFCURVE",
"571 849 CURVE SMOOTH",
"571 897 OFFCURVE",
"529 921 OFFCURVE",
"479 921 CURVE SMOOTH",
"464 921 OFFCURVE",
"438 918 OFFCURVE",
"429 916 CURVE",
"429 863 LINE",
"442 866 OFFCURVE",
"452 867 OFFCURVE",
"460 867 CURVE SMOOTH",
"474 867 OFFCURVE",
"490 863 OFFCURVE",
"490 846 CURVE SMOOTH",
"490 833 OFFCURVE",
"475 830 OFFCURVE",
"464 830 CURVE",
"464 771 LINE"
);
}
);
width = 751;
}
);
leftKerningGroup = C;
rightKerningGroup = O;
unicode = 1ED4;
},
{
glyphname = Ocircumflextilde;
lastChange = "2016-08-05 09:29:49 +0000";
layers = (
{
layerId = UUID0;
paths = (
{
closed = 1;
nodes = (
"576 -8 OFFCURVE",
"680 107 OFFCURVE",
"680 334 CURVE SMOOTH",
"680 561 OFFCURVE",
"576 676 OFFCURVE",
"370 676 CURVE SMOOTH",
"165 676 OFFCURVE",
"61 561 OFFCURVE",
"61 334 CURVE SMOOTH",
"61 107 OFFCURVE",
"165 -8 OFFCURVE",
"370 -8 CURVE SMOOTH"
);
},
{
closed = 1;
nodes = (
"206 60 OFFCURVE",
"133 144 OFFCURVE",
"133 334 CURVE SMOOTH",
"133 523 OFFCURVE",
"206 608 OFFCURVE",
"370 608 CURVE SMOOTH",
"535 608 OFFCURVE",
"608 523 OFFCURVE",
"608 334 CURVE SMOOTH",
"608 144 OFFCURVE",
"535 60 OFFCURVE",
"370 60 CURVE SMOOTH"
);
},
{
closed = 1;
nodes = (
"325 701 LINE",
"371 771 LINE",
"416 701 LINE",
"472 701 LINE",
"391 821 LINE",
"350 821 LINE",
"269 701 LINE"
);
},
{
closed = 1;
nodes = (
"327 970 OFFCURVE",
"421 754 OFFCURVE",
"515 872 CURVE",
"515 927 LINE",
"421 810 OFFCURVE",
"327 1026 OFFCURVE",
"234 909 CURVE",
"234 852 LINE"
);
}
);
width = 747;
},
{
layerId = "ECACF70C-BE42-4FA5-B3A0-AFDA71FB1D31";
paths = (
{
closed = 1;
nodes = (
"517 -6 OFFCURVE",
"687 53 OFFCURVE",
"687 334 CURVE SMOOTH",
"687 615 OFFCURVE",
"517 674 OFFCURVE",
"374 674 CURVE SMOOTH",
"231 674 OFFCURVE",
"61 615 OFFCURVE",
"61 334 CURVE SMOOTH",
"61 53 OFFCURVE",
"231 -6 OFFCURVE",
"374 -6 CURVE SMOOTH"
);
},
{
closed = 1;
nodes = (
"301 141 OFFCURVE",
"233 175 OFFCURVE",
"233 334 CURVE SMOOTH",
"233 493 OFFCURVE",
"301 527 OFFCURVE",
"374 527 CURVE SMOOTH",
"447 527 OFFCURVE",
"515 493 OFFCURVE",
"515 334 CURVE SMOOTH",
"515 175 OFFCURVE",
"447 141 OFFCURVE",
"374 141 CURVE SMOOTH"
);
},
{
closed = 1;
nodes = (
"332 697 LINE",
"374 741 LINE",
"416 697 LINE",
"518 697 LINE",
"398 819 LINE",
"350 819 LINE",
"230 697 LINE"
);
},
{
closed = 1;
nodes = (
"324 955 OFFCURVE",
"425 736 OFFCURVE",
"526 855 CURVE",
"526 940 LINE",
"425 821 OFFCURVE",
"324 1040 OFFCURVE",
"222 921 CURVE",
"222 836 LINE"
);
}
);
width = 751;
}
);
leftKerningGroup = C;
rightKerningGroup = O;
unicode = 1ED6;
},
{
glyphname = Odieresis;
lastChange = "2016-08-15 13:35:42 +0000";
layers = (
{
layerId = UUID0;
paths = (
{
closed = 1;
nodes = (
"575 -8 OFFCURVE",
"679 107 OFFCURVE",
"679 334 CURVE SMOOTH",
"679 561 OFFCURVE",
"575 676 OFFCURVE",
"370 676 CURVE SMOOTH",
"165 676 OFFCURVE",
"61 561 OFFCURVE",
"61 334 CURVE SMOOTH",
"61 107 OFFCURVE",
"165 -8 OFFCURVE",
"370 -8 CURVE SMOOTH"
);
},
{
closed = 1;
nodes = (
"206 60 OFFCURVE",
"133 144 OFFCURVE",
"133 334 CURVE SMOOTH",
"133 523 OFFCURVE",
"206 608 OFFCURVE",
"370 608 CURVE SMOOTH",
"534 608 OFFCURVE",
"607 523 OFFCURVE",
"607 334 CURVE SMOOTH",
"607 144 OFFCURVE",
"534 60 OFFCURVE",
"370 60 CURVE SMOOTH"
);
},
{
closed = 1;
nodes = (
"336 724 LINE",
"336 804 LINE",
"256 804 LINE",
"256 724 LINE"
);
},
{
closed = 1;
nodes = (
"484 724 LINE",
"484 804 LINE",
"404 804 LINE",
"404 724 LINE"
);
}
);
width = 747;
},
{
components = (
{
name = O;
},
{
name = dieresiscomb.case;
transform = "{1, 0, 0, 1, 158, 168}";
}
);
layerId = "ECACF70C-BE42-4FA5-B3A0-AFDA71FB1D31";
width = 744;
}
);
leftKerningGroup = C;
rightKerningGroup = O;
unicode = 00D6;
},
{
glyphname = Odotbelow;
lastChange = "2016-08-15 13:35:42 +0000";
layers = (
{
layerId = UUID0;
paths = (
{
closed = 1;
nodes = (
"576 -8 OFFCURVE",
"680 107 OFFCURVE",
"680 334 CURVE SMOOTH",
"680 561 OFFCURVE",
"576 676 OFFCURVE",
"370 676 CURVE SMOOTH",
"165 676 OFFCURVE",
"61 561 OFFCURVE",
"61 334 CURVE SMOOTH",
"61 107 OFFCURVE",
"165 -8 OFFCURVE",
"370 -8 CURVE SMOOTH"
);
},
{
closed = 1;
nodes = (
"410 -129 LINE",
"410 -50 LINE",
"331 -50 LINE",
"331 -129 LINE"
);
},
{
closed = 1;
nodes = (
"206 59 OFFCURVE",
"133 144 OFFCURVE",
"133 334 CURVE SMOOTH",
"133 523 OFFCURVE",
"206 608 OFFCURVE",
"370 608 CURVE SMOOTH",
"535 608 OFFCURVE",
"608 523 OFFCURVE",
"608 334 CURVE SMOOTH",
"608 144 OFFCURVE",
"535 59 OFFCURVE",
"370 59 CURVE SMOOTH"
);
}
);
width = 747;
},
{
components = (
{
name = O;
},
{
name = dotbelowcomb.case;
transform = "{1, 0, 0, 1, 262, 0}";
}
);
layerId = "ECACF70C-BE42-4FA5-B3A0-AFDA71FB1D31";
width = 744;
}
);
leftKerningGroup = C;
rightKerningGroup = O;
unicode = 1ECC;
},
{
glyphname = Ograve;
lastChange = "2016-08-15 13:35:42 +0000";
layers = (
{
layerId = UUID0;
paths = (
{
closed = 1;
nodes = (
"575 -8 OFFCURVE",
"679 107 OFFCURVE",
"679 334 CURVE SMOOTH",
"679 561 OFFCURVE",
"575 676 OFFCURVE",
"370 676 CURVE SMOOTH",
"165 676 OFFCURVE",
"61 561 OFFCURVE",
"61 334 CURVE SMOOTH",
"61 107 OFFCURVE",
"165 -8 OFFCURVE",
"370 -8 CURVE SMOOTH"
);
},
{
closed = 1;
nodes = (
"206 60 OFFCURVE",
"133 144 OFFCURVE",
"133 334 CURVE SMOOTH",
"133 523 OFFCURVE",
"206 608 OFFCURVE",
"370 608 CURVE SMOOTH",
"534 608 OFFCURVE",
"607 523 OFFCURVE",
"607 334 CURVE SMOOTH",
"607 144 OFFCURVE",
"534 60 OFFCURVE",
"370 60 CURVE SMOOTH"
);
},
{
closed = 1;
nodes = (
"405 724 LINE",
"348 839 LINE",
"275 839 LINE",
"358 724 LINE"
);
}
);
width = 747;
},
{
components = (
{
name = O;
},
{
name = gravecomb.case;
transform = "{1, 0, 0, 1, 237, 168}";
}
);
layerId = "ECACF70C-BE42-4FA5-B3A0-AFDA71FB1D31";
width = 744;
}
);
leftKerningGroup = C;
rightKerningGroup = O;
unicode = 00D2;
},
{
glyphname = Ohookabove;
lastChange = "2016-08-15 13:35:42 +0000";
layers = (
{
layerId = UUID0;
paths = (
{
closed = 1;
nodes = (
"576 -8 OFFCURVE",
"680 107 OFFCURVE",
"680 334 CURVE SMOOTH",
"680 561 OFFCURVE",
"576 676 OFFCURVE",
"370 676 CURVE SMOOTH",
"165 676 OFFCURVE",
"61 561 OFFCURVE",
"61 334 CURVE SMOOTH",
"61 107 OFFCURVE",
"165 -8 OFFCURVE",
"370 -8 CURVE SMOOTH"
);
},
{
closed = 1;
nodes = (
"206 60 OFFCURVE",
"133 144 OFFCURVE",
"133 334 CURVE SMOOTH",
"133 523 OFFCURVE",
"206 608 OFFCURVE",
"370 608 CURVE SMOOTH",
"535 608 OFFCURVE",
"608 523 OFFCURVE",
"608 334 CURVE SMOOTH",
"608 144 OFFCURVE",
"535 60 OFFCURVE",
"370 60 CURVE SMOOTH"
);
},
{
closed = 1;
nodes = (
"389 724 LINE",
"389 748 LINE",
"425 754 OFFCURVE",
"441 776 OFFCURVE",
"441 802 CURVE SMOOTH",
"441 855 OFFCURVE",
"391 870 OFFCURVE",
"349 870 CURVE SMOOTH",
"338 870 OFFCURVE",
"328 868 OFFCURVE",
"319 867 CURVE",
"319 823 LINE",
"326 825 OFFCURVE",
"335 826 OFFCURVE",
"346 826 CURVE SMOOTH",
"375 826 OFFCURVE",
"393 816 OFFCURVE",
"393 799 CURVE SMOOTH",
"393 790 OFFCURVE",
"384 777 OFFCURVE",
"356 776 CURVE",
"356 724 LINE"
);
}
);
width = 747;
},
{
components = (
{
name = O;
},
{
name = hookabovecomb.case;
transform = "{1, 0, 0, 1, 251, 171}";
}
);
layerId = "ECACF70C-BE42-4FA5-B3A0-AFDA71FB1D31";
width = 744;
}
);
leftKerningGroup = C;
rightKerningGroup = O;
unicode = 1ECE;
},
{
glyphname = Ohorn;
lastChange = "2016-08-15 13:35:42 +0000";
layers = (
{
layerId = UUID0;
paths = (
{
closed = 1;
nodes = (
"576 -8 OFFCURVE",
"680 107 OFFCURVE",
"680 334 CURVE SMOOTH",
"680 407 OFFCURVE",
"669 469 OFFCURVE",
"647 518 CURVE",
"669 524 OFFCURVE",
"693 536 OFFCURVE",
"722 554 CURVE SMOOTH",
"805 607 LINE",
"750 692 LINE",
"664 638 LINE",
"696 589 LINE",
"669 570 OFFCURVE",
"647 561 OFFCURVE",
"627 557 CURVE",
"577 636 OFFCURVE",
"491 676 OFFCURVE",
"370 676 CURVE SMOOTH",
"165 676 OFFCURVE",
"61 561 OFFCURVE",
"61 334 CURVE SMOOTH",
"61 107 OFFCURVE",
"165 -8 OFFCURVE",
"370 -8 CURVE SMOOTH"
);
},
{
closed = 1;
nodes = (
"206 60 OFFCURVE",
"133 144 OFFCURVE",
"133 334 CURVE SMOOTH",
"133 523 OFFCURVE",
"206 608 OFFCURVE",
"370 608 CURVE SMOOTH",
"535 608 OFFCURVE",
"608 523 OFFCURVE",
"608 334 CURVE SMOOTH",
"608 144 OFFCURVE",
"535 60 OFFCURVE",
"370 60 CURVE SMOOTH"
);
}
);
width = 776;
},
{
components = (
{
name = O;
},
{
name = horncomb.case;
transform = "{1, 0, 0, 1, 506, 120}";
}
);
layerId = "ECACF70C-BE42-4FA5-B3A0-AFDA71FB1D31";
width = 744;
}
);
unicode = 01A0;
},
{
glyphname = Ohornacute;
lastChange = "2016-08-15 13:35:42 +0000";
layers = (
{
layerId = UUID0;
paths = (
{
closed = 1;
nodes = (
"576 -8 OFFCURVE",
"680 107 OFFCURVE",
"680 334 CURVE SMOOTH",
"680 407 OFFCURVE",
"669 469 OFFCURVE",
"647 518 CURVE",
"669 524 OFFCURVE",
"693 536 OFFCURVE",
"722 554 CURVE SMOOTH",
"805 607 LINE",
"750 692 LINE",
"664 638 LINE",
"696 589 LINE",
"669 570 OFFCURVE",
"647 561 OFFCURVE",
"627 557 CURVE",
"577 636 OFFCURVE",
"491 676 OFFCURVE",
"370 676 CURVE SMOOTH",
"165 676 OFFCURVE",
"61 561 OFFCURVE",
"61 334 CURVE SMOOTH",
"61 107 OFFCURVE",
"165 -8 OFFCURVE",
"370 -8 CURVE SMOOTH"
);
},
{
closed = 1;
nodes = (
"206 60 OFFCURVE",
"133 144 OFFCURVE",
"133 334 CURVE SMOOTH",
"133 523 OFFCURVE",
"206 608 OFFCURVE",
"370 608 CURVE SMOOTH",
"535 608 OFFCURVE",
"608 523 OFFCURVE",
"608 334 CURVE SMOOTH",
"608 144 OFFCURVE",
"535 60 OFFCURVE",
"370 60 CURVE SMOOTH"
);
},
{
closed = 1;
nodes = (
"383 724 LINE",
"466 839 LINE",
"392 839 LINE",
"335 724 LINE"
);
}
);
width = 776;
},
{
components = (
{
name = Ohorn;
},
{
name = acutecomb.case;
transform = "{1, 0, 0, 1, 263, 168}";
}
);
layerId = "ECACF70C-BE42-4FA5-B3A0-AFDA71FB1D31";
width = 744;
}
);
leftKerningGroup = C;
rightKerningGroup = O;
unicode = 1EDA;
},
{
glyphname = Ohorndotbelow;
lastChange = "2016-08-15 13:35:42 +0000";
layers = (
{
layerId = UUID0;
paths = (
{
closed = 1;
nodes = (
"576 -8 OFFCURVE",
"680 107 OFFCURVE",
"680 334 CURVE SMOOTH",
"680 407 OFFCURVE",
"669 469 OFFCURVE",
"647 518 CURVE",
"669 524 OFFCURVE",
"693 536 OFFCURVE",
"722 554 CURVE SMOOTH",
"805 607 LINE",
"750 692 LINE",
"664 638 LINE",
"696 589 LINE",
"669 570 OFFCURVE",
"647 561 OFFCURVE",
"627 557 CURVE",
"577 636 OFFCURVE",
"491 676 OFFCURVE",
"370 676 CURVE SMOOTH",
"165 676 OFFCURVE",
"61 561 OFFCURVE",
"61 334 CURVE SMOOTH",
"61 107 OFFCURVE",
"165 -8 OFFCURVE",
"370 -8 CURVE SMOOTH"
);
},
{
closed = 1;
nodes = (
"410 -129 LINE",
"410 -50 LINE",
"331 -50 LINE",
"331 -129 LINE"
);
},
{
closed = 1;
nodes = (
"206 60 OFFCURVE",
"133 144 OFFCURVE",
"133 334 CURVE SMOOTH",
"133 523 OFFCURVE",
"206 608 OFFCURVE",
"370 608 CURVE SMOOTH",
"535 608 OFFCURVE",
"608 523 OFFCURVE",
"608 334 CURVE SMOOTH",
"608 144 OFFCURVE",
"535 60 OFFCURVE",
"370 60 CURVE SMOOTH"
);
}
);
width = 776;
},
{
components = (
{
name = Ohorn;
},
{
name = dotbelowcomb.case;
transform = "{1, 0, 0, 1, 262, 0}";
}
);
layerId = "ECACF70C-BE42-4FA5-B3A0-AFDA71FB1D31";
width = 744;
}
);
leftKerningGroup = C;
rightKerningGroup = O;
unicode = 1EE2;
},
{
glyphname = Ohorngrave;
lastChange = "2016-08-15 13:35:42 +0000";
layers = (
{
layerId = UUID0;
paths = (
{
closed = 1;
nodes = (
"576 -8 OFFCURVE",
"680 107 OFFCURVE",
"680 334 CURVE SMOOTH",
"680 407 OFFCURVE",
"669 468 OFFCURVE",
"647 518 CURVE",
"669 524 OFFCURVE",
"693 536 OFFCURVE",
"722 554 CURVE SMOOTH",
"805 607 LINE",
"750 692 LINE",
"664 638 LINE",
"696 588 LINE",
"669 570 OFFCURVE",
"647 561 OFFCURVE",
"627 557 CURVE",
"577 636 OFFCURVE",
"491 676 OFFCURVE",
"370 676 CURVE SMOOTH",
"165 676 OFFCURVE",
"61 561 OFFCURVE",
"61 334 CURVE SMOOTH",
"61 107 OFFCURVE",
"165 -8 OFFCURVE",
"370 -8 CURVE SMOOTH"
);
},
{
closed = 1;
nodes = (
"206 59 OFFCURVE",
"133 144 OFFCURVE",
"133 334 CURVE SMOOTH",
"133 523 OFFCURVE",
"206 608 OFFCURVE",
"370 608 CURVE SMOOTH",
"535 608 OFFCURVE",
"608 523 OFFCURVE",
"608 334 CURVE SMOOTH",
"608 144 OFFCURVE",
"535 59 OFFCURVE",
"370 59 CURVE SMOOTH"
);
},
{
closed = 1;
nodes = (
"405 724 LINE",
"348 839 LINE",
"274 839 LINE",
"357 724 LINE"
);
}
);
width = 776;
},
{
components = (
{
name = Ohorn;
},
{
name = gravecomb.case;
transform = "{1, 0, 0, 1, 237, 168}";
}
);
layerId = "ECACF70C-BE42-4FA5-B3A0-AFDA71FB1D31";
width = 744;
}
);
leftKerningGroup = C;
rightKerningGroup = O;
unicode = 1EDC;
},
{
glyphname = Ohornhookabove;
lastChange = "2016-08-15 13:35:42 +0000";
layers = (
{
layerId = UUID0;
paths = (
{
closed = 1;
nodes = (
"576 -8 OFFCURVE",
"680 107 OFFCURVE",
"680 334 CURVE SMOOTH",
"680 407 OFFCURVE",
"669 469 OFFCURVE",
"647 518 CURVE",
"669 524 OFFCURVE",
"693 536 OFFCURVE",
"722 554 CURVE SMOOTH",
"805 607 LINE",
"750 692 LINE",
"664 638 LINE",
"696 589 LINE",
"669 570 OFFCURVE",
"647 561 OFFCURVE",
"627 557 CURVE",
"577 636 OFFCURVE",
"491 676 OFFCURVE",
"370 676 CURVE SMOOTH",
"165 676 OFFCURVE",
"61 561 OFFCURVE",
"61 334 CURVE SMOOTH",
"61 107 OFFCURVE",
"165 -8 OFFCURVE",
"370 -8 CURVE SMOOTH"
);
},
{
closed = 1;
nodes = (
"206 60 OFFCURVE",
"133 144 OFFCURVE",
"133 334 CURVE SMOOTH",
"133 523 OFFCURVE",
"206 608 OFFCURVE",
"370 608 CURVE SMOOTH",
"535 608 OFFCURVE",
"608 523 OFFCURVE",
"608 334 CURVE SMOOTH",
"608 144 OFFCURVE",
"535 60 OFFCURVE",
"370 60 CURVE SMOOTH"
);
},
{
closed = 1;
nodes = (
"389 724 LINE",
"389 748 LINE",
"425 754 OFFCURVE",
"441 776 OFFCURVE",
"441 802 CURVE SMOOTH",
"441 855 OFFCURVE",
"391 870 OFFCURVE",
"349 870 CURVE SMOOTH",
"338 870 OFFCURVE",
"328 868 OFFCURVE",
"319 867 CURVE",
"319 823 LINE",
"326 825 OFFCURVE",
"335 826 OFFCURVE",
"346 826 CURVE SMOOTH",
"375 826 OFFCURVE",
"393 816 OFFCURVE",
"393 799 CURVE SMOOTH",
"393 790 OFFCURVE",
"384 777 OFFCURVE",
"356 776 CURVE",
"356 724 LINE"
);
}
);
width = 776;
},
{
components = (
{
name = Ohorn;
},
{
name = hookabovecomb.case;
transform = "{1, 0, 0, 1, 251, 171}";
}
);
layerId = "ECACF70C-BE42-4FA5-B3A0-AFDA71FB1D31";
width = 744;
}
);
leftKerningGroup = C;
rightKerningGroup = O;
unicode = 1EDE;
},
{
glyphname = Ohorntilde;
lastChange = "2016-08-15 13:35:42 +0000";
layers = (
{
layerId = UUID0;
paths = (
{
closed = 1;
nodes = (
"576 -8 OFFCURVE",
"680 107 OFFCURVE",
"680 334 CURVE SMOOTH",
"680 407 OFFCURVE",
"669 469 OFFCURVE",
"647 518 CURVE",
"669 524 OFFCURVE",
"693 536 OFFCURVE",
"722 554 CURVE SMOOTH",
"805 607 LINE",
"750 692 LINE",
"664 638 LINE",
"696 589 LINE",
"669 570 OFFCURVE",
"647 561 OFFCURVE",
"627 557 CURVE",
"577 636 OFFCURVE",
"491 676 OFFCURVE",
"370 676 CURVE SMOOTH",
"165 676 OFFCURVE",
"61 561 OFFCURVE",
"61 334 CURVE SMOOTH",
"61 107 OFFCURVE",
"165 -8 OFFCURVE",
"370 -8 CURVE SMOOTH"
);
},
{
closed = 1;
nodes = (
"206 60 OFFCURVE",
"133 144 OFFCURVE",
"133 334 CURVE SMOOTH",
"133 523 OFFCURVE",
"206 608 OFFCURVE",
"370 608 CURVE SMOOTH",
"535 608 OFFCURVE",
"608 523 OFFCURVE",
"608 334 CURVE SMOOTH",
"608 144 OFFCURVE",
"535 60 OFFCURVE",
"370 60 CURVE SMOOTH"
);
},
{
closed = 1;
nodes = (
"323 843 OFFCURVE",
"417 627 OFFCURVE",
"511 745 CURVE",
"511 800 LINE",
"417 683 OFFCURVE",
"323 899 OFFCURVE",
"230 782 CURVE",
"230 725 LINE"
);
}
);
width = 776;
},
{
components = (
{
name = Ohorn;
},
{
name = tildecomb.case;
transform = "{1, 0, 0, 1, 115, 168}";
}
);
layerId = "ECACF70C-BE42-4FA5-B3A0-AFDA71FB1D31";
width = 744;
}
);
leftKerningGroup = C;
rightKerningGroup = O;
unicode = 1EE0;
},
{
glyphname = Ohungarumlaut;
lastChange = "2016-08-15 13:35:42 +0000";
layers = (
{
layerId = UUID0;
paths = (
{
closed = 1;
nodes = (
"575 -8 OFFCURVE",
"679 107 OFFCURVE",
"679 334 CURVE SMOOTH",
"679 561 OFFCURVE",
"575 676 OFFCURVE",
"370 676 CURVE SMOOTH",
"165 676 OFFCURVE",
"61 561 OFFCURVE",
"61 334 CURVE SMOOTH",
"61 107 OFFCURVE",
"165 -8 OFFCURVE",
"370 -8 CURVE SMOOTH"
);
},
{
closed = 1;
nodes = (
"206 60 OFFCURVE",
"133 144 OFFCURVE",
"133 334 CURVE SMOOTH",
"133 523 OFFCURVE",
"206 608 OFFCURVE",
"370 608 CURVE SMOOTH",
"534 608 OFFCURVE",
"607 523 OFFCURVE",
"607 334 CURVE SMOOTH",
"607 144 OFFCURVE",
"534 60 OFFCURVE",
"370 60 CURVE SMOOTH"
);
},
{
closed = 1;
nodes = (
"323 724 LINE",
"406 839 LINE",
"332 839 LINE",
"275 724 LINE"
);
},
{
closed = 1;
nodes = (
"443 724 LINE",
"526 839 LINE",
"452 839 LINE",
"395 724 LINE"
);
}
);
width = 747;
},
{
components = (
{
name = O;
},
{
name = hungarumlautcomb.case;
transform = "{1, 0, 0, 1, 187, 168}";
}
);
layerId = "ECACF70C-BE42-4FA5-B3A0-AFDA71FB1D31";
width = 744;
}
);
leftKerningGroup = C;
rightKerningGroup = O;
unicode = 0150;
},
{
glyphname = Omacron;
lastChange = "2016-08-15 13:35:42 +0000";
layers = (
{
layerId = UUID0;
paths = (
{
closed = 1;
nodes = (
"575 -8 OFFCURVE",
"679 107 OFFCURVE",
"679 334 CURVE SMOOTH",
"679 561 OFFCURVE",
"575 676 OFFCURVE",
"370 676 CURVE SMOOTH",
"165 676 OFFCURVE",
"61 561 OFFCURVE",
"61 334 CURVE SMOOTH",
"61 107 OFFCURVE",
"165 -8 OFFCURVE",
"370 -8 CURVE SMOOTH"
);
},
{
closed = 1;
nodes = (
"206 60 OFFCURVE",
"133 144 OFFCURVE",
"133 334 CURVE SMOOTH",
"133 523 OFFCURVE",
"206 608 OFFCURVE",
"370 608 CURVE SMOOTH",
"534 608 OFFCURVE",
"607 523 OFFCURVE",
"607 334 CURVE SMOOTH",
"607 144 OFFCURVE",
"534 60 OFFCURVE",
"370 60 CURVE SMOOTH"
);
},
{
closed = 1;
nodes = (
"487 736 LINE",
"487 789 LINE",
"253 789 LINE",
"253 736 LINE"
);
}
);
width = 747;
},
{
components = (
{
name = O;
},
{
name = macroncomb.case;
transform = "{1, 0, 0, 1, 169, 168}";
}
);
layerId = "ECACF70C-BE42-4FA5-B3A0-AFDA71FB1D31";
width = 744;
}
);
leftKerningGroup = C;
rightKerningGroup = O;
unicode = 014C;
},
{
glyphname = Oslash;
lastChange = "2016-08-05 09:29:49 +0000";
layers = (
{
layerId = UUID0;
paths = (
{
closed = 1;
nodes = (
"576 -9 OFFCURVE",
"680 107 OFFCURVE",
"680 334 CURVE SMOOTH",
"680 438 OFFCURVE",
"657 519 OFFCURVE",
"613 575 CURVE",
"691 667 LINE",
"613 667 LINE",
"571 618 LINE",
"521 656 OFFCURVE",
"454 676 OFFCURVE",
"370 676 CURVE SMOOTH",
"165 676 OFFCURVE",
"61 560 OFFCURVE",
"61 334 CURVE SMOOTH",
"61 229 OFFCURVE",
"83 148 OFFCURVE",
"127 92 CURVE",
"50 0 LINE",
"128 0 LINE",
"170 49 LINE",
"220 11 OFFCURVE",
"287 -9 OFFCURVE",
"370 -9 CURVE SMOOTH"
);
},
{
closed = 1;
nodes = (
"304 59 OFFCURVE",
"253 73 OFFCURVE",
"215 102 CURVE",
"567 520 LINE",
"594 476 OFFCURVE",
"608 414 OFFCURVE",
"608 334 CURVE SMOOTH",
"608 144 OFFCURVE",
"535 59 OFFCURVE",
"370 59 CURVE SMOOTH"
);
},
{
closed = 1;
nodes = (
"146 191 OFFCURVE",
"133 253 OFFCURVE",
"133 334 CURVE SMOOTH",
"133 523 OFFCURVE",
"206 608 OFFCURVE",
"370 608 CURVE SMOOTH",
"437 608 OFFCURVE",
"488 594 OFFCURVE",
"526 565 CURVE",
"174 147 LINE"
);
}
);
width = 747;
},
{
layerId = "ECACF70C-BE42-4FA5-B3A0-AFDA71FB1D31";
paths = (
{
closed = 1;
nodes = (
"517 -7 OFFCURVE",
"687 52 OFFCURVE",
"687 333 CURVE SMOOTH",
"687 427 OFFCURVE",
"668 496 OFFCURVE",
"637 547 CURVE",
"740 667 LINE",
"580 667 LINE",
"550 632 LINE",
"496 663 OFFCURVE",
"432 673 OFFCURVE",
"374 673 CURVE SMOOTH",
"231 673 OFFCURVE",
"61 614 OFFCURVE",
"61 333 CURVE SMOOTH",
"61 239 OFFCURVE",
"80 170 OFFCURVE",
"110 120 CURVE",
"7 0 LINE",
"167 0 LINE",
"197 35 LINE",
"251 3 OFFCURVE",
"315 -7 OFFCURVE",
"374 -7 CURVE SMOOTH"
);
},
{
closed = 1;
nodes = (
"348 140 OFFCURVE",
"323 144 OFFCURVE",
"302 156 CURVE",
"510 399 LINE",
"513 380 OFFCURVE",
"515 358 OFFCURVE",
"515 333 CURVE SMOOTH",
"515 174 OFFCURVE",
"447 140 OFFCURVE",
"374 140 CURVE SMOOTH"
);
},
{
closed = 1;
nodes = (
"234 287 OFFCURVE",
"233 309 OFFCURVE",
"233 333 CURVE SMOOTH",
"233 492 OFFCURVE",
"301 526 OFFCURVE",
"374 526 CURVE SMOOTH",
"399 526 OFFCURVE",
"424 522 OFFCURVE",
"445 510 CURVE",
"237 268 LINE"
);
}
);
width = 747;
}
);
leftKerningGroup = Oslash;
unicode = 00D8;
},
{
glyphname = Oslashacute;
lastChange = "2016-08-05 09:29:49 +0000";
layers = (
{
layerId = UUID0;
paths = (
{
closed = 1;
nodes = (
"575 -9 OFFCURVE",
"679 107 OFFCURVE",
"679 334 CURVE SMOOTH",
"679 438 OFFCURVE",
"657 519 OFFCURVE",
"613 575 CURVE",
"690 667 LINE",
"611 667 LINE",
"570 618 LINE",
"520 656 OFFCURVE",
"454 676 OFFCURVE",
"370 676 CURVE SMOOTH",
"165 676 OFFCURVE",
"60 560 OFFCURVE",
"60 334 CURVE SMOOTH",
"60 229 OFFCURVE",
"83 148 OFFCURVE",
"127 92 CURVE",
"49 0 LINE",
"128 0 LINE",
"169 49 LINE",
"219 11 OFFCURVE",
"286 -9 OFFCURVE",
"370 -9 CURVE SMOOTH"
);
},
{
closed = 1;
nodes = (
"303 59 OFFCURVE",
"252 73 OFFCURVE",
"214 102 CURVE",
"566 520 LINE",
"594 476 OFFCURVE",
"607 414 OFFCURVE",
"607 334 CURVE SMOOTH",
"607 144 OFFCURVE",
"534 59 OFFCURVE",
"370 59 CURVE SMOOTH"
);
},
{
closed = 1;
nodes = (
"146 191 OFFCURVE",
"132 253 OFFCURVE",
"132 334 CURVE SMOOTH",
"132 523 OFFCURVE",
"206 608 OFFCURVE",
"370 608 CURVE SMOOTH",
"436 608 OFFCURVE",
"487 594 OFFCURVE",
"525 565 CURVE",
"174 147 LINE"
);
},
{
closed = 1;
nodes = (
"382 724 LINE",
"465 839 LINE",
"391 839 LINE",
"335 724 LINE"
);
}
);
width = 747;
},
{
layerId = "ECACF70C-BE42-4FA5-B3A0-AFDA71FB1D31";
paths = (
{
closed = 1;
nodes = (
"517 -7 OFFCURVE",
"687 52 OFFCURVE",
"687 333 CURVE SMOOTH",
"687 427 OFFCURVE",
"668 496 OFFCURVE",
"637 547 CURVE",
"740 667 LINE",
"580 667 LINE",
"550 632 LINE",
"496 663 OFFCURVE",
"432 673 OFFCURVE",
"374 673 CURVE SMOOTH",
"231 673 OFFCURVE",
"61 614 OFFCURVE",
"61 333 CURVE SMOOTH",
"61 239 OFFCURVE",
"80 170 OFFCURVE",
"110 120 CURVE",
"7 0 LINE",
"167 0 LINE",
"197 35 LINE",
"251 3 OFFCURVE",
"315 -7 OFFCURVE",
"374 -7 CURVE SMOOTH"
);
},
{
closed = 1;
nodes = (
"348 140 OFFCURVE",
"323 144 OFFCURVE",
"302 156 CURVE",
"510 399 LINE",
"513 380 OFFCURVE",
"515 358 OFFCURVE",
"515 333 CURVE SMOOTH",
"515 174 OFFCURVE",
"447 140 OFFCURVE",
"374 140 CURVE SMOOTH"
);
},
{
closed = 1;
nodes = (
"234 287 OFFCURVE",
"233 309 OFFCURVE",
"233 333 CURVE SMOOTH",
"233 492 OFFCURVE",
"301 526 OFFCURVE",
"374 526 CURVE SMOOTH",
"399 526 OFFCURVE",
"424 522 OFFCURVE",
"445 510 CURVE",
"237 268 LINE"
);
},
{
closed = 1;
nodes = (
"411 724 LINE",
"504 841 LINE",
"387 841 LINE",
"325 724 LINE"
);
}
);
width = 747;
}
);
leftKerningGroup = Oslash;
unicode = 01FE;
},
{
glyphname = Otilde;
lastChange = "2016-08-15 13:35:42 +0000";
layers = (
{
layerId = UUID0;
paths = (
{
closed = 1;
nodes = (
"576 -8 OFFCURVE",
"680 107 OFFCURVE",
"680 334 CURVE SMOOTH",
"680 561 OFFCURVE",
"576 676 OFFCURVE",
"370 676 CURVE SMOOTH",
"165 676 OFFCURVE",
"61 561 OFFCURVE",
"61 334 CURVE SMOOTH",
"61 107 OFFCURVE",
"165 -8 OFFCURVE",
"370 -8 CURVE SMOOTH"
);
},
{
closed = 1;
nodes = (
"206 60 OFFCURVE",
"133 144 OFFCURVE",
"133 334 CURVE SMOOTH",
"133 523 OFFCURVE",
"206 608 OFFCURVE",
"370 608 CURVE SMOOTH",
"535 608 OFFCURVE",
"608 523 OFFCURVE",
"608 334 CURVE SMOOTH",
"608 144 OFFCURVE",
"535 60 OFFCURVE",
"370 60 CURVE SMOOTH"
);
},
{
closed = 1;
nodes = (
"323 843 OFFCURVE",
"417 627 OFFCURVE",
"511 745 CURVE",
"511 800 LINE",
"417 683 OFFCURVE",
"323 899 OFFCURVE",
"230 782 CURVE",
"230 725 LINE"
);
}
);
width = 747;
},
{
components = (
{
name = O;
},
{
name = tildecomb.case;
transform = "{1, 0, 0, 1, 115, 168}";
}
);
layerId = "ECACF70C-BE42-4FA5-B3A0-AFDA71FB1D31";
width = 744;
}
);
leftKerningGroup = C;
rightKerningGroup = O;
unicode = 00D5;
},
{
glyphname = OE;
lastChange = "2016-08-05 09:29:49 +0000";
layers = (
{
layerId = UUID0;
paths = (
{
closed = 1;
nodes = (
"420 -8 OFFCURVE",
"465 -1 OFFCURVE",
"503 13 CURVE",
"503 0 LINE",
"925 0 LINE",
"925 68 LINE",
"575 68 LINE",
"575 299 LINE",
"882 299 LINE",
"882 369 LINE",
"575 369 LINE",
"575 599 LINE",
"925 599 LINE",
"925 667 LINE",
"503 667 LINE",
"503 654 LINE",
"465 669 OFFCURVE",
"420 676 OFFCURVE",
"369 676 CURVE SMOOTH",
"164 676 OFFCURVE",
"60 561 OFFCURVE",
"60 334 CURVE SMOOTH",
"60 107 OFFCURVE",
"164 -8 OFFCURVE",
"369 -8 CURVE SMOOTH"
);
},
{
closed = 1;
nodes = (
"205 60 OFFCURVE",
"132 144 OFFCURVE",
"132 334 CURVE SMOOTH",
"132 523 OFFCURVE",
"205 608 OFFCURVE",
"369 608 CURVE SMOOTH",
"424 608 OFFCURVE",
"468 598 OFFCURVE",
"503 579 CURVE",
"503 89 LINE",
"468 69 OFFCURVE",
"424 60 OFFCURVE",
"369 60 CURVE SMOOTH"
);
}
);
width = 991;
},
{
layerId = "ECACF70C-BE42-4FA5-B3A0-AFDA71FB1D31";
paths = (
{
closed = 1;
nodes = (
"420 -6 OFFCURVE",
"470 0 OFFCURVE",
"516 19 CURVE",
"516 0 LINE",
"981 0 LINE",
"981 141 LINE",
"688 141 LINE",
"688 263 LINE",
"942 263 LINE",
"942 404 LINE",
"688 404 LINE",
"688 527 LINE",
"981 527 LINE",
"981 667 LINE",
"516 667 LINE",
"516 649 LINE",
"470 668 OFFCURVE",
"420 674 OFFCURVE",
"373 674 CURVE SMOOTH",
"230 674 OFFCURVE",
"60 615 OFFCURVE",
"60 334 CURVE SMOOTH",
"60 53 OFFCURVE",
"230 -6 OFFCURVE",
"373 -6 CURVE SMOOTH"
);
},
{
closed = 1;
nodes = (
"300 141 OFFCURVE",
"232 175 OFFCURVE",
"232 334 CURVE SMOOTH",
"232 493 OFFCURVE",
"300 527 OFFCURVE",
"373 527 CURVE SMOOTH",
"446 527 OFFCURVE",
"514 493 OFFCURVE",
"514 334 CURVE SMOOTH",
"514 175 OFFCURVE",
"446 141 OFFCURVE",
"373 141 CURVE SMOOTH"
);
}
);
width = 1055;
}
);
leftKerningGroup = C;
rightKerningGroup = E;
unicode = 0152;
},
{
glyphname = P;
lastChange = "2016-08-16 14:30:28 +0000";
layers = (
{
layerId = UUID0;
paths = (
{
closed = 1;
nodes = (
"322 255 LINE SMOOTH",
"471 255 OFFCURVE",
"553 328 OFFCURVE",
"553 461 CURVE SMOOTH",
"553 594 OFFCURVE",
"471 667 OFFCURVE",
"322 667 CURVE SMOOTH",
"85 667 LINE",
"85 0 LINE",
"157 0 LINE",
"157 255 LINE"
);
},
{
closed = 1;
nodes = (
"157 598 LINE",
"313 598 LINE SMOOTH",
"462 598 OFFCURVE",
"481 525 OFFCURVE",
"481 461 CURVE SMOOTH",
"481 397 OFFCURVE",
"462 324 OFFCURVE",
"313 324 CURVE SMOOTH",
"157 324 LINE"
);
}
);
width = 613;
},
{
layerId = "ECACF70C-BE42-4FA5-B3A0-AFDA71FB1D31";
paths = (
{
closed = 1;
nodes = (
"392 203 LINE",
"551 203 OFFCURVE",
"651 270 OFFCURVE",
"651 435 CURVE",
"651 599 OFFCURVE",
"551 667 OFFCURVE",
"392 667 CURVE",
"65 667 LINE",
"65 0 LINE",
"265 0 LINE",
"265 203 LINE"
);
},
{
closed = 1;
nodes = (
"265 517 LINE",
"367 517 LINE",
"402 517 OFFCURVE",
"433 490 OFFCURVE",
"433 430 CURVE",
"433 378 OFFCURVE",
"402 353 OFFCURVE",
"367 353 CURVE",
"265 353 LINE"
);
}
);
width = 686;
}
);
leftKerningGroup = B;
leftMetricsKey = H;
rightMetricsKey = O;
unicode = 0050;
},
{
glyphname = Thorn;
lastChange = "2016-08-05 09:29:49 +0000";
layers = (
{
layerId = UUID0;
paths = (
{
closed = 1;
nodes = (
"158 0 LINE",
"158 153 LINE",
"288 153 LINE SMOOTH",
"436 153 OFFCURVE",
"518 226 OFFCURVE",
"518 359 CURVE SMOOTH",
"518 492 OFFCURVE",
"436 566 OFFCURVE",
"288 566 CURVE SMOOTH",
"158 566 LINE",
"158 667 LINE",
"86 667 LINE",
"86 0 LINE"
);
},
{
closed = 1;
nodes = (
"158 496 LINE",
"278 496 LINE SMOOTH",
"427 496 OFFCURVE",
"446 423 OFFCURVE",
"446 359 CURVE SMOOTH",
"446 295 OFFCURVE",
"427 222 OFFCURVE",
"278 222 CURVE SMOOTH",
"158 222 LINE"
);
}
);
width = 570;
},
{
layerId = "ECACF70C-BE42-4FA5-B3A0-AFDA71FB1D31";
paths = (
{
closed = 1;
nodes = (
"258 0 LINE",
"258 99 LINE",
"344 99 LINE SMOOTH",
"506 99 OFFCURVE",
"599 185 OFFCURVE",
"599 334 CURVE SMOOTH",
"599 482 OFFCURVE",
"506 568 OFFCURVE",
"344 568 CURVE SMOOTH",
"258 568 LINE",
"258 667 LINE",
"86 667 LINE",
"86 0 LINE"
);
},
{
closed = 1;
nodes = (
"258 428 LINE",
"328 428 LINE SMOOTH",
"404 428 OFFCURVE",
"428 376 OFFCURVE",
"428 334 CURVE SMOOTH",
"428 290 OFFCURVE",
"404 241 OFFCURVE",
"328 241 CURVE SMOOTH",
"258 241 LINE"
);
}
);
width = 653;
}
);
leftKerningGroup = B;
unicode = 00DE;
},
{
glyphname = Q;
lastChange = "2016-08-16 14:32:25 +0000";
layers = (
{
layerId = UUID0;
paths = (
{
closed = 1;
nodes = (
"558 -10 OFFCURVE",
"659 106 OFFCURVE",
"659 333 CURVE",
"659 560 OFFCURVE",
"558 676 OFFCURVE",
"359 676 CURVE",
"161 676 OFFCURVE",
"60 560 OFFCURVE",
"60 333 CURVE",
"60 106 OFFCURVE",
"161 -10 OFFCURVE",
"359 -10 CURVE"
);
},
{
closed = 1;
nodes = (
"202 58 OFFCURVE",
"134 143 OFFCURVE",
"134 333 CURVE",
"134 522 OFFCURVE",
"202 608 OFFCURVE",
"359 608 CURVE",
"517 608 OFFCURVE",
"585 522 OFFCURVE",
"585 333 CURVE",
"585 143 OFFCURVE",
"517 58 OFFCURVE",
"359 58 CURVE"
);
},
{
closed = 1;
nodes = (
"570 -33 OFFCURVE",
"543 -13 OFFCURVE",
"512 46 CURVE SMOOTH",
"476 115 OFFCURVE",
"421 196 OFFCURVE",
"328 196 CURVE SMOOTH",
"268 196 OFFCURVE",
"230 167 OFFCURVE",
"208 150 CURVE",
"208 81 LINE",
"236 112 OFFCURVE",
"269 138 OFFCURVE",
"320 138 CURVE",
"393 138 OFFCURVE",
"421 76 OFFCURVE",
"451 16 CURVE SMOOTH",
"483 -47 OFFCURVE",
"530 -90 OFFCURVE",
"591 -90 CURVE SMOOTH",
"603 -90 OFFCURVE",
"628 -88 OFFCURVE",
"658 -72 CURVE",
"658 -13 LINE",
"630 -30 OFFCURVE",
"616 -33 OFFCURVE",
"599 -33 CURVE"
);
}
);
width = 719;
},
{
layerId = "ECACF70C-BE42-4FA5-B3A0-AFDA71FB1D31";
paths = (
{
closed = 1;
nodes = (
"602 -25 OFFCURVE",
"709 95 OFFCURVE",
"709 334 CURVE",
"709 585 OFFCURVE",
"590 692 OFFCURVE",
"372 692 CURVE",
"142 692 OFFCURVE",
"35 572 OFFCURVE",
"35 333 CURVE",
"35 82 OFFCURVE",
"154 -25 OFFCURVE",
"372 -25 CURVE"
);
},
{
closed = 1;
nodes = (
"294 105 OFFCURVE",
"242 148 OFFCURVE",
"242 332 CURVE",
"242 497 OFFCURVE",
"294 542 OFFCURVE",
"372 542 CURVE",
"450 542 OFFCURVE",
"502 499 OFFCURVE",
"502 335 CURVE",
"502 150 OFFCURVE",
"450 105 OFFCURVE",
"372 105 CURVE"
);
},
{
closed = 1;
nodes = (
"592 2 OFFCURVE",
"562 54 OFFCURVE",
"551 120 CURVE SMOOTH",
"522 288 OFFCURVE",
"441 319 OFFCURVE",
"369 319 CURVE SMOOTH",
"306 319 OFFCURVE",
"248 285 OFFCURVE",
"226 244 CURVE",
"226 127 LINE",
"254 168 OFFCURVE",
"292 184 OFFCURVE",
"329 184 CURVE",
"366 184 OFFCURVE",
"404 136 OFFCURVE",
"415 50 CURVE SMOOTH",
"433 -88 OFFCURVE",
"526 -112 OFFCURVE",
"601 -112 CURVE SMOOTH",
"653 -112 OFFCURVE",
"686 -105 OFFCURVE",
"708 -93 CURVE",
"708 22 LINE",
"680 5 OFFCURVE",
"666 2 OFFCURVE",
"640 2 CURVE"
);
}
);
width = 744;
}
);
leftKerningGroup = C;
leftMetricsKey = O;
rightKerningGroup = O;
rightMetricsKey = O;
unicode = 0051;
},
{
glyphname = R;
lastChange = "2016-08-16 14:14:57 +0000";
layers = (
{
layerId = UUID0;
paths = (
{
closed = 1;
nodes = (
"157 0 LINE",
"157 269 LINE",
"339 269 LINE",
"303 306 LINE",
"501 0 LINE",
"586 0 LINE",
"394 293 LINE",
"364 273 LINE",
"479 273 OFFCURVE",
"556 357 OFFCURVE",
"556 473 CURVE SMOOTH",
"556 601 OFFCURVE",
"489 667 OFFCURVE",
"359 667 CURVE SMOOTH",
"85 667 LINE",
"85 0 LINE"
);
},
{
closed = 1;
nodes = (
"157 599 LINE",
"351 599 LINE SMOOTH",
"453 599 OFFCURVE",
"484 548 OFFCURVE",
"484 468 CURVE SMOOTH",
"484 383 OFFCURVE",
"437 337 OFFCURVE",
"326 337 CURVE SMOOTH",
"157 337 LINE"
);
}
);
width = 631;
},
{
layerId = "ECACF70C-BE42-4FA5-B3A0-AFDA71FB1D31";
paths = (
{
closed = 1;
nodes = (
"265 0 LINE",
"265 213 LINE",
"383 213 LINE",
"296 284 LINE",
"450 0 LINE",
"708 0 LINE",
"499 318 LINE",
"527 249 LINE",
"627 274 OFFCURVE",
"671 371 OFFCURVE",
"671 448 CURVE",
"671 596 OFFCURVE",
"571 667 OFFCURVE",
"412 667 CURVE",
"65 667 LINE",
"65 0 LINE"
);
},
{
closed = 1;
nodes = (
"265 517 LINE",
"387 517 LINE",
"422 517 OFFCURVE",
"453 493 OFFCURVE",
"453 439 CURVE",
"453 375 OFFCURVE",
"422 354 OFFCURVE",
"387 354 CURVE",
"265 354 LINE"
);
}
);
width = 743;
}
);
leftKerningGroup = B;
leftMetricsKey = H;
rightKerningGroup = R;
unicode = 0052;
},
{
glyphname = Racute;
lastChange = "2016-08-05 09:29:49 +0000";
layers = (
{
layerId = UUID0;
paths = (
{
closed = 1;
nodes = (
"159 0 LINE",
"159 269 LINE",
"329 269 LINE",
"503 0 LINE",
"588 0 LINE",
"405 280 LINE",
"436 286 OFFCURVE",
"558 320 OFFCURVE",
"558 473 CURVE SMOOTH",
"558 601 OFFCURVE",
"476 667 OFFCURVE",
"332 667 CURVE SMOOTH",
"87 667 LINE",
"87 0 LINE"
);
},
{
closed = 1;
nodes = (
"159 599 LINE",
"328 599 LINE SMOOTH",
"468 599 OFFCURVE",
"486 529 OFFCURVE",
"486 468 CURVE SMOOTH",
"486 407 OFFCURVE",
"468 337 OFFCURVE",
"328 337 CURVE SMOOTH",
"159 337 LINE"
);
},
{
closed = 1;
nodes = (
"305 724 LINE",
"388 839 LINE",
"314 839 LINE",
"257 724 LINE"
);
}
);
width = 621;
},
{
layerId = "ECACF70C-BE42-4FA5-B3A0-AFDA71FB1D31";
paths = (
{
closed = 1;
nodes = (
"259 0 LINE",
"259 223 LINE",
"330 223 LINE",
"454 0 LINE",
"646 0 LINE",
"485 249 LINE",
"562 274 OFFCURVE",
"619 340 OFFCURVE",
"619 450 CURVE SMOOTH",
"619 591 OFFCURVE",
"509 667 OFFCURVE",
"350 667 CURVE SMOOTH",
"87 667 LINE",
"87 0 LINE"
);
},
{
closed = 1;
nodes = (
"259 527 LINE",
"361 527 LINE SMOOTH",
"406 527 OFFCURVE",
"447 493 OFFCURVE",
"447 439 CURVE SMOOTH",
"447 386 OFFCURVE",
"406 352 OFFCURVE",
"361 352 CURVE SMOOTH",
"259 352 LINE"
);
},
{
closed = 1;
nodes = (
"337 724 LINE",
"430 841 LINE",
"313 841 LINE",
"251 724 LINE"
);
}
);
width = 682;
}
);
leftKerningGroup = B;
rightKerningGroup = Racute;
unicode = 0154;
},
{
glyphname = Rcaron;
lastChange = "2016-08-05 09:29:49 +0000";
layers = (
{
layerId = UUID0;
paths = (
{
closed = 1;
nodes = (
"159 0 LINE",
"159 269 LINE",
"329 269 LINE",
"503 0 LINE",
"588 0 LINE",
"405 280 LINE",
"436 286 OFFCURVE",
"558 320 OFFCURVE",
"558 473 CURVE SMOOTH",
"558 601 OFFCURVE",
"476 667 OFFCURVE",
"332 667 CURVE SMOOTH",
"87 667 LINE",
"87 0 LINE"
);
},
{
closed = 1;
nodes = (
"159 599 LINE",
"328 599 LINE SMOOTH",
"468 599 OFFCURVE",
"486 529 OFFCURVE",
"486 468 CURVE SMOOTH",
"486 407 OFFCURVE",
"468 337 OFFCURVE",
"328 337 CURVE SMOOTH",
"159 337 LINE"
);
},
{
closed = 1;
nodes = (
"314 724 LINE",
"395 845 LINE",
"339 845 LINE",
"294 774 LINE",
"249 845 LINE",
"193 845 LINE",
"273 724 LINE"
);
}
);
width = 621;
},
{
layerId = "ECACF70C-BE42-4FA5-B3A0-AFDA71FB1D31";
paths = (
{
closed = 1;
nodes = (
"259 0 LINE",
"259 223 LINE",
"330 223 LINE",
"454 0 LINE",
"646 0 LINE",
"485 249 LINE",
"562 274 OFFCURVE",
"619 340 OFFCURVE",
"619 450 CURVE SMOOTH",
"619 591 OFFCURVE",
"509 667 OFFCURVE",
"350 667 CURVE SMOOTH",
"87 667 LINE",
"87 0 LINE"
);
},
{
closed = 1;
nodes = (
"259 527 LINE",
"361 527 LINE SMOOTH",
"406 527 OFFCURVE",
"447 493 OFFCURVE",
"447 439 CURVE SMOOTH",
"447 386 OFFCURVE",
"406 352 OFFCURVE",
"361 352 CURVE SMOOTH",
"259 352 LINE"
);
},
{
closed = 1;
nodes = (
"351 724 LINE",
"471 846 LINE",
"369 846 LINE",
"327 802 LINE",
"285 846 LINE",
"183 846 LINE",
"303 724 LINE"
);
}
);
width = 682;
}
);
leftKerningGroup = B;
rightKerningGroup = Racute;
unicode = 0158;
},
{
glyphname = Rcommaaccent;
lastChange = "2016-08-05 09:29:49 +0000";
layers = (
{
layerId = UUID0;
paths = (
{
closed = 1;
nodes = (
"159 0 LINE",
"159 269 LINE",
"329 269 LINE",
"503 0 LINE",
"588 0 LINE",
"405 280 LINE",
"436 286 OFFCURVE",
"558 320 OFFCURVE",
"558 473 CURVE SMOOTH",
"558 601 OFFCURVE",
"476 667 OFFCURVE",
"332 667 CURVE SMOOTH",
"87 667 LINE",
"87 0 LINE"
);
},
{
closed = 1;
nodes = (
"302 -183 OFFCURVE",
"358 -145 OFFCURVE",
"358 -49 CURVE",
"299 -49 LINE",
"299 -78 OFFCURVE",
"295 -124 OFFCURVE",
"258 -139 CURVE",
"258 -193 LINE"
);
},
{
closed = 1;
nodes = (
"159 599 LINE",
"328 599 LINE SMOOTH",
"468 599 OFFCURVE",
"486 529 OFFCURVE",
"486 468 CURVE SMOOTH",
"486 407 OFFCURVE",
"468 337 OFFCURVE",
"328 337 CURVE SMOOTH",
"159 337 LINE"
);
}
);
width = 621;
},
{
layerId = "ECACF70C-BE42-4FA5-B3A0-AFDA71FB1D31";
paths = (
{
closed = 1;
nodes = (
"259 0 LINE",
"259 223 LINE",
"330 223 LINE",
"454 0 LINE",
"646 0 LINE",
"485 249 LINE",
"562 274 OFFCURVE",
"619 340 OFFCURVE",
"619 450 CURVE SMOOTH",
"619 591 OFFCURVE",
"509 667 OFFCURVE",
"350 667 CURVE SMOOTH",
"87 667 LINE",
"87 0 LINE"
);
},
{
closed = 1;
nodes = (
"345 -194 OFFCURVE",
"403 -130 OFFCURVE",
"401 -50 CURVE",
"306 -50 LINE",
"307 -97 OFFCURVE",
"298 -124 OFFCURVE",
"268 -129 CURVE",
"268 -194 LINE"
);
},
{
closed = 1;
nodes = (
"259 527 LINE",
"361 527 LINE SMOOTH",
"406 527 OFFCURVE",
"447 493 OFFCURVE",
"447 439 CURVE SMOOTH",
"447 386 OFFCURVE",
"406 352 OFFCURVE",
"361 352 CURVE SMOOTH",
"259 352 LINE"
);
}
);
width = 682;
}
);
leftKerningGroup = B;
rightKerningGroup = R;
unicode = 0156;
},
{
glyphname = S;
lastChange = "2016-08-16 14:26:52 +0000";
layers = (
{
anchors = (
{
name = bottom;
position = "{279, 0}";
},
{
name = top;
position = "{279, 667}";
}
);
layerId = UUID0;
paths = (
{
closed = 1;
nodes = (
"443 -10 OFFCURVE",
"495 89 OFFCURVE",
"495 179 CURVE SMOOTH",
"495 306 OFFCURVE",
"391 344 OFFCURVE",
"298 376 CURVE SMOOTH",
"210 406 OFFCURVE",
"150 429 OFFCURVE",
"150 511 CURVE SMOOTH",
"150 563 OFFCURVE",
"187 611 OFFCURVE",
"285 611 CURVE SMOOTH",
"366 611 OFFCURVE",
"404 585 OFFCURVE",
"456 556 CURVE",
"456 630 LINE",
"394 660 OFFCURVE",
"359 677 OFFCURVE",
"281 677 CURVE SMOOTH",
"128 677 OFFCURVE",
"77 579 OFFCURVE",
"77 506 CURVE SMOOTH",
"77 375 OFFCURVE",
"173 343 OFFCURVE",
"264 312 CURVE",
"344 281 OFFCURVE",
"422 255 OFFCURVE",
"422 171 CURVE SMOOTH",
"422 104 OFFCURVE",
"378 56 OFFCURVE",
"277 56 CURVE SMOOTH",
"181 56 OFFCURVE",
"108 89 OFFCURVE",
"65 125 CURVE",
"65 47 LINE",
"130 12 OFFCURVE",
"173 -10 OFFCURVE",
"274 -10 CURVE SMOOTH"
);
}
);
width = 555;
},
{
anchors = (
{
name = bottom;
position = "{260, 0}";
},
{
name = top;
position = "{289, 667}";
}
);
layerId = "ECACF70C-BE42-4FA5-B3A0-AFDA71FB1D31";
paths = (
{
closed = 1;
nodes = (
"445 -25 OFFCURVE",
"546 67 OFFCURVE",
"546 202 CURVE",
"546 320 OFFCURVE",
"473 373 OFFCURVE",
"359 405 CURVE",
"288 425 OFFCURVE",
"235 443 OFFCURVE",
"235 487 CURVE",
"235 534 OFFCURVE",
"285 546 OFFCURVE",
"332 542 CURVE",
"391 537 OFFCURVE",
"465 499 OFFCURVE",
"510 459 CURVE",
"510 649 LINE",
"421 693 OFFCURVE",
"368 692 OFFCURVE",
"295 692 CURVE",
"122 692 OFFCURVE",
"30 588 OFFCURVE",
"30 462 CURVE",
"30 348 OFFCURVE",
"99 295 OFFCURVE",
"172 270 CURVE",
"267 238 OFFCURVE",
"340 217 OFFCURVE",
"340 177 CURVE",
"340 135 OFFCURVE",
"309 125 OFFCURVE",
"267 125 CURVE",
"208 125 OFFCURVE",
"121 157 OFFCURVE",
"51 212 CURVE",
"51 26 LINE",
"117 -6 OFFCURVE",
"198 -25 OFFCURVE",
"299 -25 CURVE"
);
}
);
width = 586;
}
);
leftKerningGroup = S;
rightKerningGroup = S;
unicode = 0053;
},
{
glyphname = Sacute;
lastChange = "2016-08-15 14:10:26 +0000";
layers = (
{
layerId = UUID0;
paths = (
{
closed = 1;
nodes = (
"412 -8 OFFCURVE",
"501 59 OFFCURVE",
"501 170 CURVE SMOOTH",
"501 425 OFFCURVE",
"133 344 OFFCURVE",
"133 490 CURVE SMOOTH",
"133 564 OFFCURVE",
"191 604 OFFCURVE",
"298 604 CURVE SMOOTH",
"366 604 OFFCURVE",
"420 583 OFFCURVE",
"458 562 CURVE",
"458 636 LINE",
"415 657 OFFCURVE",
"359 676 OFFCURVE",
"290 676 CURVE SMOOTH",
"121 676 OFFCURVE",
"61 580 OFFCURVE",
"61 490 CURVE SMOOTH",
"61 267 OFFCURVE",
"429 365 OFFCURVE",
"429 170 CURVE SMOOTH",
"429 82 OFFCURVE",
"336 64 OFFCURVE",
"258 64 CURVE SMOOTH",
"168 64 OFFCURVE",
"106 91 OFFCURVE",
"67 117 CURVE",
"67 39 LINE",
"114 14 OFFCURVE",
"178 -8 OFFCURVE",
"263 -8 CURVE SMOOTH"
);
},
{
closed = 1;
nodes = (
"294 725 LINE",
"377 839 LINE",
"303 839 LINE",
"246 725 LINE"
);
}
);
width = 562;
},
{
components = (
{
name = S;
},
{
name = acutecomb.case;
transform = "{1, 0, 0, 1, 180, 168}";
}
);
layerId = "ECACF70C-BE42-4FA5-B3A0-AFDA71FB1D31";
width = 586;
}
);
leftKerningGroup = S;
rightKerningGroup = S;
unicode = 015A;
},
{
glyphname = Scaron;
lastChange = "2016-08-15 14:10:26 +0000";
layers = (
{
layerId = UUID0;
paths = (
{
closed = 1;
nodes = (
"412 -8 OFFCURVE",
"501 59 OFFCURVE",
"501 170 CURVE SMOOTH",
"501 425 OFFCURVE",
"133 344 OFFCURVE",
"133 490 CURVE SMOOTH",
"133 564 OFFCURVE",
"191 604 OFFCURVE",
"298 604 CURVE SMOOTH",
"366 604 OFFCURVE",
"420 583 OFFCURVE",
"458 562 CURVE",
"458 636 LINE",
"415 657 OFFCURVE",
"359 676 OFFCURVE",
"290 676 CURVE SMOOTH",
"121 676 OFFCURVE",
"61 580 OFFCURVE",
"61 490 CURVE SMOOTH",
"61 267 OFFCURVE",
"429 365 OFFCURVE",
"429 170 CURVE SMOOTH",
"429 82 OFFCURVE",
"336 64 OFFCURVE",
"258 64 CURVE SMOOTH",
"168 64 OFFCURVE",
"106 91 OFFCURVE",
"67 117 CURVE",
"67 39 LINE",
"114 14 OFFCURVE",
"178 -8 OFFCURVE",
"263 -8 CURVE SMOOTH"
);
},
{
closed = 1;
nodes = (
"307 725 LINE",
"387 845 LINE",
"331 845 LINE",
"286 774 LINE",
"241 845 LINE",
"185 845 LINE",
"265 725 LINE"
);
}
);
width = 562;
},
{
components = (
{
name = S;
},
{
name = caroncomb.case;
transform = "{1, 0, 0, 1, 73, 168}";
}
);
layerId = "ECACF70C-BE42-4FA5-B3A0-AFDA71FB1D31";
width = 586;
}
);
leftKerningGroup = S;
rightKerningGroup = S;
unicode = 0160;
},
{
glyphname = Scedilla;
lastChange = "2016-08-15 14:10:26 +0000";
layers = (
{
layerId = UUID0;
paths = (
{
closed = 1;
nodes = (
"242 -119 LINE",
"303 -6 LINE",
"428 5 OFFCURVE",
"501 69 OFFCURVE",
"501 170 CURVE SMOOTH",
"501 425 OFFCURVE",
"133 344 OFFCURVE",
"133 490 CURVE SMOOTH",
"133 564 OFFCURVE",
"191 604 OFFCURVE",
"298 604 CURVE SMOOTH",
"366 604 OFFCURVE",
"420 583 OFFCURVE",
"458 562 CURVE",
"458 636 LINE",
"415 657 OFFCURVE",
"359 676 OFFCURVE",
"290 676 CURVE SMOOTH",
"121 676 OFFCURVE",
"61 580 OFFCURVE",
"61 490 CURVE SMOOTH",
"61 267 OFFCURVE",
"429 365 OFFCURVE",
"429 170 CURVE SMOOTH",
"429 82 OFFCURVE",
"336 64 OFFCURVE",
"258 64 CURVE SMOOTH",
"168 64 OFFCURVE",
"106 91 OFFCURVE",
"67 117 CURVE",
"67 39 LINE",
"110 15 OFFCURVE",
"169 -5 OFFCURVE",
"245 -8 CURVE",
"166 -119 LINE"
);
}
);
width = 562;
},
{
components = (
{
name = S;
},
{
name = cedillacomb.case;
transform = "{1, 0, 0, 1, 118, 0}";
}
);
layerId = "ECACF70C-BE42-4FA5-B3A0-AFDA71FB1D31";
width = 586;
}
);
leftKerningGroup = S;
rightKerningGroup = S;
unicode = 015E;
},
{
glyphname = Scircumflex;
lastChange = "2016-08-15 14:10:26 +0000";
layers = (
{
layerId = UUID0;
paths = (
{
closed = 1;
nodes = (
"412 -8 OFFCURVE",
"501 59 OFFCURVE",
"501 170 CURVE SMOOTH",
"501 425 OFFCURVE",
"133 344 OFFCURVE",
"133 490 CURVE SMOOTH",
"133 564 OFFCURVE",
"191 604 OFFCURVE",
"298 604 CURVE SMOOTH",
"366 604 OFFCURVE",
"420 583 OFFCURVE",
"458 562 CURVE",
"458 636 LINE",
"415 657 OFFCURVE",
"359 676 OFFCURVE",
"290 676 CURVE SMOOTH",
"121 676 OFFCURVE",
"61 580 OFFCURVE",
"61 490 CURVE SMOOTH",
"61 267 OFFCURVE",
"429 365 OFFCURVE",
"429 170 CURVE SMOOTH",
"429 82 OFFCURVE",
"336 64 OFFCURVE",
"258 64 CURVE SMOOTH",
"168 64 OFFCURVE",
"106 91 OFFCURVE",
"67 117 CURVE",
"67 39 LINE",
"114 14 OFFCURVE",
"178 -8 OFFCURVE",
"263 -8 CURVE SMOOTH"
);
},
{
closed = 1;
nodes = (
"241 725 LINE",
"286 795 LINE",
"331 725 LINE",
"387 725 LINE",
"307 845 LINE",
"265 845 LINE",
"185 725 LINE"
);
}
);
width = 562;
},
{
components = (
{
name = S;
},
{
name = circumflexcomb.case;
transform = "{1, 0, 0, 1, 78, 73}";
}
);
layerId = "ECACF70C-BE42-4FA5-B3A0-AFDA71FB1D31";
width = 586;
}
);
leftKerningGroup = S;
rightKerningGroup = S;
unicode = 015C;
},
{
glyphname = Scommaaccent;
lastChange = "2016-08-15 14:09:21 +0000";
layers = (
{
layerId = UUID0;
paths = (
{
closed = 1;
nodes = (
"412 -8 OFFCURVE",
"501 59 OFFCURVE",
"501 170 CURVE SMOOTH",
"501 425 OFFCURVE",
"133 344 OFFCURVE",
"133 490 CURVE SMOOTH",
"133 564 OFFCURVE",
"191 604 OFFCURVE",
"298 604 CURVE SMOOTH",
"366 604 OFFCURVE",
"420 583 OFFCURVE",
"458 562 CURVE",
"458 636 LINE",
"415 657 OFFCURVE",
"359 676 OFFCURVE",
"290 676 CURVE SMOOTH",
"121 676 OFFCURVE",
"61 580 OFFCURVE",
"61 490 CURVE SMOOTH",
"61 267 OFFCURVE",
"429 365 OFFCURVE",
"429 170 CURVE SMOOTH",
"429 82 OFFCURVE",
"336 64 OFFCURVE",
"258 64 CURVE SMOOTH",
"168 64 OFFCURVE",
"106 91 OFFCURVE",
"67 117 CURVE",
"67 39 LINE",
"114 14 OFFCURVE",
"178 -8 OFFCURVE",
"263 -8 CURVE SMOOTH"
);
},
{
closed = 1;
nodes = (
"262 -182 OFFCURVE",
"318 -145 OFFCURVE",
"318 -49 CURVE",
"258 -49 LINE",
"258 -78 OFFCURVE",
"255 -124 OFFCURVE",
"218 -138 CURVE",
"218 -193 LINE"
);
}
);
width = 562;
},
{
components = (
{
name = S;
},
{
name = commaaccentcomb.case;
transform = "{1, 0, 0, 1, 110, 0}";
}
);
layerId = "ECACF70C-BE42-4FA5-B3A0-AFDA71FB1D31";
width = 586;
}
);
leftKerningGroup = S;
rightKerningGroup = S;
unicode = 0218;
},
{
glyphname = T;
lastChange = "2016-08-16 14:36:00 +0000";
layers = (
{
layerId = UUID0;
paths = (
{
closed = 1;
nodes = (
"328 0 LINE",
"328 599 LINE",
"563 599 LINE",
"563 667 LINE",
"20 667 LINE",
"20 599 LINE",
"256 599 LINE",
"256 0 LINE"
);
}
);
width = 583;
},
{
layerId = "ECACF70C-BE42-4FA5-B3A0-AFDA71FB1D31";
paths = (
{
closed = 1;
nodes = (
"392 0 LINE",
"392 517 LINE",
"563 517 LINE",
"563 667 LINE",
"25 667 LINE",
"25 517 LINE",
"192 517 LINE",
"192 0 LINE"
);
}
);
width = 588;
}
);
leftKerningGroup = T;
rightKerningGroup = T;
unicode = 0054;
},
{
glyphname = Tbar;
lastChange = "2016-08-05 09:29:49 +0000";
layers = (
{
layerId = UUID0;
paths = (
{
closed = 1;
nodes = (
"320 0 LINE",
"320 304 LINE",
"460 304 LINE",
"460 365 LINE",
"320 365 LINE",
"320 597 LINE",
"555 597 LINE",
"555 667 LINE",
"12 667 LINE",
"12 597 LINE",
"248 597 LINE",
"248 365 LINE",
"107 365 LINE",
"107 304 LINE",
"248 304 LINE",
"248 0 LINE"
);
}
);
width = 568;
},
{
layerId = "ECACF70C-BE42-4FA5-B3A0-AFDA71FB1D31";
paths = (
{
closed = 1;
nodes = (
"376 0 LINE",
"376 263 LINE",
"482 263 LINE",
"482 361 LINE",
"376 361 LINE",
"376 511 LINE",
"570 511 LINE",
"570 667 LINE",
"12 667 LINE",
"12 511 LINE",
"204 511 LINE",
"204 361 LINE",
"100 361 LINE",
"100 263 LINE",
"204 263 LINE",
"204 0 LINE"
);
}
);
width = 582;
}
);
unicode = 0166;
},
{
glyphname = Tcaron;
lastChange = "2016-08-05 09:29:49 +0000";
layers = (
{
layerId = UUID0;
paths = (
{
closed = 1;
nodes = (
"320 0 LINE",
"320 597 LINE",
"555 597 LINE",
"555 667 LINE",
"12 667 LINE",
"12 597 LINE",
"248 597 LINE",
"248 0 LINE"
);
},
{
closed = 1;
nodes = (
"304 724 LINE",
"385 845 LINE",
"329 845 LINE",
"284 774 LINE",
"238 845 LINE",
"182 845 LINE",
"263 724 LINE"
);
}
);
width = 568;
},
{
layerId = "ECACF70C-BE42-4FA5-B3A0-AFDA71FB1D31";
paths = (
{
closed = 1;
nodes = (
"376 0 LINE",
"376 511 LINE",
"570 511 LINE",
"570 667 LINE",
"12 667 LINE",
"12 511 LINE",
"204 511 LINE",
"204 0 LINE"
);
},
{
closed = 1;
nodes = (
"315 724 LINE",
"435 846 LINE",
"333 846 LINE",
"291 802 LINE",
"249 846 LINE",
"147 846 LINE",
"267 724 LINE"
);
}
);
width = 582;
}
);
leftKerningGroup = T;
rightKerningGroup = T;
unicode = 0164;
},
{
glyphname = Tcommaaccent;
lastChange = "2016-08-05 09:29:49 +0000";
layers = (
{
layerId = UUID0;
paths = (
{
closed = 1;
nodes = (
"320 0 LINE",
"320 597 LINE",
"555 597 LINE",
"555 667 LINE",
"12 667 LINE",
"12 597 LINE",
"248 597 LINE",
"248 0 LINE"
);
},
{
closed = 1;
nodes = (
"257 -183 OFFCURVE",
"313 -145 OFFCURVE",
"313 -49 CURVE",
"254 -49 LINE",
"254 -78 OFFCURVE",
"250 -124 OFFCURVE",
"213 -139 CURVE",
"213 -193 LINE"
);
}
);
width = 568;
},
{
layerId = "ECACF70C-BE42-4FA5-B3A0-AFDA71FB1D31";
paths = (
{
closed = 1;
nodes = (
"376 0 LINE",
"376 511 LINE",
"570 511 LINE",
"570 667 LINE",
"12 667 LINE",
"12 511 LINE",
"204 511 LINE",
"204 0 LINE"
);
},
{
closed = 1;
nodes = (
"285 -194 OFFCURVE",
"343 -130 OFFCURVE",
"341 -50 CURVE",
"246 -50 LINE",
"247 -97 OFFCURVE",
"238 -124 OFFCURVE",
"208 -129 CURVE",
"208 -194 LINE"
);
}
);
width = 582;
}
);
leftKerningGroup = T;
rightKerningGroup = T;
unicode = 0162;
},
{
glyphname = U;
lastChange = "2016-08-16 14:34:06 +0000";
layers = (
{
anchors = (
{
name = bottom;
position = "{356, 0}";
},
{
name = ogonek;
position = "{641, 10}";
},
{
name = top;
position = "{356, 667}";
},
{
name = topright;
position = "{692, 667}";
}
);
layerId = UUID0;
paths = (
{
closed = 1;
nodes = (
"531 -10 OFFCURVE",
"627 90 OFFCURVE",
"627 272 CURVE SMOOTH",
"627 667 LINE",
"555 667 LINE",
"555 268 LINE SMOOTH",
"555 125 OFFCURVE",
"490 56 OFFCURVE",
"356 56 CURVE SMOOTH",
"222 56 OFFCURVE",
"157 125 OFFCURVE",
"157 268 CURVE SMOOTH",
"157 667 LINE",
"85 667 LINE",
"85 272 LINE SMOOTH",
"85 90 OFFCURVE",
"181 -10 OFFCURVE",
"356 -10 CURVE SMOOTH"
);
}
);
width = 712;
},
{
anchors = (
{
name = bottom;
position = "{370, 0}";
},
{
name = ogonek;
position = "{666, 10}";
},
{
name = top;
position = "{370, 667}";
},
{
name = topright;
position = "{631, 539}";
}
);
layerId = "ECACF70C-BE42-4FA5-B3A0-AFDA71FB1D31";
paths = (
{
closed = 1;
nodes = (
"554 -25 OFFCURVE",
"675 52 OFFCURVE",
"675 239 CURVE",
"675 667 LINE",
"485 667 LINE",
"485 251 LINE",
"485 166 OFFCURVE",
"445 125 OFFCURVE",
"375 125 CURVE",
"304 125 OFFCURVE",
"275 166 OFFCURVE",
"275 251 CURVE",
"275 667 LINE",
"65 667 LINE",
"65 239 LINE",
"65 52 OFFCURVE",
"170 -25 OFFCURVE",
"391 -25 CURVE"
);
}
);
width = 740;
}
);
leftKerningGroup = U;
leftMetricsKey = H;
rightKerningGroup = U;
rightMetricsKey = H;
unicode = 0055;
},
{
glyphname = Uacute;
lastChange = "2016-08-15 16:48:09 +0000";
layers = (
{
layerId = UUID0;
paths = (
{
closed = 1;
nodes = (
"533 -8 OFFCURVE",
"629 92 OFFCURVE",
"629 274 CURVE SMOOTH",
"629 667 LINE",
"557 667 LINE",
"557 270 LINE SMOOTH",
"557 127 OFFCURVE",
"492 58 OFFCURVE",
"358 58 CURVE SMOOTH",
"224 58 OFFCURVE",
"159 127 OFFCURVE",
"159 270 CURVE SMOOTH",
"159 667 LINE",
"87 667 LINE",
"87 274 LINE SMOOTH",
"87 92 OFFCURVE",
"183 -8 OFFCURVE",
"358 -8 CURVE SMOOTH"
);
},
{
closed = 1;
nodes = (
"379 724 LINE",
"462 839 LINE",
"388 839 LINE",
"331 724 LINE"
);
}
);
width = 721;
},
{
components = (
{
name = U;
},
{
name = acutecomb.case;
transform = "{1, 0, 0, 1, 261, 168}";
}
);
layerId = "ECACF70C-BE42-4FA5-B3A0-AFDA71FB1D31";
width = 740;
}
);
leftKerningGroup = U;
rightKerningGroup = U;
unicode = 00DA;
},
{
glyphname = Ubreve;
lastChange = "2016-08-15 16:48:09 +0000";
layers = (
{
layerId = UUID0;
paths = (
{
closed = 1;
nodes = (
"533 -8 OFFCURVE",
"629 92 OFFCURVE",
"629 274 CURVE SMOOTH",
"629 667 LINE",
"557 667 LINE",
"557 270 LINE SMOOTH",
"557 127 OFFCURVE",
"492 58 OFFCURVE",
"358 58 CURVE SMOOTH",
"224 58 OFFCURVE",
"159 127 OFFCURVE",
"159 270 CURVE SMOOTH",
"159 667 LINE",
"87 667 LINE",
"87 274 LINE SMOOTH",
"87 92 OFFCURVE",
"183 -8 OFFCURVE",
"358 -8 CURVE SMOOTH"
);
},
{
closed = 1;
nodes = (
"424 705 OFFCURVE",
"463 744 OFFCURVE",
"463 809 CURVE",
"415 809 LINE",
"415 770 OFFCURVE",
"398 753 OFFCURVE",
"358 753 CURVE SMOOTH",
"318 753 OFFCURVE",
"301 770 OFFCURVE",
"301 809 CURVE",
"253 809 LINE",
"253 744 OFFCURVE",
"292 705 OFFCURVE",
"358 705 CURVE SMOOTH"
);
}
);
width = 721;
},
{
components = (
{
name = U;
},
{
name = brevecomb.case;
transform = "{1, 0, 0, 1, 149, 168}";
}
);
layerId = "ECACF70C-BE42-4FA5-B3A0-AFDA71FB1D31";
width = 740;
}
);
leftKerningGroup = U;
rightKerningGroup = U;
unicode = 016C;
},
{
glyphname = Ucaron;
lastChange = "2016-08-15 16:48:09 +0000";
layers = (
{
layerId = UUID0;
paths = (
{
closed = 1;
nodes = (
"533 -8 OFFCURVE",
"629 92 OFFCURVE",
"629 274 CURVE SMOOTH",
"629 667 LINE",
"557 667 LINE",
"557 270 LINE SMOOTH",
"557 127 OFFCURVE",
"492 58 OFFCURVE",
"358 58 CURVE SMOOTH",
"224 58 OFFCURVE",
"159 127 OFFCURVE",
"159 270 CURVE SMOOTH",
"159 667 LINE",
"87 667 LINE",
"87 274 LINE SMOOTH",
"87 92 OFFCURVE",
"183 -8 OFFCURVE",
"358 -8 CURVE SMOOTH"
);
},
{
closed = 1;
nodes = (
"379 724 LINE",
"459 845 LINE",
"403 845 LINE",
"358 774 LINE",
"313 845 LINE",
"257 845 LINE",
"337 724 LINE"
);
}
);
width = 721;
},
{
components = (
{
name = U;
},
{
name = caroncomb.case;
transform = "{1, 0, 0, 1, 154, 168}";
}
);
layerId = "ECACF70C-BE42-4FA5-B3A0-AFDA71FB1D31";
width = 740;
}
);
leftKerningGroup = U;
rightKerningGroup = U;
unicode = 01D3;
},
{
glyphname = Ucircumflex;
lastChange = "2016-08-15 16:48:09 +0000";
layers = (
{
layerId = UUID0;
paths = (
{
closed = 1;
nodes = (
"533 -8 OFFCURVE",
"629 92 OFFCURVE",
"629 274 CURVE SMOOTH",
"629 667 LINE",
"557 667 LINE",
"557 270 LINE SMOOTH",
"557 127 OFFCURVE",
"492 58 OFFCURVE",
"358 58 CURVE SMOOTH",
"224 58 OFFCURVE",
"159 127 OFFCURVE",
"159 270 CURVE SMOOTH",
"159 667 LINE",
"87 667 LINE",
"87 274 LINE SMOOTH",
"87 92 OFFCURVE",
"183 -8 OFFCURVE",
"358 -8 CURVE SMOOTH"
);
},
{
closed = 1;
nodes = (
"313 724 LINE",
"358 795 LINE",
"403 724 LINE",
"459 724 LINE",
"379 845 LINE",
"337 845 LINE",
"257 724 LINE"
);
}
);
width = 721;
},
{
components = (
{
name = U;
},
{
name = circumflexcomb.case;
transform = "{1, 0, 0, 1, 159, 73}";
}
);
layerId = "ECACF70C-BE42-4FA5-B3A0-AFDA71FB1D31";
width = 740;
}
);
leftKerningGroup = U;
rightKerningGroup = U;
unicode = 00DB;
},
{
glyphname = Udieresis;
lastChange = "2016-08-15 16:48:09 +0000";
layers = (
{
layerId = UUID0;
paths = (
{
closed = 1;
nodes = (
"533 -8 OFFCURVE",
"629 92 OFFCURVE",
"629 274 CURVE SMOOTH",
"629 667 LINE",
"557 667 LINE",
"557 270 LINE SMOOTH",
"557 127 OFFCURVE",
"492 58 OFFCURVE",
"358 58 CURVE SMOOTH",
"224 58 OFFCURVE",
"159 127 OFFCURVE",
"159 270 CURVE SMOOTH",
"159 667 LINE",
"87 667 LINE",
"87 274 LINE SMOOTH",
"87 92 OFFCURVE",
"183 -8 OFFCURVE",
"358 -8 CURVE SMOOTH"
);
},
{
closed = 1;
nodes = (
"324 724 LINE",
"324 804 LINE",
"244 804 LINE",
"244 724 LINE"
);
},
{
closed = 1;
nodes = (
"472 724 LINE",
"472 804 LINE",
"392 804 LINE",
"392 724 LINE"
);
}
);
width = 721;
},
{
components = (
{
name = U;
},
{
name = dieresiscomb.case;
transform = "{1, 0, 0, 1, 156, 168}";
}
);
layerId = "ECACF70C-BE42-4FA5-B3A0-AFDA71FB1D31";
width = 740;
}
);
leftKerningGroup = U;
rightKerningGroup = U;
unicode = 00DC;
},
{
glyphname = Udotbelow;
lastChange = "2016-08-15 16:48:09 +0000";
layers = (
{
layerId = UUID0;
paths = (
{
closed = 1;
nodes = (
"533 -8 OFFCURVE",
"629 92 OFFCURVE",
"629 274 CURVE SMOOTH",
"629 667 LINE",
"557 667 LINE",
"557 270 LINE SMOOTH",
"557 127 OFFCURVE",
"492 58 OFFCURVE",
"358 58 CURVE SMOOTH",
"224 58 OFFCURVE",
"159 127 OFFCURVE",
"159 270 CURVE SMOOTH",
"159 667 LINE",
"87 667 LINE",
"87 274 LINE SMOOTH",
"87 92 OFFCURVE",
"183 -8 OFFCURVE",
"358 -8 CURVE SMOOTH"
);
},
{
closed = 1;
nodes = (
"397 -129 LINE",
"397 -50 LINE",
"318 -50 LINE",
"318 -129 LINE"
);
}
);
width = 721;
},
{
components = (
{
name = U;
},
{
name = dotbelowcomb.case;
transform = "{1, 0, 0, 1, 260, 0}";
}
);
layerId = "ECACF70C-BE42-4FA5-B3A0-AFDA71FB1D31";
width = 740;
}
);
leftKerningGroup = U;
rightKerningGroup = U;
unicode = 1EE4;
},
{
glyphname = Ugrave;
lastChange = "2016-08-15 16:48:09 +0000";
layers = (
{
layerId = UUID0;
paths = (
{
closed = 1;
nodes = (
"533 -8 OFFCURVE",
"629 92 OFFCURVE",
"629 274 CURVE SMOOTH",
"629 667 LINE",
"557 667 LINE",
"557 270 LINE SMOOTH",
"557 127 OFFCURVE",
"492 58 OFFCURVE",
"358 58 CURVE SMOOTH",
"224 58 OFFCURVE",
"159 127 OFFCURVE",
"159 270 CURVE SMOOTH",
"159 667 LINE",
"87 667 LINE",
"87 274 LINE SMOOTH",
"87 92 OFFCURVE",
"183 -8 OFFCURVE",
"358 -8 CURVE SMOOTH"
);
},
{
closed = 1;
nodes = (
"385 724 LINE",
"328 839 LINE",
"254 839 LINE",
"338 724 LINE"
);
}
);
width = 721;
},
{
components = (
{
name = U;
},
{
name = gravecomb.case;
transform = "{1, 0, 0, 1, 235, 168}";
}
);
layerId = "ECACF70C-BE42-4FA5-B3A0-AFDA71FB1D31";
width = 740;
}
);
leftKerningGroup = U;
rightKerningGroup = U;
unicode = 00D9;
},
{
glyphname = Uhookabove;
lastChange = "2016-08-15 16:48:09 +0000";
layers = (
{
layerId = UUID0;
paths = (
{
closed = 1;
nodes = (
"533 -8 OFFCURVE",
"629 92 OFFCURVE",
"629 274 CURVE SMOOTH",
"629 667 LINE",
"557 667 LINE",
"557 270 LINE SMOOTH",
"557 127 OFFCURVE",
"492 58 OFFCURVE",
"358 58 CURVE SMOOTH",
"224 58 OFFCURVE",
"159 127 OFFCURVE",
"159 270 CURVE SMOOTH",
"159 667 LINE",
"87 667 LINE",
"87 274 LINE SMOOTH",
"87 92 OFFCURVE",
"183 -8 OFFCURVE",
"358 -8 CURVE SMOOTH"
);
},
{
closed = 1;
nodes = (
"380 724 LINE",
"380 748 LINE",
"416 754 OFFCURVE",
"432 775 OFFCURVE",
"432 802 CURVE SMOOTH",
"432 855 OFFCURVE",
"382 869 OFFCURVE",
"340 869 CURVE SMOOTH",
"329 869 OFFCURVE",
"319 868 OFFCURVE",
"309 867 CURVE",
"309 823 LINE",
"317 825 OFFCURVE",
"326 826 OFFCURVE",
"336 826 CURVE SMOOTH",
"366 826 OFFCURVE",
"384 816 OFFCURVE",
"384 799 CURVE SMOOTH",
"384 790 OFFCURVE",
"374 777 OFFCURVE",
"346 776 CURVE",
"346 724 LINE"
);
}
);
width = 721;
},
{
components = (
{
name = U;
},
{
name = hookabovecomb.case;
transform = "{1, 0, 0, 1, 249, 171}";
}
);
layerId = "ECACF70C-BE42-4FA5-B3A0-AFDA71FB1D31";
width = 740;
}
);
leftKerningGroup = U;
rightKerningGroup = U;
unicode = 1EE6;
},
{
glyphname = Uhorn;
lastChange = "2016-08-15 16:48:20 +0000";
layers = (
{
layerId = UUID0;
paths = (
{
closed = 1;
nodes = (
"533 -8 OFFCURVE",
"629 92 OFFCURVE",
"629 274 CURVE SMOOTH",
"629 523 LINE",
"657 523 OFFCURVE",
"694 534 OFFCURVE",
"741 564 CURVE SMOOTH",
"824 617 LINE",
"769 702 LINE",
"683 648 LINE",
"715 599 LINE",
"680 575 OFFCURVE",
"651 565 OFFCURVE",
"629 565 CURVE",
"629 667 LINE",
"557 667 LINE",
"557 270 LINE SMOOTH",
"557 127 OFFCURVE",
"492 58 OFFCURVE",
"358 58 CURVE SMOOTH",
"224 58 OFFCURVE",
"159 127 OFFCURVE",
"159 270 CURVE SMOOTH",
"159 667 LINE",
"87 667 LINE",
"87 274 LINE SMOOTH",
"87 92 OFFCURVE",
"183 -8 OFFCURVE",
"358 -8 CURVE SMOOTH"
);
}
);
width = 792;
},
{
components = (
{
name = U;
},
{
name = horncomb.case;
transform = "{1, 0, 0, 1, 597, 41}";
}
);
layerId = "ECACF70C-BE42-4FA5-B3A0-AFDA71FB1D31";
width = 740;
}
);
unicode = 01AF;
},
{
glyphname = Uhornacute;
lastChange = "2016-08-15 16:48:21 +0000";
layers = (
{
layerId = UUID0;
paths = (
{
closed = 1;
nodes = (
"533 -8 OFFCURVE",
"629 92 OFFCURVE",
"629 274 CURVE SMOOTH",
"629 523 LINE",
"657 523 OFFCURVE",
"694 534 OFFCURVE",
"741 564 CURVE SMOOTH",
"824 617 LINE",
"769 702 LINE",
"683 648 LINE",
"715 599 LINE",
"680 575 OFFCURVE",
"651 565 OFFCURVE",
"629 565 CURVE",
"629 667 LINE",
"557 667 LINE",
"557 270 LINE SMOOTH",
"557 127 OFFCURVE",
"492 58 OFFCURVE",
"358 58 CURVE SMOOTH",
"224 58 OFFCURVE",
"159 127 OFFCURVE",
"159 270 CURVE SMOOTH",
"159 667 LINE",
"87 667 LINE",
"87 274 LINE SMOOTH",
"87 92 OFFCURVE",
"183 -8 OFFCURVE",
"358 -8 CURVE SMOOTH"
);
},
{
closed = 1;
nodes = (
"379 724 LINE",
"462 839 LINE",
"388 839 LINE",
"331 724 LINE"
);
}
);
width = 792;
},
{
components = (
{
name = Uhorn;
},
{
name = acutecomb.case;
transform = "{1, 0, 0, 1, 261, 168}";
}
);
layerId = "ECACF70C-BE42-4FA5-B3A0-AFDA71FB1D31";
width = 740;
}
);
leftKerningGroup = U;
rightKerningGroup = U;
unicode = 1EE8;
},
{
glyphname = Uhorndotbelow;
lastChange = "2016-08-15 16:48:21 +0000";
layers = (
{
layerId = UUID0;
paths = (
{
closed = 1;
nodes = (
"533 -8 OFFCURVE",
"629 92 OFFCURVE",
"629 274 CURVE SMOOTH",
"629 523 LINE",
"657 523 OFFCURVE",
"694 534 OFFCURVE",
"741 564 CURVE SMOOTH",
"824 617 LINE",
"769 702 LINE",
"683 648 LINE",
"715 599 LINE",
"680 575 OFFCURVE",
"651 565 OFFCURVE",
"629 565 CURVE",
"629 667 LINE",
"557 667 LINE",
"557 270 LINE SMOOTH",
"557 127 OFFCURVE",
"492 58 OFFCURVE",
"358 58 CURVE SMOOTH",
"224 58 OFFCURVE",
"159 127 OFFCURVE",
"159 270 CURVE SMOOTH",
"159 667 LINE",
"87 667 LINE",
"87 274 LINE SMOOTH",
"87 92 OFFCURVE",
"183 -8 OFFCURVE",
"358 -8 CURVE SMOOTH"
);
},
{
closed = 1;
nodes = (
"397 -129 LINE",
"397 -50 LINE",
"318 -50 LINE",
"318 -129 LINE"
);
}
);
width = 792;
},
{
components = (
{
name = Uhorn;
},
{
name = dotbelowcomb.case;
transform = "{1, 0, 0, 1, 260, 0}";
}
);
layerId = "ECACF70C-BE42-4FA5-B3A0-AFDA71FB1D31";
width = 740;
}
);
leftKerningGroup = U;
rightKerningGroup = U;
unicode = 1EF0;
},
{
glyphname = Uhorngrave;
lastChange = "2016-08-15 16:48:21 +0000";
layers = (
{
layerId = UUID0;
paths = (
{
closed = 1;
nodes = (
"533 -8 OFFCURVE",
"629 92 OFFCURVE",
"629 274 CURVE SMOOTH",
"629 523 LINE",
"657 523 OFFCURVE",
"694 534 OFFCURVE",
"741 564 CURVE SMOOTH",
"824 617 LINE",
"769 702 LINE",
"683 648 LINE",
"715 599 LINE",
"680 575 OFFCURVE",
"651 565 OFFCURVE",
"629 565 CURVE",
"629 667 LINE",
"557 667 LINE",
"557 270 LINE SMOOTH",
"557 127 OFFCURVE",
"492 58 OFFCURVE",
"358 58 CURVE SMOOTH",
"224 58 OFFCURVE",
"159 127 OFFCURVE",
"159 270 CURVE SMOOTH",
"159 667 LINE",
"87 667 LINE",
"87 274 LINE SMOOTH",
"87 92 OFFCURVE",
"183 -8 OFFCURVE",
"358 -8 CURVE SMOOTH"
);
},
{
closed = 1;
nodes = (
"385 724 LINE",
"328 839 LINE",
"254 839 LINE",
"337 724 LINE"
);
}
);
width = 792;
},
{
components = (
{
name = Uhorn;
},
{
name = gravecomb.case;
transform = "{1, 0, 0, 1, 235, 168}";
}
);
layerId = "ECACF70C-BE42-4FA5-B3A0-AFDA71FB1D31";
width = 740;
}
);
leftKerningGroup = U;
rightKerningGroup = U;
unicode = 1EEA;
},
{
glyphname = Uhornhookabove;
lastChange = "2016-08-15 16:48:21 +0000";
layers = (
{
layerId = UUID0;
paths = (
{
closed = 1;
nodes = (
"533 -8 OFFCURVE",
"629 92 OFFCURVE",
"629 274 CURVE SMOOTH",
"629 523 LINE",
"657 523 OFFCURVE",
"694 534 OFFCURVE",
"741 564 CURVE SMOOTH",
"824 617 LINE",
"769 702 LINE",
"683 648 LINE",
"715 599 LINE",
"680 575 OFFCURVE",
"651 565 OFFCURVE",
"629 565 CURVE",
"629 667 LINE",
"557 667 LINE",
"557 270 LINE SMOOTH",
"557 127 OFFCURVE",
"492 58 OFFCURVE",
"358 58 CURVE SMOOTH",
"224 58 OFFCURVE",
"159 127 OFFCURVE",
"159 270 CURVE SMOOTH",
"159 667 LINE",
"87 667 LINE",
"87 274 LINE SMOOTH",
"87 92 OFFCURVE",
"183 -8 OFFCURVE",
"358 -8 CURVE SMOOTH"
);
},
{
closed = 1;
nodes = (
"380 724 LINE",
"380 748 LINE",
"416 754 OFFCURVE",
"432 775 OFFCURVE",
"432 802 CURVE SMOOTH",
"432 855 OFFCURVE",
"382 869 OFFCURVE",
"340 869 CURVE SMOOTH",
"329 869 OFFCURVE",
"319 868 OFFCURVE",
"309 867 CURVE",
"309 823 LINE",
"317 825 OFFCURVE",
"326 826 OFFCURVE",
"336 826 CURVE SMOOTH",
"366 826 OFFCURVE",
"384 816 OFFCURVE",
"384 799 CURVE SMOOTH",
"384 790 OFFCURVE",
"374 777 OFFCURVE",
"346 776 CURVE",
"346 724 LINE"
);
}
);
width = 792;
},
{
components = (
{
name = Uhorn;
},
{
name = hookabovecomb.case;
transform = "{1, 0, 0, 1, 249, 171}";
}
);
layerId = "ECACF70C-BE42-4FA5-B3A0-AFDA71FB1D31";
width = 740;
}
);
leftKerningGroup = U;
rightKerningGroup = U;
unicode = 1EEC;
},
{
glyphname = Uhorntilde;
lastChange = "2016-08-15 16:48:09 +0000";
layers = (
{
layerId = UUID0;
paths = (
{
closed = 1;
nodes = (
"533 -8 OFFCURVE",
"629 92 OFFCURVE",
"629 274 CURVE SMOOTH",
"629 523 LINE",
"657 523 OFFCURVE",
"694 534 OFFCURVE",
"741 564 CURVE SMOOTH",
"824 617 LINE",
"769 702 LINE",
"683 648 LINE",
"715 599 LINE",
"680 575 OFFCURVE",
"651 565 OFFCURVE",
"629 565 CURVE",
"629 667 LINE",
"557 667 LINE",
"557 270 LINE SMOOTH",
"557 127 OFFCURVE",
"492 58 OFFCURVE",
"358 58 CURVE SMOOTH",
"224 58 OFFCURVE",
"159 127 OFFCURVE",
"159 270 CURVE SMOOTH",
"159 667 LINE",
"87 667 LINE",
"87 274 LINE SMOOTH",
"87 92 OFFCURVE",
"183 -8 OFFCURVE",
"358 -8 CURVE SMOOTH"
);
},
{
closed = 1;
nodes = (
"311 843 OFFCURVE",
"404 627 OFFCURVE",
"498 745 CURVE",
"498 800 LINE",
"404 683 OFFCURVE",
"311 899 OFFCURVE",
"217 782 CURVE",
"217 725 LINE"
);
}
);
width = 792;
},
{
components = (
{
name = Uhorn;
},
{
name = tildecomb.case;
transform = "{1, 0, 0, 1, 113, 168}";
}
);
layerId = "ECACF70C-BE42-4FA5-B3A0-AFDA71FB1D31";
width = 740;
}
);
leftKerningGroup = U;
rightKerningGroup = U;
unicode = 1EEE;
},
{
glyphname = Uhungarumlaut;
lastChange = "2016-08-15 16:48:09 +0000";
layers = (
{
layerId = UUID0;
paths = (
{
closed = 1;
nodes = (
"533 -8 OFFCURVE",
"629 92 OFFCURVE",
"629 274 CURVE SMOOTH",
"629 667 LINE",
"557 667 LINE",
"557 270 LINE SMOOTH",
"557 127 OFFCURVE",
"492 58 OFFCURVE",
"358 58 CURVE SMOOTH",
"224 58 OFFCURVE",
"159 127 OFFCURVE",
"159 270 CURVE SMOOTH",
"159 667 LINE",
"87 667 LINE",
"87 274 LINE SMOOTH",
"87 92 OFFCURVE",
"183 -8 OFFCURVE",
"358 -8 CURVE SMOOTH"
);
},
{
closed = 1;
nodes = (
"317 724 LINE",
"400 839 LINE",
"326 839 LINE",
"269 724 LINE"
);
},
{
closed = 1;
nodes = (
"436 724 LINE",
"519 839 LINE",
"445 839 LINE",
"389 724 LINE"
);
}
);
width = 721;
},
{
components = (
{
name = U;
},
{
name = hungarumlautcomb.case;
transform = "{1, 0, 0, 1, 185, 168}";
}
);
layerId = "ECACF70C-BE42-4FA5-B3A0-AFDA71FB1D31";
width = 740;
}
);
leftKerningGroup = U;
rightKerningGroup = U;
unicode = 0170;
},
{
glyphname = Umacron;
lastChange = "2016-08-15 16:48:09 +0000";
layers = (
{
layerId = UUID0;
paths = (
{
closed = 1;
nodes = (
"533 -8 OFFCURVE",
"629 92 OFFCURVE",
"629 274 CURVE SMOOTH",
"629 667 LINE",
"557 667 LINE",
"557 270 LINE SMOOTH",
"557 127 OFFCURVE",
"492 58 OFFCURVE",
"358 58 CURVE SMOOTH",
"224 58 OFFCURVE",
"159 127 OFFCURVE",
"159 270 CURVE SMOOTH",
"159 667 LINE",
"87 667 LINE",
"87 274 LINE SMOOTH",
"87 92 OFFCURVE",
"183 -8 OFFCURVE",
"358 -8 CURVE SMOOTH"
);
},
{
closed = 1;
nodes = (
"475 736 LINE",
"475 789 LINE",
"241 789 LINE",
"241 736 LINE"
);
}
);
width = 721;
},
{
components = (
{
name = U;
},
{
name = macroncomb.case;
transform = "{1, 0, 0, 1, 167, 168}";
}
);
layerId = "ECACF70C-BE42-4FA5-B3A0-AFDA71FB1D31";
width = 740;
}
);
leftKerningGroup = U;
rightKerningGroup = U;
unicode = 016A;
},
{
glyphname = Uogonek;
lastChange = "2016-08-15 16:48:09 +0000";
layers = (
{
layerId = UUID0;
paths = (
{
closed = 1;
nodes = (
"400 -173 OFFCURVE",
"437 -139 OFFCURVE",
"446 -99 CURVE",
"415 -99 LINE",
"405 -112 OFFCURVE",
"390 -129 OFFCURVE",
"371 -129 CURVE SMOOTH",
"357 -129 OFFCURVE",
"345 -121 OFFCURVE",
"345 -94 CURVE SMOOTH",
"345 -55 OFFCURVE",
"401 -15 OFFCURVE",
"419 -4 CURVE",
"555 18 OFFCURVE",
"628 114 OFFCURVE",
"628 274 CURVE SMOOTH",
"628 667 LINE",
"557 667 LINE",
"557 270 LINE SMOOTH",
"557 127 OFFCURVE",
"492 57 OFFCURVE",
"358 57 CURVE SMOOTH",
"224 57 OFFCURVE",
"159 127 OFFCURVE",
"159 270 CURVE SMOOTH",
"159 667 LINE",
"87 667 LINE",
"87 274 LINE SMOOTH",
"87 95 OFFCURVE",
"180 -5 OFFCURVE",
"350 -8 CURVE",
"326 -24 OFFCURVE",
"277 -63 OFFCURVE",
"277 -109 CURVE SMOOTH",
"277 -168 OFFCURVE",
"317 -173 OFFCURVE",
"343 -173 CURVE SMOOTH"
);
}
);
width = 721;
},
{
components = (
{
name = U;
},
{
name = ogonekcomb.case;
transform = "{1, 0, 0, 1, 367, 0}";
}
);
layerId = "ECACF70C-BE42-4FA5-B3A0-AFDA71FB1D31";
width = 740;
}
);
leftKerningGroup = U;
rightKerningGroup = U;
unicode = 0172;
},
{
glyphname = Uring;
lastChange = "2016-08-15 16:48:09 +0000";
layers = (
{
layerId = UUID0;
paths = (
{
closed = 1;
nodes = (
"533 -8 OFFCURVE",
"629 92 OFFCURVE",
"629 274 CURVE SMOOTH",
"629 667 LINE",
"557 667 LINE",
"557 270 LINE SMOOTH",
"557 127 OFFCURVE",
"492 58 OFFCURVE",
"358 58 CURVE SMOOTH",
"224 58 OFFCURVE",
"159 127 OFFCURVE",
"159 270 CURVE SMOOTH",
"159 667 LINE",
"87 667 LINE",
"87 274 LINE SMOOTH",
"87 92 OFFCURVE",
"183 -8 OFFCURVE",
"358 -8 CURVE SMOOTH"
);
},
{
closed = 1;
nodes = (
"410 695 OFFCURVE",
"439 724 OFFCURVE",
"439 777 CURVE SMOOTH",
"439 830 OFFCURVE",
"410 859 OFFCURVE",
"358 859 CURVE SMOOTH",
"306 859 OFFCURVE",
"277 830 OFFCURVE",
"277 777 CURVE SMOOTH",
"277 724 OFFCURVE",
"306 695 OFFCURVE",
"358 695 CURVE SMOOTH"
);
},
{
closed = 1;
nodes = (
"326 729 OFFCURVE",
"313 742 OFFCURVE",
"313 777 CURVE SMOOTH",
"313 812 OFFCURVE",
"326 826 OFFCURVE",
"358 826 CURVE SMOOTH",
"390 826 OFFCURVE",
"403 812 OFFCURVE",
"403 777 CURVE SMOOTH",
"403 742 OFFCURVE",
"390 729 OFFCURVE",
"358 729 CURVE SMOOTH"
);
}
);
width = 721;
},
{
components = (
{
name = U;
},
{
name = ringcomb.case;
transform = "{1, 0, 0, 1, 167, 168}";
}
);
layerId = "ECACF70C-BE42-4FA5-B3A0-AFDA71FB1D31";
width = 740;
}
);
leftKerningGroup = U;
rightKerningGroup = U;
unicode = 016E;
},
{
glyphname = Utilde;
lastChange = "2016-08-15 16:48:09 +0000";
layers = (
{
layerId = UUID0;
paths = (
{
closed = 1;
nodes = (
"533 -9 OFFCURVE",
"629 91 OFFCURVE",
"629 274 CURVE SMOOTH",
"629 667 LINE",
"557 667 LINE",
"557 270 LINE SMOOTH",
"557 127 OFFCURVE",
"492 57 OFFCURVE",
"358 57 CURVE SMOOTH",
"224 57 OFFCURVE",
"159 127 OFFCURVE",
"159 270 CURVE SMOOTH",
"159 667 LINE",
"87 667 LINE",
"87 274 LINE SMOOTH",
"87 91 OFFCURVE",
"183 -9 OFFCURVE",
"358 -9 CURVE SMOOTH"
);
},
{
closed = 1;
nodes = (
"311 843 OFFCURVE",
"404 627 OFFCURVE",
"499 745 CURVE",
"499 800 LINE",
"404 683 OFFCURVE",
"311 899 OFFCURVE",
"217 782 CURVE",
"217 725 LINE"
);
}
);
width = 721;
},
{
components = (
{
name = U;
},
{
name = tildecomb.case;
transform = "{1, 0, 0, 1, 113, 168}";
}
);
layerId = "ECACF70C-BE42-4FA5-B3A0-AFDA71FB1D31";
width = 740;
}
);
leftKerningGroup = U;
rightKerningGroup = U;
unicode = 0168;
},
{
glyphname = V;
lastChange = "2016-08-15 13:47:20 +0000";
layers = (
{
layerId = UUID0;
paths = (
{
closed = 1;
nodes = (
"347 0 LINE",
"603 667 LINE",
"526 667 LINE",
"299 69 LINE",
"325 69 LINE",
"97 667 LINE",
"20 667 LINE",
"276 0 LINE"
);
}
);
width = 623;
},
{
layerId = "ECACF70C-BE42-4FA5-B3A0-AFDA71FB1D31";
paths = (
{
closed = 1;
nodes = (
"477 0 LINE",
"741 667 LINE",
"507 667 LINE",
"336 116 LINE",
"420 116 LINE",
"249 667 LINE",
"15 667 LINE",
"261 0 LINE"
);
}
);
width = 756;
}
);
leftMetricsKey = A;
rightMetricsKey = A;
unicode = 0056;
},
{
glyphname = W;
lastChange = "2016-08-16 14:36:25 +0000";
layers = (
{
anchors = (
{
name = bottom;
position = "{476, 0}";
},
{
name = top;
position = "{476, 667}";
}
);
layerId = UUID0;
paths = (
{
closed = 1;
nodes = (
"300 0 LINE",
"475 544 LINE",
"650 0 LINE",
"723 0 LINE",
"938 667 LINE",
"862 667 LINE",
"686 109 LINE",
"511 667 LINE",
"439 667 LINE",
"263 109 LINE",
"88 667 LINE",
"12 667 LINE",
"226 0 LINE"
);
}
);
width = 951;
},
{
anchors = (
{
name = bottom;
position = "{500, 0}";
},
{
name = top;
position = "{500, 667}";
}
);
layerId = "ECACF70C-BE42-4FA5-B3A0-AFDA71FB1D31";
paths = (
{
closed = 1;
nodes = (
"385 0 LINE",
"500 382 LINE",
"615 0 LINE",
"812 0 LINE",
"987 667 LINE",
"767 667 LINE",
"693 246 LINE",
"574 667 LINE",
"426 667 LINE",
"307 246 LINE",
"233 667 LINE",
"13 667 LINE",
"188 0 LINE"
);
}
);
width = 999;
}
);
unicode = 0057;
},
{
glyphname = Wacute;
lastChange = "2016-08-15 16:50:35 +0000";
layers = (
{
layerId = UUID0;
paths = (
{
closed = 1;
nodes = (
"300 0 LINE",
"475 544 LINE",
"650 0 LINE",
"723 0 LINE",
"938 667 LINE",
"862 667 LINE",
"686 109 LINE",
"511 667 LINE",
"439 667 LINE",
"263 109 LINE",
"88 667 LINE",
"12 667 LINE",
"226 0 LINE"
);
},
{
closed = 1;
nodes = (
"507 724 LINE",
"590 839 LINE",
"516 839 LINE",
"460 724 LINE"
);
}
);
width = 951;
},
{
components = (
{
name = W;
},
{
name = acutecomb.case;
transform = "{1, 0, 0, 1, 391, 168}";
}
);
layerId = "ECACF70C-BE42-4FA5-B3A0-AFDA71FB1D31";
width = 999;
}
);
leftKerningGroup = Wacute;
rightKerningGroup = Wacute;
unicode = 1E82;
},
{
glyphname = Wcircumflex;
lastChange = "2016-08-15 16:50:35 +0000";
layers = (
{
layerId = UUID0;
paths = (
{
closed = 1;
nodes = (
"300 0 LINE",
"475 544 LINE",
"650 0 LINE",
"723 0 LINE",
"938 667 LINE",
"862 667 LINE",
"686 109 LINE",
"511 667 LINE",
"439 667 LINE",
"263 109 LINE",
"88 667 LINE",
"12 667 LINE",
"226 0 LINE"
);
},
{
closed = 1;
nodes = (
"430 724 LINE",
"475 795 LINE",
"520 724 LINE",
"576 724 LINE",
"496 845 LINE",
"455 845 LINE",
"374 724 LINE"
);
}
);
width = 951;
},
{
components = (
{
name = W;
},
{
name = circumflexcomb.case;
transform = "{1, 0, 0, 1, 289, 73}";
}
);
layerId = "ECACF70C-BE42-4FA5-B3A0-AFDA71FB1D31";
width = 999;
}
);
leftKerningGroup = Wacute;
rightKerningGroup = Wacute;
unicode = 0174;
},
{
glyphname = Wdieresis;
lastChange = "2016-08-15 16:50:35 +0000";
layers = (
{
layerId = UUID0;
paths = (
{
closed = 1;
nodes = (
"300 0 LINE",
"475 544 LINE",
"650 0 LINE",
"723 0 LINE",
"938 667 LINE",
"862 667 LINE",
"686 109 LINE",
"511 667 LINE",
"439 667 LINE",
"263 109 LINE",
"88 667 LINE",
"12 667 LINE",
"226 0 LINE"
);
},
{
closed = 1;
nodes = (
"441 724 LINE",
"441 804 LINE",
"361 804 LINE",
"361 724 LINE"
);
},
{
closed = 1;
nodes = (
"589 724 LINE",
"589 804 LINE",
"509 804 LINE",
"509 724 LINE"
);
}
);
width = 951;
},
{
components = (
{
name = W;
},
{
name = dieresiscomb.case;
transform = "{1, 0, 0, 1, 286, 168}";
}
);
layerId = "ECACF70C-BE42-4FA5-B3A0-AFDA71FB1D31";
width = 999;
}
);
leftKerningGroup = Wacute;
rightKerningGroup = Wacute;
unicode = 1E84;
},
{
glyphname = Wgrave;
lastChange = "2016-08-15 16:50:35 +0000";
layers = (
{
layerId = UUID0;
paths = (
{
closed = 1;
nodes = (
"300 0 LINE",
"475 544 LINE",
"650 0 LINE",
"723 0 LINE",
"938 667 LINE",
"862 667 LINE",
"686 109 LINE",
"511 667 LINE",
"439 667 LINE",
"263 109 LINE",
"88 667 LINE",
"12 667 LINE",
"226 0 LINE"
);
},
{
closed = 1;
nodes = (
"491 724 LINE",
"434 839 LINE",
"360 839 LINE",
"443 724 LINE"
);
}
);
width = 951;
},
{
components = (
{
name = W;
},
{
name = gravecomb.case;
transform = "{1, 0, 0, 1, 365, 168}";
}
);
layerId = "ECACF70C-BE42-4FA5-B3A0-AFDA71FB1D31";
width = 999;
}
);
leftKerningGroup = Wacute;
rightKerningGroup = Wacute;
unicode = 1E80;
},
{
glyphname = X;
lastChange = "2016-08-15 16:39:58 +0000";
layers = (
{
layerId = UUID0;
paths = (
{
closed = 1;
nodes = (
"100 0 LINE",
"293 275 LINE",
"487 0 LINE",
"573 0 LINE",
"337 337 LINE",
"569 667 LINE",
"481 667 LINE",
"293 399 LINE",
"104 667 LINE",
"18 667 LINE",
"249 338 LINE",
"12 0 LINE"
);
}
);
width = 589;
},
{
layerId = "ECACF70C-BE42-4FA5-B3A0-AFDA71FB1D31";
paths = (
{
closed = 1;
nodes = (
"297 419 LINE",
"23 0 LINE",
"236 0 LINE",
"393 278 LINE"
);
},
{
closed = 1;
nodes = (
"260 667 LINE",
"10 667 LINE",
"458 0 LINE",
"708 0 LINE"
);
},
{
closed = 1;
nodes = (
"453 278 LINE",
"700 667 LINE",
"483 667 LINE",
"357 419 LINE"
);
}
);
width = 718;
}
);
unicode = 0058;
},
{
glyphname = Y;
lastChange = "2016-08-16 14:45:14 +0000";
layers = (
{
anchors = (
{
name = bottom;
position = "{299, 0}";
},
{
name = top;
position = "{299, 667}";
},
{
name = topleft;
position = "{20, 667}";
}
);
layerId = UUID0;
paths = (
{
closed = 1;
nodes = (
"333 0 LINE",
"333 335 LINE",
"321 289 LINE",
"581 667 LINE",
"494 667 LINE",
"287 361 LINE",
"310 355 LINE",
"99 667 LINE",
"12 667 LINE",
"261 306 LINE",
"261 0 LINE"
);
}
);
width = 598;
},
{
anchors = (
{
name = bottom;
position = "{366, 0}";
},
{
name = top;
position = "{366, 667}";
},
{
name = topleft;
position = "{20, 667}";
}
);
background = {
paths = (
{
closed = 1;
nodes = (
"481 0 LINE",
"481 667 LINE",
"280 667 LINE",
"280 0 LINE"
);
}
);
};
layerId = "ECACF70C-BE42-4FA5-B3A0-AFDA71FB1D31";
paths = (
{
closed = 1;
nodes = (
"480 0 LINE",
"480 333 LINE",
"452 231 LINE",
"717 667 LINE",
"498 667 LINE",
"356 363 LINE",
"453 365 LINE",
"282 667 LINE",
"15 667 LINE",
"280 281 LINE",
"280 0 LINE"
);
}
);
width = 732;
}
);
unicode = 0059;
},
{
glyphname = Yacute;
lastChange = "2016-08-15 16:49:32 +0000";
layers = (
{
layerId = UUID0;
paths = (
{
closed = 1;
nodes = (
"333 0 LINE",
"333 306 LINE",
"581 667 LINE",
"494 667 LINE",
"297 376 LINE",
"99 667 LINE",
"12 667 LINE",
"261 306 LINE",
"261 0 LINE"
);
},
{
closed = 1;
nodes = (
"310 724 LINE",
"393 839 LINE",
"320 839 LINE",
"263 724 LINE"
);
}
);
width = 598;
},
{
components = (
{
name = Y;
},
{
name = acutecomb.case;
transform = "{1, 0, 0, 1, 257, 168}";
}
);
layerId = "ECACF70C-BE42-4FA5-B3A0-AFDA71FB1D31";
width = 732;
}
);
leftKerningGroup = Yacute;
rightKerningGroup = Yacute;
unicode = 00DD;
},
{
glyphname = Ycircumflex;
lastChange = "2016-08-15 16:49:32 +0000";
layers = (
{
layerId = UUID0;
paths = (
{
closed = 1;
nodes = (
"333 0 LINE",
"333 306 LINE",
"581 667 LINE",
"494 667 LINE",
"297 376 LINE",
"99 667 LINE",
"12 667 LINE",
"261 306 LINE",
"261 0 LINE"
);
},
{
closed = 1;
nodes = (
"252 724 LINE",
"297 795 LINE",
"342 724 LINE",
"398 724 LINE",
"317 845 LINE",
"276 845 LINE",
"196 724 LINE"
);
}
);
width = 598;
},
{
components = (
{
name = Y;
},
{
name = circumflexcomb.case;
transform = "{1, 0, 0, 1, 155, 73}";
}
);
layerId = "ECACF70C-BE42-4FA5-B3A0-AFDA71FB1D31";
width = 732;
}
);
leftKerningGroup = Yacute;
rightKerningGroup = Yacute;
unicode = 0176;
},
{
glyphname = Ydieresis;
lastChange = "2016-08-15 16:49:32 +0000";
layers = (
{
layerId = UUID0;
paths = (
{
closed = 1;
nodes = (
"333 0 LINE",
"333 306 LINE",
"581 667 LINE",
"494 667 LINE",
"297 376 LINE",
"99 667 LINE",
"12 667 LINE",
"261 306 LINE",
"261 0 LINE"
);
},
{
closed = 1;
nodes = (
"263 724 LINE",
"263 804 LINE",
"183 804 LINE",
"183 724 LINE"
);
},
{
closed = 1;
nodes = (
"411 724 LINE",
"411 804 LINE",
"331 804 LINE",
"331 724 LINE"
);
}
);
width = 598;
},
{
components = (
{
name = Y;
},
{
name = dieresiscomb.case;
transform = "{1, 0, 0, 1, 152, 168}";
}
);
layerId = "ECACF70C-BE42-4FA5-B3A0-AFDA71FB1D31";
width = 732;
}
);
leftKerningGroup = Yacute;
rightKerningGroup = Yacute;
unicode = 0178;
},
{
glyphname = Ydotbelow;
lastChange = "2016-08-15 16:49:32 +0000";
layers = (
{
layerId = UUID0;
paths = (
{
closed = 1;
nodes = (
"333 0 LINE",
"333 306 LINE",
"581 667 LINE",
"494 667 LINE",
"297 376 LINE",
"99 667 LINE",
"12 667 LINE",
"261 306 LINE",
"261 0 LINE"
);
},
{
closed = 1;
nodes = (
"336 -129 LINE",
"336 -50 LINE",
"257 -50 LINE",
"257 -129 LINE"
);
}
);
width = 598;
},
{
components = (
{
name = Y;
},
{
name = dotbelowcomb.case;
transform = "{1, 0, 0, 1, 256, 0}";
}
);
layerId = "ECACF70C-BE42-4FA5-B3A0-AFDA71FB1D31";
width = 732;
}
);
leftKerningGroup = Yacute;
rightKerningGroup = Yacute;
unicode = 1EF4;
},
{
glyphname = Ygrave;
lastChange = "2016-08-15 16:49:32 +0000";
layers = (
{
layerId = UUID0;
paths = (
{
closed = 1;
nodes = (
"333 0 LINE",
"333 306 LINE",
"581 667 LINE",
"494 667 LINE",
"297 376 LINE",
"99 667 LINE",
"12 667 LINE",
"261 306 LINE",
"261 0 LINE"
);
},
{
closed = 1;
nodes = (
"332 724 LINE",
"275 839 LINE",
"201 839 LINE",
"284 724 LINE"
);
}
);
width = 598;
},
{
components = (
{
name = Y;
},
{
name = gravecomb.case;
transform = "{1, 0, 0, 1, 231, 168}";
}
);
layerId = "ECACF70C-BE42-4FA5-B3A0-AFDA71FB1D31";
width = 732;
}
);
leftKerningGroup = Yacute;
rightKerningGroup = Yacute;
unicode = 1EF2;
},
{
glyphname = Yhookabove;
lastChange = "2016-08-15 16:49:32 +0000";
layers = (
{
layerId = UUID0;
paths = (
{
closed = 1;
nodes = (
"333 0 LINE",
"333 306 LINE",
"581 667 LINE",
"494 667 LINE",
"297 376 LINE",
"99 667 LINE",
"12 667 LINE",
"261 306 LINE",
"261 0 LINE"
);
},
{
closed = 1;
nodes = (
"317 724 LINE",
"317 748 LINE",
"353 754 OFFCURVE",
"369 776 OFFCURVE",
"369 802 CURVE SMOOTH",
"369 855 OFFCURVE",
"319 870 OFFCURVE",
"277 870 CURVE SMOOTH",
"266 870 OFFCURVE",
"256 868 OFFCURVE",
"247 867 CURVE",
"247 823 LINE",
"254 825 OFFCURVE",
"263 826 OFFCURVE",
"274 826 CURVE SMOOTH",
"303 826 OFFCURVE",
"321 816 OFFCURVE",
"321 799 CURVE SMOOTH",
"321 790 OFFCURVE",
"312 777 OFFCURVE",
"284 776 CURVE",
"284 724 LINE"
);
}
);
width = 598;
},
{
components = (
{
name = Y;
},
{
name = hookabovecomb.case;
transform = "{1, 0, 0, 1, 245, 171}";
}
);
layerId = "ECACF70C-BE42-4FA5-B3A0-AFDA71FB1D31";
width = 732;
}
);
leftKerningGroup = Yacute;
rightKerningGroup = Yacute;
unicode = 1EF6;
},
{
glyphname = Ytilde;
lastChange = "2016-08-15 16:49:37 +0000";
layers = (
{
layerId = UUID0;
paths = (
{
closed = 1;
nodes = (
"333 0 LINE",
"333 306 LINE",
"581 667 LINE",
"494 667 LINE",
"297 376 LINE",
"99 667 LINE",
"12 667 LINE",
"261 306 LINE",
"261 0 LINE"
);
},
{
closed = 1;
nodes = (
"249 843 OFFCURVE",
"343 627 OFFCURVE",
"437 745 CURVE",
"437 800 LINE",
"343 683 OFFCURVE",
"249 899 OFFCURVE",
"156 782 CURVE",
"156 725 LINE"
);
}
);
width = 598;
},
{
components = (
{
name = Y;
},
{
name = tildecomb.case;
transform = "{1, 0, 0, 1, 109, 168}";
}
);
layerId = "ECACF70C-BE42-4FA5-B3A0-AFDA71FB1D31";
width = 732;
}
);
leftKerningGroup = Yacute;
rightKerningGroup = Yacute;
unicode = 1EF8;
},
{
glyphname = Z;
lastChange = "2016-08-16 14:37:12 +0000";
layers = (
{
anchors = (
{
name = bottom;
position = "{305, 0}";
},
{
name = top;
position = "{305, 667}";
}
);
layerId = UUID0;
paths = (
{
closed = 1;
nodes = (
"539 0 LINE",
"539 68 LINE",
"125 68 LINE",
"134 41 LINE",
"539 606 LINE",
"539 667 LINE",
"74 667 LINE",
"74 599 LINE",
"492 599 LINE",
"478 632 LINE",
"64 63 LINE",
"64 0 LINE"
);
}
);
width = 609;
},
{
anchors = (
{
name = bottom;
position = "{312, 0}";
},
{
name = top;
position = "{312, 667}";
}
);
layerId = "ECACF70C-BE42-4FA5-B3A0-AFDA71FB1D31";
paths = (
{
closed = 1;
nodes = (
"594 0 LINE",
"594 171 LINE",
"217 171 LINE",
"302 151 LINE",
"594 528 LINE",
"594 667 LINE",
"53 667 LINE",
"53 494 LINE",
"430 494 LINE",
"351 514 LINE",
"50 142 LINE",
"50 0 LINE"
);
}
);
width = 644;
}
);
rightKerningGroup = Z;
unicode = 005A;
},
{
glyphname = Zacute;
lastChange = "2016-08-15 16:53:04 +0000";
layers = (
{
layerId = UUID0;
paths = (
{
closed = 1;
nodes = (
"539 0 LINE",
"539 72 LINE",
"156 72 LINE",
"539 606 LINE",
"539 667 LINE",
"74 667 LINE",
"74 595 LINE",
"445 595 LINE",
"64 63 LINE",
"64 0 LINE"
);
},
{
closed = 1;
nodes = (
"321 724 LINE",
"404 839 LINE",
"330 839 LINE",
"273 724 LINE"
);
}
);
width = 609;
},
{
components = (
{
name = Z;
},
{
name = acutecomb.case;
transform = "{1, 0, 0, 1, 218, 168}";
}
);
layerId = "ECACF70C-BE42-4FA5-B3A0-AFDA71FB1D31";
width = 653;
}
);
leftKerningGroup = Zacute;
rightKerningGroup = Z;
unicode = 0179;
},
{
glyphname = Zcaron;
lastChange = "2016-08-15 16:53:04 +0000";
layers = (
{
layerId = UUID0;
paths = (
{
closed = 1;
nodes = (
"539 0 LINE",
"539 72 LINE",
"156 72 LINE",
"539 606 LINE",
"539 667 LINE",
"74 667 LINE",
"74 595 LINE",
"445 595 LINE",
"64 63 LINE",
"64 0 LINE"
);
},
{
closed = 1;
nodes = (
"334 724 LINE",
"415 845 LINE",
"359 845 LINE",
"313 774 LINE",
"268 845 LINE",
"212 845 LINE",
"293 724 LINE"
);
}
);
width = 609;
},
{
components = (
{
name = Z;
},
{
name = caroncomb.case;
transform = "{1, 0, 0, 1, 111, 168}";
}
);
layerId = "ECACF70C-BE42-4FA5-B3A0-AFDA71FB1D31";
width = 653;
}
);
leftKerningGroup = Zacute;
rightKerningGroup = Z;
unicode = 017D;
},
{
glyphname = Zdotaccent;
lastChange = "2016-08-15 16:53:04 +0000";
layers = (
{
layerId = UUID0;
paths = (
{
closed = 1;
nodes = (
"539 0 LINE",
"539 72 LINE",
"156 72 LINE",
"539 606 LINE",
"539 667 LINE",
"74 667 LINE",
"74 595 LINE",
"445 595 LINE",
"64 63 LINE",
"64 0 LINE"
);
},
{
closed = 1;
nodes = (
"342 724 LINE",
"342 804 LINE",
"262 804 LINE",
"262 724 LINE"
);
}
);
width = 609;
},
{
components = (
{
name = Z;
},
{
name = dotaccentcomb.case;
transform = "{1, 0, 0, 1, 153, 168}";
}
);
layerId = "ECACF70C-BE42-4FA5-B3A0-AFDA71FB1D31";
width = 653;
}
);
leftKerningGroup = Zacute;
rightKerningGroup = Z;
unicode = 017B;
},
{
glyphname = a;
lastChange = "2016-08-16 14:46:01 +0000";
layers = (
{
anchors = (
{
name = bottom;
position = "{267, 0}";
},
{
name = ogonek;
position = "{461, 40}";
},
{
name = top;
position = "{287, 499}";
}
);
layerId = UUID0;
paths = (
{
closed = 1;
nodes = (
"360 -15 OFFCURVE",
"430 15 OFFCURVE",
"470 50 CURVE",
"470 348 LINE",
"470 455 OFFCURVE",
"398 508 OFFCURVE",
"289 508 CURVE",
"223 508 OFFCURVE",
"146 493 OFFCURVE",
"105 467 CURVE",
"105 395 LINE",
"147 428 OFFCURVE",
"212 443 OFFCURVE",
"266 443 CURVE SMOOTH",
"350 443 OFFCURVE",
"397 408 OFFCURVE",
"397 331 CURVE",
"397 34 LINE",
"412 95 LINE",
"385 67 OFFCURVE",
"328 49 OFFCURVE",
"265 49 CURVE",
"207 49 OFFCURVE",
"128 73 OFFCURVE",
"128 143 CURVE",
"128 209 OFFCURVE",
"180 242 OFFCURVE",
"259 242 CURVE",
"328 242 OFFCURVE",
"390 222 OFFCURVE",
"421 200 CURVE",
"407 272 LINE",
"369 296 OFFCURVE",
"321 307 OFFCURVE",
"267 307 CURVE",
"172 307 OFFCURVE",
"56 265 OFFCURVE",
"56 137 CURVE",
"56 32 OFFCURVE",
"161 -15 OFFCURVE",
"265 -15 CURVE"
);
}
);
width = 545;
},
{
anchors = (
{
name = bottom;
position = "{281, 0}";
},
{
name = ogonek;
position = "{494, 26}";
},
{
name = top;
position = "{281, 499}";
}
);
layerId = "ECACF70C-BE42-4FA5-B3A0-AFDA71FB1D31";
paths = (
{
closed = 1;
nodes = (
"369 -24 OFFCURVE",
"490 -1 OFFCURVE",
"517 8 CURVE",
"519 342 LINE",
"520 514 OFFCURVE",
"349 526 OFFCURVE",
"285 526 CURVE",
"184 526 OFFCURVE",
"104 501 OFFCURVE",
"74 481 CURVE",
"74 320 LINE",
"107 348 OFFCURVE",
"174 376 OFFCURVE",
"235 376 CURVE",
"301 376 OFFCURVE",
"340 354 OFFCURVE",
"340 299 CURVE",
"340 12 LINE",
"358 107 LINE",
"338 102 OFFCURVE",
"298 99 OFFCURVE",
"265 99 CURVE",
"235 99 OFFCURVE",
"210 124 OFFCURVE",
"210 149 CURVE",
"210 182 OFFCURVE",
"232 204 OFFCURVE",
"289 204 CURVE",
"319 204 OFFCURVE",
"349 197 OFFCURVE",
"374 184 CURVE",
"371 259 LINE",
"344 288 OFFCURVE",
"271 316 OFFCURVE",
"209 316 CURVE",
"80 316 OFFCURVE",
"30 239 OFFCURVE",
"30 158 CURVE",
"30 18 OFFCURVE",
"126 -24 OFFCURVE",
"235 -24 CURVE"
);
}
);
width = 579;
}
);
leftKerningGroup = a;
rightKerningGroup = a;
rightMetricsKey = n;
unicode = 0061;
},
{
glyphname = abreveacute;
lastChange = "2016-08-08 18:10:57 +0000";
layers = (
{
components = (
{
name = a;
}
);
layerId = UUID0;
paths = (
{
closed = 1;
nodes = (
"338 539 OFFCURVE",
"377 578 OFFCURVE",
"377 643 CURVE",
"329 643 LINE",
"329 603 OFFCURVE",
"312 587 OFFCURVE",
"272 587 CURVE SMOOTH",
"232 587 OFFCURVE",
"215 603 OFFCURVE",
"215 643 CURVE",
"167 643 LINE",
"167 578 OFFCURVE",
"206 539 OFFCURVE",
"272 539 CURVE SMOOTH"
);
},
{
closed = 1;
nodes = (
"290 659 LINE",
"373 774 LINE",
"299 774 LINE",
"242 659 LINE"
);
}
);
width = 534;
},
{
components = (
{
name = a;
}
);
layerId = "ECACF70C-BE42-4FA5-B3A0-AFDA71FB1D31";
paths = (
{
closed = 1;
nodes = (
"367 538 OFFCURVE",
"409 578 OFFCURVE",
"409 645 CURVE",
"319 645 LINE",
"316 623 OFFCURVE",
"307 609 OFFCURVE",
"278 609 CURVE SMOOTH",
"249 609 OFFCURVE",
"240 623 OFFCURVE",
"237 645 CURVE",
"147 645 LINE",
"147 578 OFFCURVE",
"189 538 OFFCURVE",
"278 538 CURVE SMOOTH"
);
},
{
closed = 1;
nodes = (
"316 654 LINE",
"409 771 LINE",
"292 771 LINE",
"230 654 LINE"
);
}
);
width = 551;
}
);
leftKerningGroup = a;
rightKerningGroup = a;
unicode = 1EAF;
},
{
glyphname = abrevedotbelow;
lastChange = "2016-08-08 18:11:06 +0000";
layers = (
{
components = (
{
name = a;
}
);
layerId = UUID0;
paths = (
{
closed = 1;
nodes = (
"320 -129 LINE",
"320 -50 LINE",
"241 -50 LINE",
"241 -129 LINE"
);
},
{
closed = 1;
nodes = (
"338 539 OFFCURVE",
"377 578 OFFCURVE",
"377 643 CURVE",
"329 643 LINE",
"329 603 OFFCURVE",
"312 587 OFFCURVE",
"272 587 CURVE SMOOTH",
"232 587 OFFCURVE",
"215 603 OFFCURVE",
"215 643 CURVE",
"167 643 LINE",
"167 578 OFFCURVE",
"206 539 OFFCURVE",
"272 539 CURVE SMOOTH"
);
}
);
width = 534;
},
{
components = (
{
name = a;
}
);
layerId = "ECACF70C-BE42-4FA5-B3A0-AFDA71FB1D31";
paths = (
{
closed = 1;
nodes = (
"341 -159 LINE",
"341 -50 LINE",
"221 -50 LINE",
"221 -159 LINE"
);
},
{
closed = 1;
nodes = (
"370 538 OFFCURVE",
"412 578 OFFCURVE",
"412 645 CURVE",
"322 645 LINE",
"319 623 OFFCURVE",
"310 609 OFFCURVE",
"281 609 CURVE SMOOTH",
"252 609 OFFCURVE",
"243 623 OFFCURVE",
"240 645 CURVE",
"150 645 LINE",
"150 578 OFFCURVE",
"192 538 OFFCURVE",
"281 538 CURVE SMOOTH"
);
}
);
width = 551;
}
);
leftKerningGroup = a;
rightKerningGroup = a;
unicode = 1EB7;
},
{
glyphname = abrevegrave;
lastChange = "2016-08-08 18:11:16 +0000";
layers = (
{
components = (
{
name = a;
}
);
layerId = UUID0;
paths = (
{
closed = 1;
nodes = (
"338 539 OFFCURVE",
"377 578 OFFCURVE",
"377 643 CURVE",
"329 643 LINE",
"329 603 OFFCURVE",
"312 587 OFFCURVE",
"272 587 CURVE SMOOTH",
"232 587 OFFCURVE",
"215 603 OFFCURVE",
"215 643 CURVE",
"167 643 LINE",
"167 578 OFFCURVE",
"206 539 OFFCURVE",
"272 539 CURVE SMOOTH"
);
},
{
closed = 1;
nodes = (
"301 659 LINE",
"244 774 LINE",
"170 774 LINE",
"253 659 LINE"
);
}
);
width = 534;
},
{
components = (
{
name = a;
}
);
layerId = "ECACF70C-BE42-4FA5-B3A0-AFDA71FB1D31";
paths = (
{
closed = 1;
nodes = (
"367 538 OFFCURVE",
"409 578 OFFCURVE",
"409 645 CURVE",
"319 645 LINE",
"316 623 OFFCURVE",
"307 609 OFFCURVE",
"278 609 CURVE SMOOTH",
"249 609 OFFCURVE",
"240 623 OFFCURVE",
"237 645 CURVE",
"147 645 LINE",
"147 578 OFFCURVE",
"189 538 OFFCURVE",
"278 538 CURVE SMOOTH"
);
},
{
closed = 1;
nodes = (
"326 653 LINE",
"264 770 LINE",
"147 770 LINE",
"240 653 LINE"
);
}
);
width = 551;
}
);
leftKerningGroup = a;
rightKerningGroup = a;
unicode = 1EB1;
},
{
glyphname = abrevehookabove;
lastChange = "2016-08-08 18:11:24 +0000";
layers = (
{
components = (
{
name = a;
}
);
layerId = UUID0;
paths = (
{
closed = 1;
nodes = (
"338 539 OFFCURVE",
"377 578 OFFCURVE",
"377 643 CURVE",
"329 643 LINE",
"329 603 OFFCURVE",
"312 587 OFFCURVE",
"272 587 CURVE SMOOTH",
"232 587 OFFCURVE",
"215 603 OFFCURVE",
"215 643 CURVE",
"167 643 LINE",
"167 578 OFFCURVE",
"206 539 OFFCURVE",
"272 539 CURVE SMOOTH"
);
},
{
closed = 1;
nodes = (
"289 659 LINE",
"289 683 LINE",
"325 690 OFFCURVE",
"342 711 OFFCURVE",
"342 737 CURVE SMOOTH",
"342 790 OFFCURVE",
"292 805 OFFCURVE",
"250 805 CURVE SMOOTH",
"239 805 OFFCURVE",
"228 804 OFFCURVE",
"219 802 CURVE",
"219 759 LINE",
"227 760 OFFCURVE",
"236 761 OFFCURVE",
"246 761 CURVE SMOOTH",
"276 761 OFFCURVE",
"293 752 OFFCURVE",
"293 735 CURVE SMOOTH",
"293 725 OFFCURVE",
"284 712 OFFCURVE",
"256 711 CURVE",
"256 659 LINE"
);
}
);
width = 534;
},
{
components = (
{
name = a;
}
);
layerId = "ECACF70C-BE42-4FA5-B3A0-AFDA71FB1D31";
paths = (
{
closed = 1;
nodes = (
"376 538 OFFCURVE",
"418 578 OFFCURVE",
"418 645 CURVE",
"328 645 LINE",
"325 623 OFFCURVE",
"316 609 OFFCURVE",
"287 609 CURVE SMOOTH",
"258 609 OFFCURVE",
"249 623 OFFCURVE",
"246 645 CURVE",
"156 645 LINE",
"156 578 OFFCURVE",
"198 538 OFFCURVE",
"287 538 CURVE SMOOTH"
);
},
{
closed = 1;
nodes = (
"321 655 LINE",
"321 678 LINE",
"321 678 OFFCURVE",
"370 685 OFFCURVE",
"370 733 CURVE SMOOTH",
"370 781 OFFCURVE",
"328 805 OFFCURVE",
"278 805 CURVE SMOOTH",
"263 805 OFFCURVE",
"237 802 OFFCURVE",
"228 800 CURVE",
"228 747 LINE",
"241 750 OFFCURVE",
"251 751 OFFCURVE",
"259 751 CURVE SMOOTH",
"273 751 OFFCURVE",
"289 747 OFFCURVE",
"289 730 CURVE SMOOTH",
"289 717 OFFCURVE",
"274 714 OFFCURVE",
"263 714 CURVE",
"263 655 LINE"
);
}
);
width = 551;
}
);
leftKerningGroup = a;
rightKerningGroup = a;
unicode = 1EB3;
},
{
glyphname = abrevetilde;
lastChange = "2016-08-08 18:11:32 +0000";
layers = (
{
components = (
{
name = a;
}
);
layerId = UUID0;
paths = (
{
closed = 1;
nodes = (
"338 539 OFFCURVE",
"377 578 OFFCURVE",
"377 643 CURVE",
"329 643 LINE",
"329 603 OFFCURVE",
"312 587 OFFCURVE",
"272 587 CURVE SMOOTH",
"232 587 OFFCURVE",
"215 603 OFFCURVE",
"215 643 CURVE",
"167 643 LINE",
"167 578 OFFCURVE",
"206 539 OFFCURVE",
"272 539 CURVE SMOOTH"
);
},
{
closed = 1;
nodes = (
"225 813 OFFCURVE",
"318 597 OFFCURVE",
"413 715 CURVE",
"413 770 LINE",
"318 653 OFFCURVE",
"225 869 OFFCURVE",
"131 752 CURVE",
"131 695 LINE"
);
}
);
width = 534;
},
{
components = (
{
name = a;
}
);
layerId = "ECACF70C-BE42-4FA5-B3A0-AFDA71FB1D31";
paths = (
{
closed = 1;
nodes = (
"375 538 OFFCURVE",
"417 578 OFFCURVE",
"417 645 CURVE",
"327 645 LINE",
"324 623 OFFCURVE",
"315 609 OFFCURVE",
"286 609 CURVE SMOOTH",
"257 609 OFFCURVE",
"248 623 OFFCURVE",
"245 645 CURVE",
"155 645 LINE",
"155 578 OFFCURVE",
"197 538 OFFCURVE",
"286 538 CURVE SMOOTH"
);
},
{
closed = 1;
nodes = (
"236 792 OFFCURVE",
"337 573 OFFCURVE",
"438 692 CURVE",
"438 777 LINE",
"337 658 OFFCURVE",
"236 877 OFFCURVE",
"134 758 CURVE",
"134 673 LINE"
);
}
);
width = 551;
}
);
leftKerningGroup = a;
rightKerningGroup = a;
unicode = 1EB5;
},
{
glyphname = acircumflexacute;
lastChange = "2016-08-08 18:11:40 +0000";
layers = (
{
components = (
{
name = a;
}
);
layerId = UUID0;
paths = (
{
closed = 1;
nodes = (
"232 547 LINE",
"278 617 LINE",
"323 547 LINE",
"379 547 LINE",
"298 667 LINE",
"257 667 LINE",
"176 547 LINE"
);
},
{
closed = 1;
nodes = (
"387 638 LINE",
"470 753 LINE",
"396 753 LINE",
"339 638 LINE"
);
}
);
width = 534;
},
{
components = (
{
name = a;
}
);
layerId = "ECACF70C-BE42-4FA5-B3A0-AFDA71FB1D31";
paths = (
{
closed = 1;
nodes = (
"233 543 LINE",
"275 587 LINE",
"317 543 LINE",
"419 543 LINE",
"299 665 LINE",
"251 665 LINE",
"131 543 LINE"
);
},
{
closed = 1;
nodes = (
"446 610 LINE",
"539 727 LINE",
"422 727 LINE",
"360 610 LINE"
);
}
);
width = 551;
}
);
leftKerningGroup = a;
rightKerningGroup = a;
unicode = 1EA5;
},
{
glyphname = acircumflexdotbelow;
lastChange = "2016-08-08 18:11:48 +0000";
layers = (
{
components = (
{
name = a;
}
);
layerId = UUID0;
paths = (
{
closed = 1;
nodes = (
"320 -129 LINE",
"320 -50 LINE",
"241 -50 LINE",
"241 -129 LINE"
);
},
{
closed = 1;
nodes = (
"232 547 LINE",
"278 617 LINE",
"323 547 LINE",
"379 547 LINE",
"298 667 LINE",
"257 667 LINE",
"176 547 LINE"
);
}
);
width = 534;
},
{
components = (
{
name = a;
}
);
layerId = "ECACF70C-BE42-4FA5-B3A0-AFDA71FB1D31";
paths = (
{
closed = 1;
nodes = (
"335 -159 LINE",
"335 -50 LINE",
"215 -50 LINE",
"215 -159 LINE"
);
},
{
closed = 1;
nodes = (
"233 543 LINE",
"275 587 LINE",
"317 543 LINE",
"419 543 LINE",
"299 665 LINE",
"251 665 LINE",
"131 543 LINE"
);
}
);
width = 551;
}
);
leftKerningGroup = a;
rightKerningGroup = a;
unicode = 1EAD;
},
{
glyphname = acircumflexgrave;
lastChange = "2016-08-08 18:11:55 +0000";
layers = (
{
components = (
{
name = a;
}
);
layerId = UUID0;
paths = (
{
closed = 1;
nodes = (
"216 638 LINE",
"159 753 LINE",
"85 753 LINE",
"168 638 LINE"
);
},
{
closed = 1;
nodes = (
"232 547 LINE",
"277 617 LINE",
"323 547 LINE",
"379 547 LINE",
"298 667 LINE",
"257 667 LINE",
"176 547 LINE"
);
}
);
width = 534;
},
{
components = (
{
name = a;
}
);
layerId = "ECACF70C-BE42-4FA5-B3A0-AFDA71FB1D31";
paths = (
{
closed = 1;
nodes = (
"190 609 LINE",
"128 726 LINE",
"11 726 LINE",
"104 609 LINE"
);
},
{
closed = 1;
nodes = (
"233 543 LINE",
"275 587 LINE",
"317 543 LINE",
"419 543 LINE",
"299 665 LINE",
"251 665 LINE",
"131 543 LINE"
);
}
);
width = 551;
}
);
leftKerningGroup = a;
rightKerningGroup = a;
unicode = 1EA7;
},
{
glyphname = acircumflexhookabove;
lastChange = "2016-08-08 18:12:02 +0000";
layers = (
{
components = (
{
name = a;
}
);
layerId = UUID0;
paths = (
{
closed = 1;
nodes = (
"232 547 LINE",
"278 617 LINE",
"323 547 LINE",
"379 547 LINE",
"298 667 LINE",
"257 667 LINE",
"176 547 LINE"
);
},
{
closed = 1;
nodes = (
"387 626 LINE",
"387 650 LINE",
"424 656 OFFCURVE",
"440 678 OFFCURVE",
"440 704 CURVE SMOOTH",
"440 757 OFFCURVE",
"390 772 OFFCURVE",
"348 772 CURVE SMOOTH",
"337 772 OFFCURVE",
"327 770 OFFCURVE",
"317 769 CURVE",
"317 726 LINE",
"325 727 OFFCURVE",
"334 728 OFFCURVE",
"344 728 CURVE SMOOTH",
"374 728 OFFCURVE",
"392 718 OFFCURVE",
"392 701 CURVE SMOOTH",
"392 692 OFFCURVE",
"382 679 OFFCURVE",
"354 678 CURVE",
"354 626 LINE"
);
}
);
width = 534;
},
{
components = (
{
name = a;
}
);
layerId = "ECACF70C-BE42-4FA5-B3A0-AFDA71FB1D31";
paths = (
{
closed = 1;
nodes = (
"233 543 LINE",
"275 587 LINE",
"317 543 LINE",
"419 543 LINE",
"299 665 LINE",
"251 665 LINE",
"131 543 LINE"
);
},
{
closed = 1;
nodes = (
"423 610 LINE",
"423 633 LINE",
"423 633 OFFCURVE",
"472 640 OFFCURVE",
"472 688 CURVE SMOOTH",
"472 736 OFFCURVE",
"430 760 OFFCURVE",
"380 760 CURVE SMOOTH",
"365 760 OFFCURVE",
"339 757 OFFCURVE",
"330 755 CURVE",
"330 702 LINE",
"343 705 OFFCURVE",
"353 706 OFFCURVE",
"361 706 CURVE SMOOTH",
"375 706 OFFCURVE",
"391 702 OFFCURVE",
"391 685 CURVE SMOOTH",
"391 672 OFFCURVE",
"376 669 OFFCURVE",
"365 669 CURVE",
"365 610 LINE"
);
}
);
width = 551;
}
);
leftKerningGroup = a;
rightKerningGroup = a;
unicode = 1EA9;
},
{
glyphname = acircumflextilde;
lastChange = "2016-08-08 18:12:10 +0000";
layers = (
{
components = (
{
name = a;
}
);
layerId = UUID0;
paths = (
{
closed = 1;
nodes = (
"232 541 LINE",
"278 611 LINE",
"323 541 LINE",
"379 541 LINE",
"298 661 LINE",
"257 661 LINE",
"176 541 LINE"
);
},
{
closed = 1;
nodes = (
"234 810 OFFCURVE",
"328 594 OFFCURVE",
"422 712 CURVE",
"422 767 LINE",
"328 650 OFFCURVE",
"234 866 OFFCURVE",
"141 749 CURVE",
"141 692 LINE"
);
}
);
width = 534;
},
{
components = (
{
name = a;
}
);
layerId = "ECACF70C-BE42-4FA5-B3A0-AFDA71FB1D31";
paths = (
{
closed = 1;
nodes = (
"233 536 LINE",
"275 580 LINE",
"317 536 LINE",
"419 536 LINE",
"299 658 LINE",
"251 658 LINE",
"131 536 LINE"
);
},
{
closed = 1;
nodes = (
"225 794 OFFCURVE",
"326 575 OFFCURVE",
"427 694 CURVE",
"427 779 LINE",
"326 660 OFFCURVE",
"225 879 OFFCURVE",
"123 760 CURVE",
"123 675 LINE"
);
}
);
width = 551;
}
);
leftKerningGroup = a;
rightKerningGroup = a;
unicode = 1EAB;
},
{
glyphname = adotbelow;
lastChange = "2016-08-08 18:12:41 +0000";
layers = (
{
components = (
{
name = a;
}
);
layerId = UUID0;
paths = (
{
closed = 1;
nodes = (
"320 -129 LINE",
"320 -50 LINE",
"241 -50 LINE",
"241 -129 LINE"
);
}
);
width = 534;
},
{
components = (
{
name = a;
}
);
layerId = "ECACF70C-BE42-4FA5-B3A0-AFDA71FB1D31";
paths = (
{
closed = 1;
nodes = (
"343 -159 LINE",
"343 -50 LINE",
"223 -50 LINE",
"223 -159 LINE"
);
}
);
width = 551;
}
);
leftKerningGroup = a;
rightKerningGroup = a;
unicode = 1EA1;
},
